<svg width="17" height="17" viewBox="0 0 17 17" fill="none" xmlns="http://www.w3.org/2000/svg">
<path d="M5.83325 6.70874H11.1666" stroke="#312782" stroke-width="1.5" stroke-linecap="round" stroke-linejoin="round"/>
<path d="M5.16675 9.37524H5.83342" stroke="#312782" stroke-width="1.5" stroke-linecap="round" stroke-linejoin="round"/>
<path d="M11.1667 9.37524H11.8334" stroke="#312782" stroke-width="1.5" stroke-linecap="round" stroke-linejoin="round"/>
<path d="M2.5 12.0421V7.64907C2.5 7.46854 2.53668 7.28981 2.60781 7.12387L4.15367 3.51685C4.36377 3.0266 4.84583 2.70874 5.37919 2.70874H11.6208C12.1542 2.70874 12.6362 3.0266 12.8463 3.51685L14.3922 7.12387C14.4633 7.28981 14.5 7.46854 14.5 7.64907V12.0421M2.5 12.0421V13.6421C2.5 13.863 2.67909 14.0421 2.9 14.0421H4.76667C4.98758 14.0421 5.16667 13.863 5.16667 13.6421V12.0421M2.5 12.0421H5.16667M14.5 12.0421V13.6421C14.5 13.863 14.3209 14.0421 14.1 14.0421H12.2333C12.0124 14.0421 11.8333 13.863 11.8333 13.6421V12.0421M14.5 12.0421H11.8333M5.16667 12.0421H11.8333" stroke="#312782" stroke-width="1.5"/>
</svg>
