<svg width="368" height="112" viewBox="0 0 368 112" fill="none" xmlns="http://www.w3.org/2000/svg">
<g filter="url(#filter0_d_83_1854)">
<path d="M361.635 44.6108C362.034 50.8357 357.809 57.3034 349.22 63.6778C340.672 70.021 328.038 76.0879 312.204 81.5329C280.551 92.4181 236.337 100.743 187.071 103.901C137.806 107.06 92.8895 104.45 60.1058 97.6961C43.7066 94.3177 30.401 89.9139 21.1134 84.7142C11.7801 79.4889 6.76368 73.6137 6.36458 67.3888C5.96547 61.1639 10.1905 54.6963 18.7801 48.3219C27.3276 41.9787 39.962 35.9117 55.7954 30.4667C87.4482 19.5815 131.663 11.2568 180.929 8.09817C230.194 4.93954 275.11 7.54965 307.894 14.3035C324.293 17.6819 337.599 22.0858 346.886 27.2855C356.22 32.5108 361.236 38.3859 361.635 44.6108Z" stroke="url(#paint0_linear_83_1854)" stroke-opacity="0.5" stroke-width="2"/>
</g>
<defs>
<filter id="filter0_d_83_1854" x="0.338623" y="0.765625" width="367.323" height="110.469" filterUnits="userSpaceOnUse" color-interpolation-filters="sRGB">
<feFlood flood-opacity="0" result="BackgroundImageFix"/>
<feColorMatrix in="SourceAlpha" type="matrix" values="0 0 0 0 0 0 0 0 0 0 0 0 0 0 0 0 0 0 127 0" result="hardAlpha"/>
<feOffset/>
<feGaussianBlur stdDeviation="2.5"/>
<feColorMatrix type="matrix" values="0 0 0 0 0.192157 0 0 0 0 0.152941 0 0 0 0 0.509804 0 0 0 0.37 0"/>
<feBlend mode="normal" in2="BackgroundImageFix" result="effect1_dropShadow_83_1854"/>
<feBlend mode="normal" in="SourceGraphic" in2="effect1_dropShadow_83_1854" result="shape"/>
</filter>
<linearGradient id="paint0_linear_83_1854" x1="186.818" y1="104.92" x2="180.567" y2="1.78246" gradientUnits="userSpaceOnUse">
<stop stop-color="#312782"/>
<stop offset="1" stop-color="#312782" stop-opacity="0"/>
</linearGradient>
</defs>
</svg>
