<svg width="375" height="380" viewBox="0 0 375 380" fill="none" xmlns="http://www.w3.org/2000/svg">
    <g opacity="0.3" filter="url(#filter0_f_96_3396)">
        <path fill-rule="evenodd" clip-rule="evenodd" d="M26.4533 156.263C33.9211 156.458 41.6724 154.528 48.3621 157.636C55.3598 160.887 62.0155 166.46 63.7368 173.584C65.4188 180.545 58.5466 186.61 57.0541 193.609C55.6768 200.067 59.1721 207.366 55.3527 212.9C51.4321 218.581 43.4432 219.883 36.914 222.792C29.0669 226.289 21.646 233.605 13.1991 231.684C4.79094 229.771 -0.359874 221.222 -3.35158 213.634C-5.91478 207.132 -0.493273 200.109 -1.92852 193.311C-3.49537 185.889 -13.0567 180.613 -11.9038 173.126C-10.7547 165.662 -3.55738 159.681 3.74357 156.471C10.7354 153.398 18.7296 156.062 26.4533 156.263Z" fill="#837DB4" />
    </g>
    <g opacity="0.3" filter="url(#filter1_f_96_3396)">
        <path fill-rule="evenodd" clip-rule="evenodd" d="M195.644 101.788C206.256 102.064 217.271 99.3324 226.778 103.732C236.722 108.334 246.18 116.223 248.626 126.307C251.016 136.161 241.25 144.746 239.13 154.654C237.172 163.797 242.139 174.128 236.712 181.963C231.14 190.005 219.788 191.847 210.509 195.966C199.358 200.915 188.813 211.272 176.809 208.552C164.861 205.845 157.541 193.743 153.29 183.001C149.647 173.797 157.352 163.855 155.312 154.232C153.086 143.726 139.498 136.257 141.137 125.658C142.77 115.093 152.997 106.626 163.372 102.083C173.308 97.7318 184.668 101.503 195.644 101.788Z" fill="#86CBEC" />
    </g>
    <g opacity="0.3" filter="url(#filter2_f_96_3396)">
        <path fill-rule="evenodd" clip-rule="evenodd" d="M313.389 132.461C328.029 132.841 343.226 129.081 356.342 135.136C370.061 141.468 383.109 152.325 386.484 166.202C389.782 179.763 376.309 191.578 373.382 205.212C370.682 217.794 377.535 232.011 370.047 242.793C362.36 253.86 346.698 256.395 333.897 262.063C318.513 268.874 303.964 283.127 287.404 279.384C270.919 275.658 260.821 259.005 254.955 244.221C249.93 231.555 260.559 217.874 257.745 204.631C254.674 190.174 235.928 179.896 238.189 165.31C240.442 150.77 254.552 139.119 268.866 132.866C282.573 126.879 298.246 132.068 313.389 132.461Z" fill="url(#paint0_radial_96_3396)" />
    </g>
    <defs>
        <filter id="filter0_f_96_3396" x="-112" y="55" width="276" height="277" filterUnits="userSpaceOnUse" color-interpolation-filters="sRGB">
            <feFlood flood-opacity="0" result="BackgroundImageFix" />
            <feBlend mode="normal" in="SourceGraphic" in2="BackgroundImageFix" result="shape" />
            <feGaussianBlur stdDeviation="50" result="effect1_foregroundBlur_96_3396" />
        </filter>
        <filter id="filter1_f_96_3396" x="41" y="0" width="308" height="309" filterUnits="userSpaceOnUse" color-interpolation-filters="sRGB">
            <feFlood flood-opacity="0" result="BackgroundImageFix" />
            <feBlend mode="normal" in="SourceGraphic" in2="BackgroundImageFix" result="shape" />
            <feGaussianBlur stdDeviation="50" result="effect1_foregroundBlur_96_3396" />
        </filter>
        <filter id="filter2_f_96_3396" x="138" y="30" width="349" height="350" filterUnits="userSpaceOnUse" color-interpolation-filters="sRGB">
            <feFlood flood-opacity="0" result="BackgroundImageFix" />
            <feBlend mode="normal" in="SourceGraphic" in2="BackgroundImageFix" result="shape" />
            <feGaussianBlur stdDeviation="50" result="effect1_foregroundBlur_96_3396" />
        </filter>
        <radialGradient id="paint0_radial_96_3396" cx="0" cy="0" r="1" gradientUnits="userSpaceOnUse" gradientTransform="translate(312.5 205) rotate(90) scale(75 74.5)">
            <stop stop-color="#312782" />
            <stop offset="1" stop-color="#5FB1DF" />
        </radialGradient>
    </defs>
</svg>