<svg width="18" height="18" viewBox="0 0 18 18" fill="none" xmlns="http://www.w3.org/2000/svg">
<path opacity="0.4" d="M12.255 1.49976H5.7525C3.21 1.49976 1.5 3.28476 1.5 5.93976V12.0673C1.5 14.7148 3.21 16.4998 5.7525 16.4998H12.255C14.7975 16.4998 16.5 14.7148 16.5 12.0673V5.93976C16.5 3.28476 14.7975 1.49976 12.255 1.49976Z" fill="#EB5757"/>
<path fill-rule="evenodd" clip-rule="evenodd" d="M8.34359 6.14209C8.34359 6.50359 8.63684 6.79834 8.99609 6.79834C9.36584 6.79834 9.65984 6.50359 9.65984 6.14209C9.65984 5.78059 9.36584 5.48584 9.00359 5.48584C8.63984 5.48584 8.34359 5.78059 8.34359 6.14209ZM9.65234 8.52169C9.65234 8.16019 9.35759 7.86544 8.99609 7.86544C8.63459 7.86544 8.33984 8.16019 8.33984 8.52169V11.8367C8.33984 12.1982 8.63459 12.4929 8.99609 12.4929C9.35759 12.4929 9.65234 12.1982 9.65234 11.8367V8.52169Z" fill="#EB5757"/>
</svg>
