<svg width="160" height="172" viewBox="0 0 160 172" fill="none" xmlns="http://www.w3.org/2000/svg">
<defs>
<clipPath id="clip0_109_1151">
<rect width="279" height="265" fill="white" transform="translate(-110.338) rotate(14.5694)"/>
</clipPath>
</defs>
<g opacity="0.1" clip-path="url(#clip0_109_1151)">
<path d="M52.1003 216.242C16.1344 206.894 -5.51147 169.989 3.8488 133.975C13.2091 97.9616 50.0858 76.2669 86.0516 85.6148C122.017 94.9627 143.658 131.867 134.298 167.88C124.937 203.894 88.0661 225.59 52.1003 216.242ZM82.5241 99.1869C54.0325 91.7817 24.8124 108.967 17.3973 137.497C9.98229 166.026 27.1307 195.263 55.6278 202.67C84.1249 210.076 113.334 192.888 120.749 164.359C128.164 135.829 111.016 106.592 82.5241 99.1869Z" fill="white"/>
<path d="M-36.2248 247.538C-37.7587 247.139 -39.1227 246.224 -40.0805 244.938L-112.598 147.212C-114.904 144.102 -114.258 139.715 -111.151 137.404C-108.043 135.093 -103.661 135.737 -101.355 138.847L-33.3407 230.507L64.4873 145.627C67.4096 143.09 71.8297 143.404 74.3612 146.333C76.8941 149.258 76.5775 153.683 73.6552 156.221L-29.8779 246.051C-31.3524 247.326 -33.2916 247.937 -35.2257 247.726C-35.5623 247.692 -35.9028 247.628 -36.2263 247.544L-36.2248 247.538Z" fill="white"/>
<path d="M25.2765 69.7469C34.1885 72.0633 43.2934 66.7068 45.6128 57.783C47.9322 48.8592 42.5878 39.7472 33.6757 37.4309C24.7637 35.1146 15.6588 40.471 13.3394 49.3948C11.02 58.3187 16.3644 67.4306 25.2765 69.7469Z" fill="white"/>
<path d="M-19.2763 108.58C-10.3642 110.897 -1.25938 105.54 1.06002 96.6163C3.37942 87.6924 -1.96497 78.5805 -10.877 76.2642C-19.789 73.9478 -28.8939 79.3043 -31.2133 88.2281C-33.5327 97.1519 -28.1883 106.264 -19.2763 108.58Z" fill="white"/>
<path d="M26.2177 49.8342L-18.3293 88.6758L-11.8251 96.154L32.7219 57.3125L26.2177 49.8342Z" fill="white"/>
</g>

</svg>
