<svg width="196" height="165" viewBox="0 0 196 165" fill="none" xmlns="http://www.w3.org/2000/svg">
<defs>
<clipPath id="clip0_109_1140">
<rect width="279" height="265" fill="white" transform="translate(68.5869 -164) rotate(15)"/>
</clipPath>
</defs>
<g opacity="0.1" clip-path="url(#clip0_109_1140)">
<path d="M229.396 53.4561C193.501 43.8381 172.133 6.77118 181.764 -29.1709C191.395 -65.113 228.433 -86.53 264.328 -76.9121C300.222 -67.2941 321.585 -30.2286 311.954 5.71344C302.324 41.6555 265.29 63.074 229.396 53.4561ZM260.698 -63.3669C232.263 -70.986 202.915 -54.0205 195.286 -25.5478C187.656 2.92495 204.585 32.2902 233.025 39.9109C261.466 47.5315 290.803 30.5631 298.432 2.09032C306.062 -26.3824 289.134 -55.7477 260.698 -63.3669Z" fill="white"/>
<path d="M129.433 126.652C102.267 119.373 86.0965 91.3215 93.3867 64.1141C100.677 36.9067 128.707 20.6991 155.872 27.9781C183.038 35.2572 199.209 63.3083 191.919 90.5157C184.628 117.723 156.599 133.931 129.433 126.652ZM152.242 41.5289C132.53 36.2471 112.196 48.0048 106.907 67.7428C101.618 87.4809 113.349 107.83 133.061 113.112C152.773 118.394 173.107 106.636 178.395 86.8981C183.684 67.1601 171.953 46.8107 152.242 41.5289Z" fill="white"/>
<path d="M60.707 17.0027C39.8093 11.4032 27.3697 -10.1757 32.9767 -31.101C38.5836 -52.0264 60.146 -64.4944 81.0436 -58.8949C101.941 -53.2954 114.381 -31.7166 108.774 -10.7912C103.167 10.1341 81.6046 22.6022 60.707 17.0027ZM77.4142 -45.3497C63.976 -48.9505 50.1095 -40.9324 46.5039 -27.4764C42.8984 -14.0204 50.8982 -0.143253 64.3364 3.4575C77.7746 7.05826 91.6411 -0.959846 95.2467 -14.4158C98.8522 -27.8718 90.8524 -41.749 77.4142 -45.3497Z" fill="white"/>
<path d="M140.838 84.0876C139.307 83.6775 137.95 82.7522 137.002 81.4587L65.2206 -16.8098C62.9379 -19.9366 63.617 -24.3191 66.7418 -26.6064C69.8665 -28.8937 74.2435 -28.2168 76.5261 -25.0899L143.85 67.0792L242.313 -17.0632C245.255 -19.5789 249.672 -19.2316 252.181 -16.283C254.692 -13.3399 254.343 -8.91707 251.401 -6.40137L147.196 82.6487C145.712 83.912 143.768 84.5084 141.836 84.2833C141.499 84.2469 141.159 84.1797 140.837 84.0932L140.838 84.0876Z" fill="white"/>
</g>

</svg>
