<svg width="250" height="175" viewBox="0 0 250 175" fill="none" xmlns="http://www.w3.org/2000/svg">
<g filter="url(#filter0_d_249_14386)">
<path d="M206.054 91.5231C206.054 107.885 192.844 121.117 176.366 121.117C176.082 121.117 173.668 121.117 155.912 121.117C143.554 121.117 123.809 121.117 92.2752 121.117H77.2184C57.4741 121.543 41.707 105.751 41.707 86.6857C41.707 67.4784 57.6161 51.5434 77.6445 52.5394C94.832 -1.24108 173.525 6.29956 180.202 61.9296C194.974 63.7792 206.054 76.2995 206.054 91.5231Z" fill="url(#paint0_linear_249_14386)"/>
</g>
<path d="M176.367 121.116C192.702 121.116 206.055 107.885 206.055 91.5229C206.055 75.1611 192.702 61.9294 176.367 61.9294C160.032 61.9294 146.68 75.1611 146.68 91.5229C146.68 107.885 160.032 121.116 176.367 121.116Z" fill="url(#paint1_linear_249_14386)"/>
<path d="M127.929 121.401C157.048 121.401 180.77 97.7832 180.77 68.6166C180.77 39.4499 157.048 15.832 127.929 15.832C98.8095 15.832 75.0879 39.4499 75.0879 68.6166C75.0879 97.7832 98.6674 121.401 127.929 121.401Z" fill="url(#paint2_linear_249_14386)"/>
<path d="M108.385 82.1594C110.622 82.1594 112.515 80.2639 112.515 78.0234C112.515 75.7831 110.622 73.8875 108.385 73.8875C106.148 73.8875 104.256 75.7831 104.256 78.0234C104.256 80.2639 106.148 82.1594 108.385 82.1594Z" fill="#989FB0"/>
<path d="M140.043 82.1594C142.28 82.1594 144.172 80.2639 144.172 78.0234C144.172 75.7831 142.28 73.8875 140.043 73.8875C137.807 73.8875 135.914 75.7831 135.914 78.0234C135.914 80.4362 137.807 82.1594 140.043 82.1594Z" fill="#989FB0"/>
<path d="M108.224 64.3398L99.1406 69.2524L100.367 71.5268L109.45 66.6143L108.224 64.3398Z" fill="#989FB0"/>
<path d="M139.482 64.2744L138.256 66.5491L147.341 71.4607L148.567 69.1859L139.482 64.2744Z" fill="#989FB0"/>
<path d="M124.214 91.8102C126.875 91.8102 129.032 90.1898 129.032 88.1911C129.032 86.1924 126.875 84.572 124.214 84.572C121.553 84.572 119.396 86.1924 119.396 88.1911C119.396 90.1898 121.553 91.8102 124.214 91.8102Z" fill="#989FB0"/>
<path d="M25.3064 25.728C25.3064 25.728 5.45057 30.7776 11.4675 34.8172C17.4844 38.6548 31.7245 45.3203 45.1624 40.8766C58.6002 36.433 45.1624 30.1716 45.363 30.1716C45.5634 30.1716 25.3064 25.728 25.3064 25.728Z" fill="#CED7E2"/>
<path d="M1.03906 24.1122C8.25938 26.334 30.5221 22.6984 44.7621 13.4072C55.9937 27.344 60.2056 30.9796 64.2168 31.3835C57.9994 37.645 37.3413 47.744 25.7085 34.6153C12.0701 43.3004 1.03906 24.1122 1.03906 24.1122Z" fill="#E9EDF9"/>
<path d="M185.797 74.6149C193.418 75.0188 214.075 65.7277 225.307 53.2048C239.749 63.9099 244.561 66.3337 248.774 65.7277C244.161 73.403 230.121 90.1674 210.266 91.3793C195.824 82.8961 185.797 74.6149 185.797 74.6149Z" fill="#E9EDF9"/>
<path d="M124.958 169.359C123.45 161.864 109.32 144.139 94.4141 136.363C101.168 119.688 102.312 114.415 100.677 110.48C109.248 113.043 128.954 122.487 135.072 141.446C130.467 157.567 124.958 169.359 124.958 169.359Z" fill="white"/>
<defs>
<filter id="filter0_d_249_14386" x="26.707" y="6.96069" width="194.348" height="135.164" filterUnits="userSpaceOnUse" color-interpolation-filters="sRGB">
<feFlood flood-opacity="0" result="BackgroundImageFix"/>
<feColorMatrix in="SourceAlpha" type="matrix" values="0 0 0 0 0 0 0 0 0 0 0 0 0 0 0 0 0 0 127 0" result="hardAlpha"/>
<feOffset dy="6"/>
<feGaussianBlur stdDeviation="7.5"/>
<feColorMatrix type="matrix" values="0 0 0 0 0.397708 0 0 0 0 0.47749 0 0 0 0 0.575 0 0 0 0.14 0"/>
<feBlend mode="normal" in2="BackgroundImageFix" result="effect1_dropShadow_249_14386"/>
<feBlend mode="normal" in="SourceGraphic" in2="effect1_dropShadow_249_14386" result="shape"/>
</filter>
<linearGradient id="paint0_linear_249_14386" x1="123.88" y1="59.4187" x2="123.827" y2="122.259" gradientUnits="userSpaceOnUse">
<stop stop-color="white"/>
<stop offset="0.9964" stop-color="#ECF0F5"/>
</linearGradient>
<linearGradient id="paint1_linear_249_14386" x1="143.521" y1="55.558" x2="169.884" y2="84.3458" gradientUnits="userSpaceOnUse">
<stop stop-color="#BCCBE1"/>
<stop offset="0.9942" stop-color="white" stop-opacity="0"/>
</linearGradient>
<linearGradient id="paint2_linear_249_14386" x1="70.1399" y1="44.3952" x2="111.637" y2="60.6078" gradientUnits="userSpaceOnUse">
<stop stop-color="#E2E8F0"/>
<stop offset="0.9942" stop-color="white" stop-opacity="0"/>
</linearGradient>
</defs>
</svg>
