<svg width="251" height="198" viewBox="0 0 251 198" fill="none" xmlns="http://www.w3.org/2000/svg">
<defs>
<linearGradient id="paint0_linear_539_12666" x1="258.335" y1="-1.57095" x2="52.4147" y2="-1.57095" gradientUnits="userSpaceOnUse">
<stop stop-color="#9288E2"/>
<stop offset="1" stop-color="white"/>
</linearGradient>
<linearGradient id="paint1_linear_539_12666" x1="103.071" y1="230.31" x2="334.861" y2="230.31" gradientUnits="userSpaceOnUse">
<stop stop-color="#9288E2"/>
<stop offset="1" stop-color="white"/>
</linearGradient>
<linearGradient id="paint2_linear_539_12666" x1="74.9038" y1="86.0665" x2="185.438" y2="86.0665" gradientUnits="userSpaceOnUse">
<stop stop-color="#393277"/>
<stop offset="0.9999" stop-color="#9288E2"/>
<stop offset="1" stop-color="#20B7AF"/>
</linearGradient>
<linearGradient id="paint3_linear_539_12666" x1="74.9009" y1="94.7307" x2="185.435" y2="94.7307" gradientUnits="userSpaceOnUse">
<stop stop-color="#393277"/>
<stop offset="1" stop-color="#9288E2"/>
</linearGradient>
<linearGradient id="paint4_linear_539_12666" x1="-31.1293" y1="308.257" x2="184.242" y2="308.257" gradientUnits="userSpaceOnUse">
<stop stop-color="#9288E2"/>
<stop offset="1" stop-color="white"/>
</linearGradient>
<linearGradient id="paint5_linear_539_12666" x1="66.5374" y1="320.992" x2="256.728" y2="320.992" gradientUnits="userSpaceOnUse">
<stop stop-color="#9288E2"/>
<stop offset="1" stop-color="white"/>
</linearGradient>
<linearGradient id="paint6_linear_539_12666" x1="230.466" y1="-18.1742" x2="127.258" y2="-18.1742" gradientUnits="userSpaceOnUse">
<stop stop-color="#393277"/>
<stop offset="1" stop-color="#9288E2"/>
</linearGradient>
<linearGradient id="paint7_linear_539_12666" x1="259.996" y1="49.3545" x2="259.79" y2="15.5915" gradientUnits="userSpaceOnUse">
<stop stop-color="#9288E2"/>
<stop offset="1" stop-color="white"/>
</linearGradient>
<linearGradient id="paint8_linear_539_12666" x1="97.4136" y1="31.806" x2="209.705" y2="31.806" gradientUnits="userSpaceOnUse">
<stop stop-color="#393277"/>
<stop offset="1" stop-color="#9288E2"/>
</linearGradient>
<linearGradient id="paint9_linear_539_12666" x1="97.411" y1="40.2938" x2="209.702" y2="40.2938" gradientUnits="userSpaceOnUse">
<stop stop-color="#393277"/>
<stop offset="1" stop-color="#9288E2"/>
</linearGradient>
<linearGradient id="paint10_linear_539_12666" x1="226.497" y1="-4.49078" x2="146.924" y2="-4.49078" gradientUnits="userSpaceOnUse">
<stop stop-color="#9288E2"/>
<stop offset="1" stop-color="white"/>
</linearGradient>
<linearGradient id="paint11_linear_539_12666" x1="183.229" y1="119.403" x2="205.554" y2="119.403" gradientUnits="userSpaceOnUse">
<stop stop-color="#393277"/>
<stop offset="1" stop-color="#9288E2"/>
</linearGradient>
<linearGradient id="paint12_linear_539_12666" x1="183.239" y1="138.483" x2="205.563" y2="138.483" gradientUnits="userSpaceOnUse">
<stop stop-color="#393277"/>
<stop offset="1" stop-color="#9288E2"/>
</linearGradient>
<linearGradient id="paint13_linear_539_12666" x1="343.052" y1="-32.2779" x2="-52.2494" y2="-32.2779" gradientUnits="userSpaceOnUse">
<stop stop-color="#9288E2"/>
<stop offset="1" stop-color="white"/>
</linearGradient>
<linearGradient id="paint14_linear_539_12666" x1="90.7172" y1="28.7147" x2="161.641" y2="28.7147" gradientUnits="userSpaceOnUse">
<stop stop-color="#9288E2"/>
<stop offset="1" stop-color="white"/>
</linearGradient>
<linearGradient id="paint15_linear_539_12666" x1="38.771" y1="216.182" x2="97.0161" y2="203.191" gradientUnits="userSpaceOnUse">
<stop stop-color="#393277"/>
<stop offset="1" stop-color="#9288E2"/>
</linearGradient>
<linearGradient id="paint16_linear_539_12666" x1="98.4227" y1="168.234" x2="95.904" y2="5.07881" gradientUnits="userSpaceOnUse">
<stop stop-color="#1B1D31"/>
<stop offset="1" stop-color="#594EAC"/>
</linearGradient>
<linearGradient id="paint17_linear_539_12666" x1="36.2336" y1="30.3838" x2="36.2336" y2="172.187" gradientUnits="userSpaceOnUse">
<stop stop-color="#FFBB00"/>
<stop offset="1" stop-color="#FFFF95"/>
</linearGradient>
<linearGradient id="paint18_linear_539_12666" x1="43.3933" y1="26.881" x2="-4.43306" y2="26.881" gradientUnits="userSpaceOnUse">
<stop stop-color="#393277"/>
<stop offset="1" stop-color="#9288E2"/>
</linearGradient>
<linearGradient id="paint19_linear_539_12666" x1="108.851" y1="-0.337445" x2="-7.95365" y2="-0.337445" gradientUnits="userSpaceOnUse">
<stop stop-color="#9288E2"/>
<stop offset="1" stop-color="white"/>
</linearGradient>
<linearGradient id="paint20_linear_539_12666" x1="0.605603" y1="33.4052" x2="3.26684" y2="66.5339" gradientUnits="userSpaceOnUse">
<stop stop-color="#1B1D31"/>
<stop offset="1" stop-color="#594EAC"/>
</linearGradient>
<linearGradient id="paint21_linear_539_12666" x1="112.637" y1="29.3557" x2="54.6626" y2="94.2933" gradientUnits="userSpaceOnUse">
<stop stop-color="#FFDDBB"/>
<stop offset="1" stop-color="#FF786E"/>
</linearGradient>
<linearGradient id="paint22_linear_539_12666" x1="95.6056" y1="83.7631" x2="71.8779" y2="101.915" gradientUnits="userSpaceOnUse">
<stop stop-color="#FFDDBB"/>
<stop offset="1" stop-color="#FF786E"/>
</linearGradient>
<linearGradient id="paint23_linear_539_12666" x1="137.14" y1="230.135" x2="137.14" y2="93.0445" gradientUnits="userSpaceOnUse">
<stop stop-color="#9288E2"/>
<stop offset="1" stop-color="white"/>
</linearGradient>
<linearGradient id="paint24_linear_539_12666" x1="121.689" y1="230.135" x2="121.689" y2="93.0443" gradientUnits="userSpaceOnUse">
<stop stop-color="#9288E2"/>
<stop offset="1" stop-color="white"/>
</linearGradient>
<linearGradient id="paint25_linear_539_12666" x1="76.057" y1="158.738" x2="66.1573" y2="157.811" gradientUnits="userSpaceOnUse">
<stop stop-color="#9288E2"/>
<stop offset="1" stop-color="white"/>
</linearGradient>
<linearGradient id="paint26_linear_539_12666" x1="76.2162" y1="95.7531" x2="82.3112" y2="79.8638" gradientUnits="userSpaceOnUse">
<stop stop-color="#FFDDBB"/>
<stop offset="1" stop-color="#FF786E"/>
</linearGradient>
<linearGradient id="paint27_linear_539_12666" x1="62.2693" y1="121.368" x2="126.295" y2="121.368" gradientUnits="userSpaceOnUse">
<stop stop-color="#393277"/>
<stop offset="1" stop-color="#9288E2"/>
</linearGradient>
<linearGradient id="paint28_linear_539_12666" x1="62.2728" y1="137.175" x2="126.299" y2="137.175" gradientUnits="userSpaceOnUse">
<stop stop-color="#393277"/>
<stop offset="1" stop-color="#9288E2"/>
</linearGradient>
<linearGradient id="paint29_linear_539_12666" x1="58.3742" y1="163.217" x2="133.06" y2="163.217" gradientUnits="userSpaceOnUse">
<stop stop-color="#9288E2"/>
<stop offset="1" stop-color="white"/>
</linearGradient>
<linearGradient id="paint30_linear_539_12666" x1="97.8082" y1="59.2162" x2="86.3834" y2="59.0853" gradientUnits="userSpaceOnUse">
<stop stop-color="#FFDDBB"/>
<stop offset="1" stop-color="#FF786E"/>
</linearGradient>
<linearGradient id="paint31_linear_539_12666" x1="101.298" y1="94.9114" x2="101.298" y2="36.1094" gradientUnits="userSpaceOnUse">
<stop stop-color="#FFDDBB"/>
<stop offset="1" stop-color="#FF786E"/>
</linearGradient>
<linearGradient id="paint32_linear_539_12666" x1="58.52" y1="72.2422" x2="92.2848" y2="72.2422" gradientUnits="userSpaceOnUse">
<stop stop-color="#1B1D31"/>
<stop offset="1" stop-color="#594EAC"/>
</linearGradient>
<linearGradient id="paint33_linear_539_12666" x1="101.74" y1="41.7178" x2="59.2661" y2="41.7178" gradientUnits="userSpaceOnUse">
<stop stop-color="#FFBB00"/>
<stop offset="1" stop-color="#FFFF95"/>
</linearGradient>
<linearGradient id="paint34_linear_539_12666" x1="92.5129" y1="54.7803" x2="70.8594" y2="54.7803" gradientUnits="userSpaceOnUse">
<stop stop-color="#393277"/>
<stop offset="1" stop-color="#9288E2"/>
</linearGradient>
<linearGradient id="paint35_linear_539_12666" x1="94.5087" y1="55.0872" x2="68.3307" y2="55.0872" gradientUnits="userSpaceOnUse">
<stop stop-color="#393277"/>
<stop offset="1" stop-color="#9288E2"/>
</linearGradient>
<linearGradient id="paint36_linear_539_12666" x1="62.9343" y1="57.7173" x2="63.8872" y2="76.4677" gradientUnits="userSpaceOnUse">
<stop stop-color="#FFDDBB"/>
<stop offset="1" stop-color="#FF786E"/>
</linearGradient>
<linearGradient id="paint37_linear_539_12666" x1="75.8351" y1="57.0619" x2="76.788" y2="75.8123" gradientUnits="userSpaceOnUse">
<stop stop-color="#FFDDBB"/>
<stop offset="1" stop-color="#FF786E"/>
</linearGradient>
<linearGradient id="paint38_linear_539_12666" x1="148.241" y1="149.177" x2="131.316" y2="172.471" gradientUnits="userSpaceOnUse">
<stop stop-color="#FFDDBB"/>
<stop offset="1" stop-color="#FF786E"/>
</linearGradient>
<linearGradient id="paint39_linear_539_12666" x1="194.843" y1="90.3197" x2="105.175" y2="90.3197" gradientUnits="userSpaceOnUse">
<stop stop-color="#FFBB00"/>
<stop offset="1" stop-color="#FFFF95"/>
</linearGradient>
<linearGradient id="paint40_linear_539_12666" x1="149.642" y1="167.177" x2="145.417" y2="179.548" gradientUnits="userSpaceOnUse">
<stop stop-color="#393277"/>
<stop offset="1" stop-color="#9288E2"/>
</linearGradient>
<linearGradient id="paint41_linear_539_12666" x1="154.474" y1="169.969" x2="151.871" y2="166.546" gradientUnits="userSpaceOnUse">
<stop stop-color="#393277"/>
<stop offset="1" stop-color="#9288E2"/>
</linearGradient>
<linearGradient id="paint42_linear_539_12666" x1="197.151" y1="30.4939" x2="101.76" y2="30.4939" gradientUnits="userSpaceOnUse">
<stop stop-color="#FFBB00"/>
<stop offset="1" stop-color="#FFFF95"/>
</linearGradient>
<linearGradient id="paint43_linear_539_12666" x1="184.572" y1="147.209" x2="228.727" y2="104.642" gradientUnits="userSpaceOnUse">
<stop stop-color="#FFBB00"/>
<stop offset="1" stop-color="#FFFF95"/>
</linearGradient>
<linearGradient id="paint44_linear_539_12666" x1="206.224" y1="104.994" x2="207.24" y2="85.3004" gradientUnits="userSpaceOnUse">
<stop stop-color="#FFDDBB"/>
<stop offset="1" stop-color="#FF786E"/>
</linearGradient>
<linearGradient id="paint45_linear_539_12666" x1="222.372" y1="207.186" x2="237.826" y2="114.718" gradientUnits="userSpaceOnUse">
<stop stop-color="#1B1D31"/>
<stop offset="1" stop-color="#594EAC"/>
</linearGradient>
<linearGradient id="paint46_linear_539_12666" x1="211.553" y1="118.815" x2="136.222" y2="118.815" gradientUnits="userSpaceOnUse">
<stop stop-color="#1B1D31"/>
<stop offset="1" stop-color="#594EAC"/>
</linearGradient>
<linearGradient id="paint47_linear_539_12666" x1="123.606" y1="385.834" x2="254.606" y2="385.834" gradientUnits="userSpaceOnUse">
<stop stop-color="#FFBB00"/>
<stop offset="1" stop-color="#FFFF95"/>
</linearGradient>
<linearGradient id="paint48_linear_539_12666" x1="145.485" y1="414.836" x2="318.282" y2="414.836" gradientUnits="userSpaceOnUse">
<stop stop-color="#FFBB00"/>
<stop offset="1" stop-color="#FFFF95"/>
</linearGradient>
<linearGradient id="paint49_linear_539_12666" x1="229.233" y1="151.272" x2="291.652" y2="78.8746" gradientUnits="userSpaceOnUse">
<stop stop-color="#FFBB00"/>
<stop offset="1" stop-color="#FFFF95"/>
</linearGradient>
<linearGradient id="paint50_linear_539_12666" x1="230.081" y1="60.5663" x2="204.193" y2="60.5663" gradientUnits="userSpaceOnUse">
<stop stop-color="#1B1D31"/>
<stop offset="1" stop-color="#594EAC"/>
</linearGradient>
<linearGradient id="paint51_linear_539_12666" x1="212.227" y1="58.2866" x2="203.962" y2="58.9167" gradientUnits="userSpaceOnUse">
<stop stop-color="#FFBB00"/>
<stop offset="1" stop-color="#FFFF95"/>
</linearGradient>
<linearGradient id="paint52_linear_539_12666" x1="222.874" y1="105.905" x2="233.913" y2="40.6915" gradientUnits="userSpaceOnUse">
<stop stop-color="#FFDDBB"/>
<stop offset="1" stop-color="#FF786E"/>
</linearGradient>
<linearGradient id="paint53_linear_539_12666" x1="208.026" y1="54.6768" x2="171.616" y2="54.6768" gradientUnits="userSpaceOnUse">
<stop stop-color="#1B1D31"/>
<stop offset="1" stop-color="#594EAC"/>
</linearGradient>
<linearGradient id="paint54_linear_539_12666" x1="172.912" y1="66.2097" x2="173.463" y2="78.1199" gradientUnits="userSpaceOnUse">
<stop stop-color="#FFDDBB"/>
<stop offset="1" stop-color="#FF786E"/>
</linearGradient>
<linearGradient id="paint55_linear_539_12666" x1="186.145" y1="66.7841" x2="186.696" y2="78.6918" gradientUnits="userSpaceOnUse">
<stop stop-color="#FFDDBB"/>
<stop offset="1" stop-color="#FF786E"/>
</linearGradient>
<linearGradient id="paint56_linear_539_12666" x1="184.412" y1="213.012" x2="229.826" y2="213.012" gradientUnits="userSpaceOnUse">
<stop stop-color="#FFDDBB"/>
<stop offset="1" stop-color="#FF786E"/>
</linearGradient>
<linearGradient id="paint57_linear_539_12666" x1="152.791" y1="389.831" x2="310.953" y2="389.831" gradientUnits="userSpaceOnUse">
<stop stop-color="#FFBB00"/>
<stop offset="1" stop-color="#FFFF95"/>
</linearGradient>
<linearGradient id="paint58_linear_539_12666" x1="68.7918" y1="85.7747" x2="31.03" y2="119.611" gradientUnits="userSpaceOnUse">
<stop stop-color="#FFDDBB"/>
<stop offset="1" stop-color="#FF786E"/>
</linearGradient>
<linearGradient id="paint59_linear_539_12666" x1="167.498" y1="170.442" x2="76.0129" y2="68.3422" gradientUnits="userSpaceOnUse">
<stop stop-color="#9288E2"/>
<stop offset="1" stop-color="white"/>
</linearGradient>
</defs>
<path d="M154.08 1.60015C108.105 8.10092 70.374 32.4958 54.8244 61.8067C39.2147 91.2325 48.4542 161.537 151.866 169.699C207.694 174.108 249.385 166.409 236.36 140.845C215.185 99.2814 248.892 105.124 249.96 64.2399C251.218 16.1786 200.053 -4.89801 154.08 1.60015Z" fill="url(#paint0_linear_539_12666)"/>
<path d="M155.575 1.20861C141.07 3.24723 126.876 7.08591 113.32 12.6359V162.678C124.406 166.072 137.188 168.519 151.873 169.688C207.702 174.14 249.393 166.354 236.368 140.563C215.192 98.6053 248.445 106.72 249.967 63.2348C251.672 14.7245 201.548 -5.3522 155.575 1.20861Z" fill="url(#paint1_linear_539_12666)"/>
<path d="M142.076 62.6812L123.391 65.4304V59.7807L142.076 57.0342V62.6812Z" fill="url(#paint2_linear_539_12666)"/>
<path d="M134.93 71.3438L116.242 74.0929V68.4432L134.93 65.6941V71.3438Z" fill="url(#paint3_linear_539_12666)"/>
<path d="M220.15 23.8203V166.446C217.74 167.154 215.129 167.774 212.318 168.305C196.808 171.257 175.613 171.576 151.858 169.699C149.549 169.516 147.286 169.303 145.07 169.059V34.6915L220.15 23.8203Z" fill="url(#paint4_linear_539_12666)"/>
<path d="M212.335 30.9453V168.305C196.824 171.258 175.63 171.576 151.875 169.699V39.3284L212.335 30.9453Z" fill="url(#paint5_linear_539_12666)"/>
<path d="M154.227 40.798L212.335 32.7386V30.9424L151.875 39.3281V169.699L154.225 169.879L154.227 40.798Z" fill="url(#paint6_linear_539_12666)"/>
<path d="M140.891 29.5042L220.156 17.1396V23.8206L145.081 34.6917L140.891 29.5042Z" fill="url(#paint7_linear_539_12666)"/>
<path d="M177.075 9.93678L155.422 13.1846V7.53749L177.075 4.28711V9.93678Z" fill="url(#paint8_linear_539_12666)"/>
<path d="M166.724 18.4246L145.07 21.6723V16.0227L166.724 12.7749V18.4246Z" fill="url(#paint9_linear_539_12666)"/>
<path d="M200.972 127.436L205.512 127.835C205.872 127.867 206.228 127.746 206.494 127.501C206.761 127.257 206.912 126.912 206.911 126.551V107.406C206.911 107.045 206.76 106.701 206.493 106.457C206.227 106.214 205.871 106.093 205.512 106.124L200.972 106.524C200.307 106.583 199.797 107.14 199.797 107.808V126.151C199.804 126.816 200.31 127.369 200.972 127.436Z" fill="url(#paint10_linear_539_12666)"/>
<path d="M204.154 114.147C204.154 113.041 203.258 112.145 202.152 112.145H196.677C195.48 112.145 194.332 112.621 193.487 113.468L191.372 115.583C191.159 115.795 191.039 116.083 191.039 116.383C191.039 116.684 191.159 116.972 191.372 117.184C191.584 117.397 191.872 117.517 192.172 117.517C192.473 117.517 192.761 117.397 192.972 117.184L193.523 116.633C193.834 116.324 194.253 116.151 194.69 116.15H202.16C203.263 116.147 204.156 115.251 204.154 114.147Z" fill="url(#paint11_linear_539_12666)"/>
<path d="M204.519 120.948C204.523 120.377 204.113 119.886 203.551 119.788C202.988 119.69 202.437 120.012 202.247 120.551C202.056 121.09 202.283 121.687 202.783 121.963V122.715C202.769 122.927 202.873 123.13 203.055 123.24C203.237 123.351 203.465 123.351 203.646 123.24C203.828 123.13 203.933 122.927 203.919 122.715V121.963C204.289 121.759 204.518 121.37 204.519 120.948Z" fill="url(#paint12_linear_539_12666)"/>
<path d="M79.98 159.42C64.5191 156.726 52.8282 156.227 43.1971 128.731C33.5661 101.234 10.0954 118.995 8.84484 144.064C7.30972 174.826 30.5794 204.704 73.5367 195.757C103.505 189.525 99.5188 162.827 79.98 159.42Z" fill="url(#paint13_linear_539_12666)"/>
<path d="M140.891 29.5042L220.156 17.1397V14.4741L140.891 26.8752V29.5042Z" fill="url(#paint14_linear_539_12666)"/>
<path d="M33.5182 6.99414H39.2018V178.116H33.5182C26.6909 178.116 21.1562 172.581 21.1562 165.754V19.356C21.1562 16.0775 22.4587 12.9332 24.777 10.6149C27.0953 8.29655 30.2396 6.99414 33.5182 6.99414Z" fill="url(#paint15_linear_539_12666)"/>
<path d="M90.1822 166.869L41.9381 177.818C34.5157 179.502 28.2812 173.902 28.2812 165.258V19.8521C28.2812 11.2027 34.5157 5.60781 41.9381 7.29175L90.1822 18.2412C95.6177 19.4735 99.8968 26.1649 99.8968 33.2217V151.888C99.8968 158.945 95.6177 165.626 90.1822 166.869Z" fill="url(#paint16_linear_539_12666)"/>
<path d="M89.8904 21.9119L86.2354 21.1286V24.6793C86.2354 26.7209 84.9561 28.1281 83.3636 27.8122L50.5229 21.4576C48.5857 21.0816 47.001 18.9252 47.001 16.6408V12.6698L42.3304 11.6621C36.7721 10.4637 32.1484 14.7036 32.1484 21.16V163.95C32.1484 170.409 36.7773 174.654 42.3304 173.448L89.8904 163.201C94.0154 162.31 97.2841 157.256 97.2841 151.888V33.2216C97.2736 27.8539 94.005 22.7995 89.8904 21.9119Z" fill="url(#paint17_linear_539_12666)"/>
<path d="M79.8824 22.8941L54.6442 17.6856C53.861 17.5237 53.2188 16.6413 53.2188 15.6988C53.2188 14.7642 53.8584 14.1454 54.6442 14.3151L79.8954 19.7559C80.5716 19.9021 81.1199 20.7193 81.1199 21.5835C81.1068 22.4476 80.5585 23.0324 79.8824 22.8941Z" fill="white"/>
<path d="M47.4608 32.248L2.87183 26.2432C1.2871 26.0292 0 27.2144 0 28.8879V53.1679C0 54.8414 1.30538 56.2408 2.87183 56.3008L37.3102 57.3738L43.8371 65.3628H45.3749L43.8371 57.5775L47.4687 57.6897C48.5939 57.7263 49.4972 56.6246 49.4972 55.233V35.0415C49.4894 33.65 48.5861 32.3994 47.4608 32.248Z" fill="url(#paint18_linear_539_12666)"/>
<path d="M49.0077 32.3056L4.4187 26.3009C2.83398 26.0868 1.54688 27.2721 1.54688 28.9456V53.2255C1.54688 54.899 2.85225 56.2984 4.4187 56.3584L38.8545 57.4315L45.3814 65.423V57.6377L49.0156 57.7526C50.1382 57.7865 51.0441 56.6848 51.0441 55.2933V35.0887C51.0363 33.7076 50.1303 32.457 49.0077 32.3056Z" fill="url(#paint19_linear_539_12666)"/>
<path fill-rule="evenodd" clip-rule="evenodd" d="M8.24219 40.1271C8.24219 37.0385 10.571 34.7855 13.3932 35.0883C16.1502 35.3755 18.3536 38.028 18.3693 41.0199C18.3693 43.119 15.9178 46.432 14.4532 48.2308C13.8919 48.9149 12.8867 48.8548 12.3254 48.1003C10.8216 46.0848 8.24219 42.3044 8.24219 40.1271ZM11.5639 40.4194C11.5639 41.5185 12.3784 42.4819 13.3914 42.5628V42.5523C14.3861 42.6333 15.2033 41.8292 15.2033 40.7327C15.2033 39.6361 14.3965 38.678 13.3914 38.5918C12.3863 38.5057 11.5639 39.3202 11.5639 40.4194Z" fill="url(#paint20_linear_539_12666)"/>
<path d="M45.9526 43.0669L25.3642 41.2211C24.8661 41.1375 24.5074 40.6972 24.5262 40.1925C24.5072 39.9621 24.5882 39.7347 24.7486 39.5683C24.909 39.4019 25.1333 39.3126 25.3642 39.3231L45.9526 41.3151C46.3902 41.4099 46.6923 41.8109 46.6627 42.2576C46.6627 42.7406 46.3468 43.1035 45.9526 43.0669Z" fill="white"/>
<path d="M37.1436 47.278L25.3639 46.4504C24.8673 46.3774 24.5058 45.9416 24.5258 45.44C24.5081 45.2083 24.589 44.9799 24.7486 44.8109C24.9081 44.6419 25.1315 44.548 25.3639 44.5524L37.1436 45.4635C37.6046 45.5459 37.9317 45.9593 37.9059 46.4269C37.9059 46.9282 37.5639 47.3093 37.1436 47.278Z" fill="white"/>
<path d="M118.141 98.9707C118.141 98.9707 120.634 103.09 118.947 107.641" stroke="white" stroke-linecap="round" stroke-linejoin="round"/>
<path d="M118.914 100.678L122.548 103.242" stroke="white" stroke-linecap="round" stroke-linejoin="round"/>
<path d="M99.0795 120.864C102.865 117.572 109.992 111.048 111.611 105.03C113.397 98.4094 116.517 96.6758 117.665 93.9319C118.814 91.188 119.451 94.2322 118.728 97.0309C117.684 101.098 121.485 92.6527 122.905 91.6528C124.325 90.6528 124.558 91.611 124.312 92.4073C124.067 93.2035 120.785 98.9864 120.785 98.9864C120.785 98.9864 124.811 91.7546 125.505 91.6449C126.2 91.5353 127.028 91.906 126.55 93.1879C126.072 94.4698 123.388 99.2396 123.388 99.2396C123.388 99.2396 126.26 94.2792 126.756 94.0703C127.252 93.8614 128.187 94.3079 127.385 95.8561C126.584 97.4042 125.004 100.746 125.004 100.746C125.004 100.746 127.166 97.198 127.782 96.8116C128.398 96.4252 129.294 96.8116 128.764 98.4538C128.234 100.096 123.31 107.453 121.926 108.946C120.542 110.44 115.934 114.343 113.992 117.149C112.05 119.956 106.256 133.187 102.003 135.662C97.7506 138.137 93.1452 136.017 92.4038 132.472C91.6623 128.926 96.5549 123.071 99.0795 120.864Z" fill="url(#paint21_linear_539_12666)"/>
<path d="M101.488 109.304C101.488 109.304 106.655 129.256 104.133 133.341C101.611 137.427 92.8361 139.829 90.7919 129.856C88.7476 119.883 86.5859 103.712 86.5859 103.712L101.488 109.304Z" fill="url(#paint22_linear_539_12666)"/>
<path d="M87.5686 120.366C87.5686 120.366 82.945 100.151 86.1614 94.6319C89.3779 89.1127 98.6643 90.2588 100.831 100.498C102.998 110.738 104.413 118.476 103.807 119.491C103.202 120.507 88.8296 123.533 87.5686 120.366Z" fill="url(#paint23_linear_539_12666)"/>
<path d="M43.6176 101.537C39.3699 90.88 57.8592 82.2175 73.7744 82.2175C80.2438 82.2175 96.6602 90.29 97.2268 94.0912C97.7933 97.8925 92.4073 123.457 98.6078 142.168C101.467 150.784 101.347 153.567 93.1984 157.154C81.5231 162.3 45.573 162.879 47.3066 152.05C48.4866 144.706 55.1362 130.433 43.6176 101.537Z" fill="url(#paint24_linear_539_12666)"/>
<path d="M74.6641 160.587C75.0348 160.569 75.4055 160.545 75.7762 160.522V82.4133C75.3872 82.348 75.0139 82.2984 74.6641 82.2671V160.587Z" fill="url(#paint25_linear_539_12666)"/>
<path d="M63.7344 84.2801L65.6324 67.4773H79.1587L82.4091 84.2801C82.4091 84.2801 80.4119 88.7184 75.4149 89.1465C70.7834 89.5381 63.7344 84.2801 63.7344 84.2801Z" fill="url(#paint26_linear_539_12666)"/>
<path d="M64.23 79.9097C64.23 79.9097 62.7445 81.215 60.8125 83.9877C61.5331 87.3816 67.9346 95.0024 67.9346 95.0024C67.9346 95.0024 70.5793 90.5641 75.0594 89.1648C75.0594 89.1648 69.7413 88.8854 65.9505 83.6248C64.1386 81.1158 64.23 79.9097 64.23 79.9097Z" fill="url(#paint27_linear_539_12666)"/>
<path d="M75.9453 89.1048C75.9453 89.1048 80.1982 89.1674 84.083 93.543C84.083 93.543 84.6966 88.3946 84.5895 85.2669C83.7941 83.3675 82.7804 81.567 81.5689 79.9019C81.5689 79.9019 83.4643 85.4758 75.9453 89.1048Z" fill="url(#paint28_linear_539_12666)"/>
<path d="M91.0295 116.471L88.1942 118.165C87.5793 118.533 86.8119 118.533 86.197 118.165L83.3722 116.471C82.7835 116.12 82.4226 115.485 82.4219 114.8V107.229C82.4219 106.153 83.2939 105.281 84.3695 105.281H90.0427C91.1183 105.281 91.9903 106.153 91.9903 107.229V114.8C91.9874 115.487 91.6222 116.122 91.0295 116.471Z" fill="url(#paint29_linear_539_12666)"/>
<path d="M86.3376 72.4224C86.3376 72.4224 89.3347 72.1822 89.8699 69.138C90.4052 66.0939 89.4444 64.2768 86.8075 64.8512C84.1707 65.4255 86.3376 72.4224 86.3376 72.4224Z" fill="url(#paint30_linear_539_12666)"/>
<path d="M64.6546 63.739C64.6546 63.739 63.767 61.9663 61.6575 63.2168C58.4437 65.1357 59.4331 71.1405 63.3231 71.3598C63.3231 71.3598 65.1507 77.2418 70.9674 81.9855C78.9093 88.4471 84.5433 81.4425 86.7938 74.2603C89.1435 66.6891 88.2036 59.4548 83.1596 56.4654C77.9642 53.3926 67.6805 51.6303 64.6546 63.739Z" fill="url(#paint31_linear_539_12666)"/>
<path d="M65.5847 67.4436C65.5847 67.4436 65.8457 62.6868 62.7128 62.8043C62.7128 62.8043 62.0993 55.1992 64.449 52.6772C66.7987 50.1552 70.9915 51.9175 70.9915 51.9175C70.9915 51.9175 82.3352 49.5678 86.7344 53.5701C91.1335 57.5724 87.8178 69.6601 87.8178 69.6601C87.8178 69.6601 88.8021 62.7547 85.087 60.0813C81.8157 57.7316 76.5315 58.0449 75.1661 59.9586C73.8007 61.8723 69.2737 59.1075 68.2842 61.1961C67.2947 63.2847 67.2608 68.1825 67.2608 68.1825L65.5847 67.4436Z" fill="url(#paint32_linear_539_12666)"/>
<path d="M61.3359 65.8954C61.3359 65.8954 63.7352 64.3916 63.7352 68.7985" stroke="#382824" stroke-linecap="round" stroke-linejoin="round"/>
<path d="M62.1641 59.8022C62.1641 59.8022 66.2629 56.5335 76.7843 57.3951C87.3056 58.2566 89.2088 62.1858 89.2088 62.1858C89.2088 62.1858 91.4201 50.1033 81.2591 47.2001C71.0981 44.2969 62.8585 47.3829 62.1641 59.8022Z" fill="url(#paint33_linear_539_12666)"/>
<path d="M72.9297 59.494C75.973 57.7887 79.5823 57.4055 82.9158 58.434C88.5054 60.1728 88.9336 63.4545 88.9336 63.4545L90.7324 64.6972C90.7324 64.6972 92.0378 59.0815 86.1375 56.6039C80.2372 54.1263 74.363 57.3819 72.9297 59.494Z" fill="url(#paint34_linear_539_12666)"/>
<path d="M62.1641 59.8022C62.1641 59.8022 69.3489 59.8623 70.7012 59.9171C74.3563 60.0659 76.2125 56.001 82.2773 56.4056C88.3421 56.8103 90.5403 60.1729 90.7179 64.6974C90.7179 64.6974 92.3339 60.8465 87.6267 57.2176C82.5854 53.3197 70.1242 53.5364 62.1641 59.8022Z" fill="url(#paint35_linear_539_12666)"/>
<circle cx="73.0953" cy="72.7225" r="1.66566" fill="url(#paint36_linear_539_12666)"/>
<circle cx="86.0875" cy="73.8634" r="1.66566" fill="url(#paint37_linear_539_12666)"/>
<path d="M80.8051 69.9421C81.1863 71.1979 81.5179 71.8297 81.5596 72.814C81.6145 74.2133 79.5938 73.6155 79.5938 73.6155" stroke="#382824" stroke-linecap="round" stroke-linejoin="round"/>
<path d="M61.5469 67.214C61.5469 67.214 62.9567 66.6161 63.6355 67.475" stroke="#382824" stroke-linecap="round" stroke-linejoin="round"/>
<path d="M78.6945 79.0067C78.6945 79.0067 75.9375 79.0537 75.9375 76.2915" stroke="#382824" stroke-linecap="round" stroke-linejoin="round"/>
<path d="M152.11 159.681C152.11 159.681 150.335 164.762 146.902 167.302C143.469 169.842 143.636 172.077 144.939 172.957C144.816 173.795 144.91 175.474 146.636 175.361C146.636 175.361 146.427 177.045 148.147 177.466C148.356 178.246 149.052 178.797 149.86 178.821C151.332 178.891 155.363 179.604 154.956 178.087C154.549 176.57 151.862 177.043 151.593 175.737C151.324 174.432 153.638 173.074 155.771 175.197C158.105 177.52 159.46 176.009 158.488 174.69C156.551 172.061 158.488 172.218 157.786 169.631C156.935 166.466 159.214 161.733 159.214 161.733L152.11 159.681Z" fill="url(#paint38_linear_539_12666)"/>
<path d="M159.763 143.087C159.763 143.087 163.295 134.519 168.117 134.733C174.205 135.02 175.427 140.902 173.521 145.212C171.879 148.92 162.888 163.258 160.413 167.182C160.007 167.826 159.255 168.163 158.504 168.038C156.434 167.693 152.353 166.539 150.129 162.681C149.807 162.116 149.8 161.425 150.111 160.853L159.763 143.087Z" fill="url(#paint39_linear_539_12666)"/>
<path d="M159.845 178.941L160.229 180.632C160.244 180.694 160.227 180.759 160.185 180.807C160.143 180.854 160.08 180.878 160.017 180.87L158.291 180.695C158.173 180.681 158.061 180.632 157.97 180.554L147.07 170.894L148.765 168.981L159.667 178.64C159.757 178.719 159.819 178.824 159.845 178.941Z" fill="url(#paint40_linear_539_12666)"/>
<ellipse cx="148" cy="170.01" rx="1.27927" ry="1.01819" transform="rotate(-48.62 148 170.01)" fill="url(#paint41_linear_539_12666)"/>
<path d="M175.706 104.096C182.494 101.146 189.421 106.647 185.4 119.544C181.38 132.441 176.907 141.892 173.73 145.192C170.553 148.492 167.258 148.568 164.78 144.646C162.473 140.999 169.605 106.743 175.706 104.096Z" fill="url(#paint42_linear_539_12666)"/>
<path d="M164.891 137.814L165.898 130.655" stroke="white" stroke-linecap="round" stroke-linejoin="round"/>
<path d="M173.733 145.192C175.201 143.67 176.942 140.832 178.788 136.955L174.801 117.531C174.801 117.531 177.433 133.798 173.133 145.745C173.344 145.573 173.544 145.388 173.733 145.192Z" fill="url(#paint43_linear_539_12666)"/>
<path d="M203.937 83.1052C203.937 83.1052 202.671 92.0836 206.702 97.5375C206.702 97.5375 197.34 110.591 189.672 97.5375C189.672 97.5375 191.549 93.5117 191.113 84.6168L203.937 83.1052Z" fill="url(#paint44_linear_539_12666)"/>
<path d="M206.705 97.5374C206.705 97.5374 198.753 107.544 189.675 97.5374C189.675 97.5374 184.279 98.7409 177.423 102.644C170.567 106.547 175.034 111.977 176.702 121.045C178.371 130.112 183.26 152.112 175.783 161.83C169.946 169.401 192.68 171.106 210.715 169.994C223.769 169.189 218.636 161.148 217.078 147.063C215.931 136.686 218.443 120.311 220.597 112.445C222.751 104.579 214.945 101.14 206.705 97.5374Z" fill="url(#paint45_linear_539_12666)"/>
<path d="M205.355 129.879C205.355 129.879 200.217 133.921 193.486 129.879C193.486 129.879 187.32 132.871 182.367 131.096L184.142 137.283L205.355 139.599V129.879Z" fill="url(#paint46_linear_539_12666)"/>
<path d="M190.352 99.9863C190.352 99.9863 197.341 108.39 206.397 99.3701" stroke="white" stroke-linecap="round" stroke-linejoin="round"/>
<path d="M188.34 97.9004C188.34 97.9004 172.542 102.6 173.09 107.847C173.873 115.21 179.333 134.057 177.006 148.191C173.73 168.033 167.258 171.101 167.258 172.189C167.258 173.278 175.205 175.899 180.604 174.589C186.003 173.278 185.452 177.93 187.026 177.722C188.601 177.513 187.316 153.671 184.818 130.657C183.894 122.141 187.05 116.361 187.379 112.186C188.34 99.8872 188.34 97.9004 188.34 97.9004Z" fill="url(#paint47_linear_539_12666)"/>
<path d="M207.657 97.9448C207.657 97.9448 205.182 103.242 201.146 122.559C199.619 129.869 203.096 136.433 203.052 140.49C202.919 153.366 202.984 160.663 203.206 171.437C203.391 180.398 208.205 175.032 214.727 174.965C220.353 174.905 223.899 177.458 225.248 176.009C225.248 176.009 218.251 160.605 218.063 143.855C217.876 127.104 223.457 110.826 222.053 106.688C220.954 103.49 207.657 97.9448 207.657 97.9448Z" fill="url(#paint48_linear_539_12666)"/>
<path d="M218.058 143.862C217.873 127.117 223.452 110.834 222.047 106.696C221.985 106.525 221.902 106.362 221.802 106.21C217.33 110.139 205.714 116.692 209.495 138.521C212.748 157.303 219.233 164.495 222.183 167.722C220.275 161.668 218.16 152.964 218.058 143.862Z" fill="url(#paint49_linear_539_12666)"/>
<path d="M202.125 61.0496C202.125 61.0496 206.563 56.8124 211.043 59.551C214.573 61.6997 217.729 64.5506 224.849 64.5506C235.647 64.5506 234.942 84.2461 221.142 85.8465C207.341 87.4469 202.394 66.4486 202.125 61.0496Z" fill="url(#paint50_linear_539_12666)"/>
<path d="M204.883 59.2823C204.883 59.2823 205.368 59.0734 205.666 58.9846C206.154 58.8384 206.559 58.7549 206.559 58.7549C206.559 58.7549 214.825 62.2089 212.749 70.2918L204.883 59.2823Z" fill="url(#paint51_linear_539_12666)"/>
<path d="M180.232 67.3102C179.598 69.9679 180.971 74.0407 179.624 79.3405C178.334 84.4106 180.485 88.8462 184.488 91.7233C189.077 95.0233 199.693 94.7204 203.457 84.2879C203.457 84.2879 210.877 85.9196 211.057 79.5102C211.29 71.2315 204.139 74.1634 204.139 74.1634C204.139 74.1634 205.747 67.7357 200.967 63.3496C195.492 58.3239 181.877 60.3838 180.232 67.3102Z" fill="url(#paint52_linear_539_12666)"/>
<path d="M202.875 78.0952C202.875 78.0952 187.949 77.949 185.837 66.1275C185.837 66.1275 184.343 70.1376 180.093 70.9182C180.093 70.9182 177.723 63.6499 184.229 61.4438C184.229 61.4438 188.531 53.9457 199.669 56.8123C210.806 59.6789 214.847 69.7773 212.276 78.7557C209.501 88.4442 201.172 88.5147 201.172 88.5147L203.431 84.2879C203.431 84.2879 209.592 85.5567 209.482 79.2726C209.422 75.8369 207.221 74.5106 204.906 75.6176C203.491 76.2911 202.875 78.0952 202.875 78.0952Z" fill="url(#paint53_linear_539_12666)"/>
<path d="M184.938 62.5012C184.938 62.5012 185.397 69.3414 188.922 72.3307" stroke="white" stroke-linecap="round" stroke-linejoin="round"/>
<circle cx="179.554" cy="80.7972" r="1.81969" fill="url(#paint54_linear_539_12666)"/>
<circle cx="192.788" cy="81.3717" r="1.81969" fill="url(#paint55_linear_539_12666)"/>
<path d="M185.154 77.1943C185.154 77.1943 184.677 78.4997 183.685 81.3715C183.134 82.9615 184.345 82.9928 185.395 83.1991" stroke="#382824" stroke-linecap="round" stroke-linejoin="round"/>
<path d="M207.327 78.3145C207.327 78.3145 204.978 77.6906 204.492 81.9905" stroke="#382824" stroke-linecap="round" stroke-linejoin="round"/>
<path d="M204.898 80.1368C204.898 80.1368 206.102 79.4737 206.708 80.5754" stroke="#382824" stroke-linecap="round" stroke-linejoin="round"/>
<path d="M185.242 87.8959C185.242 87.8959 188.923 89.6216 190.357 85.9482" stroke="#382824" stroke-linecap="round" stroke-linejoin="round"/>
<path d="M209.13 170.014C209.13 170.014 207.423 174.523 205.997 176.244C204.572 177.964 203.084 178.693 202.254 181.369C201.423 184.045 200.948 184.415 200.314 184.969C199.679 185.522 202.376 185.89 203.87 183.645C203.87 183.645 204.191 183.183 204.345 183.491C204.499 183.799 201.82 189.629 201.76 190.692C201.7 191.754 202.854 191.997 203.269 191.383C203.684 190.77 206.078 184.969 206.078 184.969C206.078 184.969 203.308 192.167 203.447 192.629C203.585 193.091 204.185 193.459 204.88 192.999C205.574 192.54 208.386 185.708 208.386 185.708C208.386 185.708 206.17 191.522 206.298 192.305C206.425 193.088 207.358 193.276 207.864 192.537C208.37 191.799 210.817 185.846 210.817 185.846C210.817 185.846 209.156 191.245 209.511 191.937C209.866 192.629 210.48 192.72 210.989 191.475C211.498 190.229 214.542 183.12 214.905 181.416C215.268 179.711 214.814 176.716 216.994 172.784L209.13 170.014Z" fill="url(#paint56_linear_539_12666)"/>
<path d="M215.865 176.523C217.059 176.463 218.095 175.678 218.475 174.544C220.713 167.806 228.563 143.949 228.757 140.082C228.981 135.581 225.498 109.891 222.057 106.685C218.616 103.479 210.205 104.464 212.056 116.423C213.907 128.383 215.374 142.098 215.374 142.098L206.215 170.91C205.87 171.992 206.189 173.177 207.032 173.938C208.447 175.215 211.17 176.781 215.865 176.523Z" fill="url(#paint57_linear_539_12666)"/>
<path d="M207.609 166.534L215.376 142.108" stroke="white" stroke-linecap="round" stroke-linejoin="round"/>
<path d="M52.7981 114.402C52.7981 114.402 58.6183 122.291 61.1002 124.841C63.582 127.392 66.8312 129.872 72.429 129.613C79.7373 129.28 88.0681 126.383 90.0513 127.372C92.0345 128.361 95.9308 130.538 96.9722 130.159C97.6202 129.9 98.1556 129.421 98.483 128.805C98.483 128.805 99.7604 129.718 100.402 128.599C101.044 127.481 102.253 128.193 103.121 127.001C103.637 126.3 103.941 125.465 103.994 124.596C103.994 124.596 101.619 125.858 100.874 125.382C100.13 124.907 96.2479 121.956 96.1186 121.346C95.9894 120.737 98.1739 118.053 98.5335 116.487C98.7674 115.457 97.5214 114.309 95.1224 116.283C92.9017 118.108 91.3107 117.217 88.7897 118.887C86.4125 120.463 77.7281 117.402 71.2807 116.533L65.3634 107.515L52.7981 114.402Z" fill="url(#paint58_linear_539_12666)"/>
<path d="M55.9398 120.43C55.9398 120.43 42.9718 104.248 43.4501 97.8842C43.9284 91.5208 52.7984 88.5018 59.2095 96.7756C65.6206 105.05 70.2716 111.402 70.1648 112.574C70.058 113.746 58.4557 122.729 55.9398 120.43Z" fill="url(#paint59_linear_539_12666)"/>
<path d="M66.7997 120.534C66.7997 120.534 67.3283 117.536 71.2971 116.504" stroke="white" stroke-width="0.5"/>
<path d="M141.034 92.8618L144.086 125.332L121.263 127.478L118.211 94.9974L141.034 92.8618Z" fill="white"/>
<path d="M122.703 99.4853L137.436 98.2478" stroke="#382824" stroke-linecap="round" stroke-linejoin="round"/>
<path d="M123.461 106.584L138.193 105.346" stroke="#382824" stroke-linecap="round" stroke-linejoin="round"/>
<path d="M123.945 110.487L138.678 109.25" stroke="#382824" stroke-linecap="round" stroke-linejoin="round"/>
<path d="M126.523 101.423L133.828 100.809" stroke="#382824" stroke-linecap="round" stroke-linejoin="round"/>
</svg>
