<svg width="227" height="350" viewBox="0 0 227 350" fill="none" xmlns="http://www.w3.org/2000/svg">
<defs>
<filter id="filter0_f_30_252" x="0" y="0" width="349" height="350" filterUnits="userSpaceOnUse" color-interpolation-filters="sRGB">
<feFlood flood-opacity="0" result="BackgroundImageFix"/>
<feBlend mode="normal" in="SourceGraphic" in2="BackgroundImageFix" result="shape"/>
<feGaussianBlur stdDeviation="50" result="effect1_foregroundBlur_30_252"/>
</filter>
<radialGradient id="paint0_radial_30_252" cx="0" cy="0" r="1" gradientUnits="userSpaceOnUse" gradientTransform="translate(174.5 175) rotate(90) scale(75 74.5)">
<stop stop-color="#312782"/>
<stop offset="1" stop-color="#5FB1DF"/>
</radialGradient>
</defs>
<g opacity="0.3" filter="url(#filter0_f_30_252)">
<path fill-rule="evenodd" clip-rule="evenodd" d="M175.389 102.461C190.029 102.841 205.226 99.0813 218.342 105.136C232.061 111.468 245.109 122.325 248.484 136.202C251.782 149.763 238.309 161.578 235.382 175.212C232.682 187.794 239.535 202.011 232.047 212.793C224.36 223.86 208.698 226.395 195.897 232.063C180.513 238.874 165.964 253.127 149.404 249.384C132.919 245.658 122.821 229.005 116.955 214.221C111.93 201.555 122.559 187.874 119.745 174.631C116.674 160.174 97.9284 149.896 100.189 135.31C102.442 120.77 116.552 109.119 130.866 102.866C144.573 96.8786 160.246 102.068 175.389 102.461Z" fill="url(#paint0_radial_30_252)"/>
</g>
</svg>
