<svg width="198" height="194" viewBox="0 0 198 194" fill="none" xmlns="http://www.w3.org/2000/svg">
<defs>
<filter id="filter0_f_326_7934" x="0" y="11" width="197.625" height="179" filterUnits="userSpaceOnUse" color-interpolation-filters="sRGB">
<feFlood flood-opacity="0" result="BackgroundImageFix"/>
<feBlend mode="normal" in="SourceGraphic" in2="BackgroundImageFix" result="shape"/>
<feGaussianBlur stdDeviation="7.5" result="effect1_foregroundBlur_326_7934"/>
</filter>
<filter id="filter1_d_326_7934" x="15.8779" y="0.363037" width="148.659" height="193.256" filterUnits="userSpaceOnUse" color-interpolation-filters="sRGB">
<feFlood flood-opacity="0" result="BackgroundImageFix"/>
<feColorMatrix in="SourceAlpha" type="matrix" values="0 0 0 0 0 0 0 0 0 0 0 0 0 0 0 0 0 0 127 0" result="hardAlpha"/>
<feOffset dy="4"/>
<feGaussianBlur stdDeviation="15"/>
<feComposite in2="hardAlpha" operator="out"/>
<feColorMatrix type="matrix" values="0 0 0 0 0 0 0 0 0 0 0 0 0 0 0 0 0 0 0.1 0"/>
<feBlend mode="normal" in2="BackgroundImageFix" result="effect1_dropShadow_326_7934"/>
<feBlend mode="normal" in="SourceGraphic" in2="effect1_dropShadow_326_7934" result="shape"/>
</filter>
<linearGradient id="paint0_linear_326_7934" x1="98.8125" y1="26" x2="98.8125" y2="175" gradientUnits="userSpaceOnUse">
<stop stop-color="#FBFDFE"/>
<stop offset="1" stop-color="#F0F5FA"/>
</linearGradient>
</defs>
<g filter="url(#filter0_f_326_7934)">
<path d="M49.1601 175H148.463C151.192 175.007 153.823 173.975 155.828 172.113C164.193 164.321 170.886 154.89 175.494 144.399C180.101 133.909 182.527 122.581 182.621 111.113C183.05 64.4804 145.37 26.1103 99.0147 26.0002C52.6335 25.8901 15.0001 63.6826 15.0001 110.318C14.9868 121.925 17.3625 133.409 21.9775 144.047C26.5925 154.685 33.3469 164.247 41.8153 172.13C43.8164 173.984 46.4398 175.009 49.1601 175Z" fill="url(#paint0_linear_326_7934)"/>
</g>
<path d="M113.359 174.637H38.5437C37.6347 174.637 36.7347 174.458 35.8949 174.11C35.0551 173.762 34.2921 173.253 33.6494 172.61C33.0066 171.967 32.4968 171.204 32.1489 170.364C31.8011 169.525 31.6221 168.625 31.6221 167.716V48.303C31.6221 46.4672 32.3513 44.7067 33.6494 43.4086C34.9474 42.1106 36.708 41.3813 38.5437 41.3813H89.8794L120.281 71.7831V167.716C120.281 169.551 119.552 171.312 118.254 172.61C116.956 173.908 115.195 174.637 113.359 174.637Z" fill="#E5E9F1"/>
<g filter="url(#filter1_d_326_7934)">
<path d="M127.615 159.619H52.7996C51.8906 159.619 50.9905 159.44 50.1508 159.092C49.311 158.744 48.548 158.234 47.9052 157.592C47.2625 156.949 46.7527 156.186 46.4048 155.346C46.057 154.506 45.8779 153.606 45.8779 152.697V33.2847C45.8779 32.3757 46.057 31.4756 46.4048 30.6359C46.7527 29.7961 47.2625 29.0331 47.9052 28.3903C48.548 27.7476 49.311 27.2378 50.1508 26.8899C50.9905 26.5421 51.8906 26.363 52.7996 26.363H104.135L134.537 56.7648V152.697C134.537 153.606 134.358 154.506 134.01 155.346C133.662 156.186 133.152 156.949 132.51 157.592C131.867 158.234 131.104 158.744 130.264 159.092C129.424 159.44 128.524 159.619 127.615 159.619Z" fill="white"/>
</g>
<path d="M134.537 56.7648H111.057C109.222 56.7648 107.461 56.0355 106.163 54.7375C104.865 53.4394 104.136 51.6789 104.136 49.8431V26.363L134.537 56.7648Z" fill="#5A529B"/>
<path d="M78.26 92.9341C81.3139 92.9341 83.7895 90.4584 83.7895 87.4045C83.7895 84.3507 81.3139 81.875 78.26 81.875C75.2061 81.875 72.7305 84.3507 72.7305 87.4045C72.7305 90.4584 75.2061 92.9341 78.26 92.9341Z" fill="#5A529B"/>
<path d="M101.798 92.9341C104.852 92.9341 107.328 90.4584 107.328 87.4045C107.328 84.3507 104.852 81.875 101.798 81.875C98.7442 81.875 96.2686 84.3507 96.2686 87.4045C96.2686 90.4584 98.7442 92.9341 101.798 92.9341Z" fill="#5A529B"/>
<path d="M107.631 113.63C107.172 113.631 106.718 113.541 106.294 113.365C105.871 113.19 105.486 112.932 105.162 112.607C101.145 108.6 95.7033 106.35 90.0296 106.35C84.3559 106.349 78.9139 108.6 74.8974 112.607C74.5731 112.932 74.1882 113.189 73.7644 113.365C73.3407 113.54 72.8866 113.63 72.428 113.631C71.9693 113.631 71.5152 113.54 71.0914 113.365C70.6677 113.189 70.2827 112.932 69.9584 112.608C69.634 112.283 69.3768 111.898 69.2013 111.475C69.0258 111.051 68.9355 110.597 68.9355 110.138C68.9356 109.679 69.026 109.225 69.2016 108.802C69.3771 108.378 69.6344 107.993 69.9588 107.669C75.2861 102.353 82.5042 99.3684 90.0296 99.3684C97.5549 99.3684 104.773 102.353 110.1 107.668C110.589 108.157 110.921 108.779 111.056 109.457C111.191 110.134 111.122 110.836 110.858 111.474C110.593 112.112 110.146 112.658 109.571 113.042C108.997 113.425 108.322 113.63 107.631 113.63L107.631 113.63Z" fill="#5A529B"/>
<path d="M128.088 125.522L121.671 131.938L145.818 156.086L152.235 149.669L128.088 125.522Z" fill="#D4D9E3"/>
<path d="M54.3014 62.0604C47.2297 69.1321 42.4139 78.1419 40.4628 87.9506C38.5118 97.7592 39.5131 107.926 43.3403 117.166C47.1674 126.405 53.6485 134.302 61.9639 139.859C70.2792 145.415 80.0555 148.38 90.0563 148.38C100.057 148.38 109.833 145.415 118.149 139.859C126.464 134.302 132.945 126.405 136.772 117.166C140.599 107.926 141.601 97.7592 139.65 87.9506C137.699 78.1419 132.883 69.1321 125.811 62.0604C121.116 57.365 115.542 53.6404 109.407 51.0993C103.272 48.5581 96.6966 47.2502 90.0563 47.2502C83.416 47.2502 76.8407 48.5581 70.7059 51.0993C64.571 53.6404 58.9968 57.365 54.3014 62.0604ZM119.216 126.975C113.449 132.743 106.101 136.67 98.1015 138.262C90.102 139.853 81.8103 139.036 74.2749 135.915C66.7396 132.794 60.299 127.508 55.7676 120.726C51.2363 113.945 48.8177 105.972 48.8177 97.8153C48.8177 89.6591 51.2363 81.686 55.7676 74.9044C60.299 68.1227 66.7396 62.8371 74.275 59.7158C81.8104 56.5946 90.1021 55.7779 98.1016 57.3691C106.101 58.9603 113.449 62.8879 119.216 68.6553C126.95 76.389 131.295 86.8782 131.295 97.8154C131.295 108.753 126.95 119.242 119.216 126.975Z" fill="#D4D9E3"/>
<path d="M133.182 137.334L133.182 137.334C129.16 141.356 129.16 147.875 133.182 151.897L148.425 167.14C152.446 171.161 158.966 171.161 162.987 167.14C167.008 163.119 167.008 156.599 162.987 152.578L147.744 137.334C143.723 133.313 137.203 133.313 133.182 137.334Z" fill="#5A529B"/>

</svg>
