<svg width="250" height="230" viewBox="0 0 250 230" fill="none" xmlns="http://www.w3.org/2000/svg">
<defs>
<linearGradient id="paint0_linear_540_13234" x1="-91.3773" y1="-124.684" x2="-88.4062" y2="250.877" gradientUnits="userSpaceOnUse">
<stop stop-color="#9288E2"/>
<stop offset="1" stop-color="white"/>
</linearGradient>
<linearGradient id="paint1_linear_540_13234" x1="47.8363" y1="115.176" x2="50.096" y2="186.172" gradientUnits="userSpaceOnUse">
<stop stop-color="#9288E2"/>
<stop offset="1" stop-color="white"/>
</linearGradient>
<linearGradient id="paint2_linear_540_13234" x1="159.181" y1="7.28811" x2="142.844" y2="216.506" gradientUnits="userSpaceOnUse">
<stop stop-color="#9288E2"/>
<stop offset="1" stop-color="white"/>
</linearGradient>
<linearGradient id="paint3_linear_540_13234" x1="89.9701" y1="-32.548" x2="89.9701" y2="147.659" gradientUnits="userSpaceOnUse">
<stop stop-color="#9288E2"/>
<stop offset="1" stop-color="white"/>
</linearGradient>
<linearGradient id="paint4_linear_540_13234" x1="89.9701" y1="-32.5477" x2="89.9701" y2="147.66" gradientUnits="userSpaceOnUse">
<stop stop-color="#9288E2"/>
<stop offset="1" stop-color="white"/>
</linearGradient>
<linearGradient id="paint5_linear_540_13234" x1="105.991" y1="-32.5476" x2="105.991" y2="147.66" gradientUnits="userSpaceOnUse">
<stop stop-color="#9288E2"/>
<stop offset="1" stop-color="white"/>
</linearGradient>
<linearGradient id="paint6_linear_540_13234" x1="105.991" y1="-32.5477" x2="105.991" y2="147.66" gradientUnits="userSpaceOnUse">
<stop stop-color="#9288E2"/>
<stop offset="1" stop-color="white"/>
</linearGradient>
<linearGradient id="paint7_linear_540_13234" x1="156.198" y1="84.6388" x2="156.198" y2="230.401" gradientUnits="userSpaceOnUse">
<stop stop-color="#FFBB00"/>
<stop offset="1" stop-color="#FFFF95"/>
</linearGradient>
<linearGradient id="paint8_linear_540_13234" x1="260.323" y1="62.7173" x2="176.731" y2="62.7173" gradientUnits="userSpaceOnUse">
<stop stop-color="#FFBB00"/>
<stop offset="1" stop-color="#FFFF95"/>
</linearGradient>
<linearGradient id="paint9_linear_540_13234" x1="162.391" y1="61.872" x2="162.391" y2="9.16629" gradientUnits="userSpaceOnUse">
<stop stop-color="#9288E2"/>
<stop offset="1" stop-color="white"/>
</linearGradient>
<linearGradient id="paint10_linear_540_13234" x1="86.4838" y1="20.27" x2="102.155" y2="215.937" gradientUnits="userSpaceOnUse">
<stop stop-color="#9288E2"/>
<stop offset="1" stop-color="white"/>
</linearGradient>
<linearGradient id="paint11_linear_540_13234" x1="104.303" y1="-72.1468" x2="104.303" y2="152.325" gradientUnits="userSpaceOnUse">
<stop stop-color="#9288E2"/>
<stop offset="1" stop-color="white"/>
</linearGradient>
<linearGradient id="paint12_linear_540_13234" x1="122.753" y1="-72.1468" x2="122.753" y2="152.325" gradientUnits="userSpaceOnUse">
<stop stop-color="#9288E2"/>
<stop offset="1" stop-color="white"/>
</linearGradient>
<linearGradient id="paint13_linear_540_13234" x1="24.9586" y1="95.6281" x2="24.9586" y2="38.04" gradientUnits="userSpaceOnUse">
<stop stop-color="#9288E2"/>
<stop offset="1" stop-color="white"/>
</linearGradient>
<linearGradient id="paint14_linear_540_13234" x1="48.7446" y1="63.4313" x2="48.7446" y2="37.6905" gradientUnits="userSpaceOnUse">
<stop stop-color="#9288E2"/>
<stop offset="1" stop-color="white"/>
</linearGradient>
<linearGradient id="paint15_linear_540_13234" x1="-5.16728" y1="53.3045" x2="-5.16728" y2="89.0384" gradientUnits="userSpaceOnUse">
<stop stop-color="#9288E2"/>
<stop offset="1" stop-color="white"/>
</linearGradient>
<linearGradient id="paint16_linear_540_13234" x1="-17.7224" y1="43.4658" x2="-10.8434" y2="209.033" gradientUnits="userSpaceOnUse">
<stop stop-color="#9288E2"/>
<stop offset="1" stop-color="white"/>
</linearGradient>
<linearGradient id="paint17_linear_540_13234" x1="117.934" y1="111.346" x2="117.934" y2="185.761" gradientUnits="userSpaceOnUse">
<stop stop-color="#9288E2"/>
<stop offset="1" stop-color="white"/>
</linearGradient>
<linearGradient id="paint18_linear_540_13234" x1="-0.582327" y1="-72.1467" x2="-0.582327" y2="152.325" gradientUnits="userSpaceOnUse">
<stop stop-color="#9288E2"/>
<stop offset="1" stop-color="white"/>
</linearGradient>
<linearGradient id="paint19_linear_540_13234" x1="20.461" y1="-72.1467" x2="20.461" y2="152.325" gradientUnits="userSpaceOnUse">
<stop stop-color="#9288E2"/>
<stop offset="1" stop-color="white"/>
</linearGradient>
<linearGradient id="paint20_linear_540_13234" x1="109.578" y1="150.47" x2="66.7519" y2="150.47" gradientUnits="userSpaceOnUse">
<stop stop-color="#1B1D31"/>
<stop offset="1" stop-color="#594EAC"/>
</linearGradient>
<linearGradient id="paint21_linear_540_13234" x1="132.568" y1="164.188" x2="103.6" y2="164.188" gradientUnits="userSpaceOnUse">
<stop stop-color="#1B1D31"/>
<stop offset="1" stop-color="#594EAC"/>
</linearGradient>
<linearGradient id="paint22_linear_540_13234" x1="294.134" y1="79.2079" x2="93.4991" y2="79.2079" gradientUnits="userSpaceOnUse">
<stop stop-color="#393277"/>
<stop offset="1" stop-color="#9288E2"/>
</linearGradient>
<linearGradient id="paint23_linear_540_13234" x1="191.129" y1="140.026" x2="133.889" y2="140.026" gradientUnits="userSpaceOnUse">
<stop stop-color="#1B1D31"/>
<stop offset="1" stop-color="#594EAC"/>
</linearGradient>
<linearGradient id="paint24_linear_540_13234" x1="217.737" y1="155.841" x2="174.805" y2="155.841" gradientUnits="userSpaceOnUse">
<stop stop-color="#1B1D31"/>
<stop offset="1" stop-color="#594EAC"/>
</linearGradient>
<linearGradient id="paint25_linear_540_13234" x1="218.508" y1="143.381" x2="154.719" y2="143.381" gradientUnits="userSpaceOnUse">
<stop stop-color="#9288E2"/>
<stop offset="1" stop-color="white"/>
</linearGradient>
<linearGradient id="paint26_linear_540_13234" x1="548.502" y1="16.6377" x2="166.898" y2="16.6377" gradientUnits="userSpaceOnUse">
<stop stop-color="#393277"/>
<stop offset="1" stop-color="#9288E2"/>
</linearGradient>
<linearGradient id="paint27_linear_540_13234" x1="568.795" y1="132.347" x2="110.769" y2="132.347" gradientUnits="userSpaceOnUse">
<stop stop-color="#9288E2"/>
<stop offset="1" stop-color="white"/>
</linearGradient>
<linearGradient id="paint28_linear_540_13234" x1="217.067" y1="48.0646" x2="105.944" y2="48.0646" gradientUnits="userSpaceOnUse">
<stop stop-color="#1B1D31"/>
<stop offset="1" stop-color="#594EAC"/>
</linearGradient>
<linearGradient id="paint29_linear_540_13234" x1="177.403" y1="158.855" x2="-63.5571" y2="158.855" gradientUnits="userSpaceOnUse">
<stop stop-color="#1B1D31"/>
<stop offset="1" stop-color="#594EAC"/>
</linearGradient>
<linearGradient id="paint30_linear_540_13234" x1="139.343" y1="137.469" x2="19.133" y2="137.469" gradientUnits="userSpaceOnUse">
<stop stop-color="#1B1D31"/>
<stop offset="1" stop-color="#594EAC"/>
</linearGradient>
<linearGradient id="paint31_linear_540_13234" x1="85.0668" y1="155.152" x2="83.5236" y2="125.457" gradientUnits="userSpaceOnUse">
<stop stop-color="white"/>
<stop offset="1" stop-color="#E2E2FF"/>
</linearGradient>
<linearGradient id="paint32_linear_540_13234" x1="95.7607" y1="139.797" x2="94.8758" y2="181.898" gradientUnits="userSpaceOnUse">
<stop stop-color="white"/>
<stop offset="1" stop-color="#E2E2FF"/>
</linearGradient>
<linearGradient id="paint33_linear_540_13234" x1="115.304" y1="190.965" x2="148.789" y2="190.965" gradientUnits="userSpaceOnUse">
<stop stop-color="#FFDDBB"/>
<stop offset="1" stop-color="#FF786E"/>
</linearGradient>
<linearGradient id="paint34_linear_540_13234" x1="172.411" y1="76.3963" x2="67.7199" y2="76.3963" gradientUnits="userSpaceOnUse">
<stop stop-color="#1B1D31"/>
<stop offset="1" stop-color="#594EAC"/>
</linearGradient>
<linearGradient id="paint35_linear_540_13234" x1="135.678" y1="93.1396" x2="152.985" y2="120.038" gradientUnits="userSpaceOnUse">
<stop stop-color="#608BFA"/>
<stop offset="1" stop-color="#3E63C2" stop-opacity="0.01"/>
</linearGradient>
<linearGradient id="paint36_linear_540_13234" x1="81.5457" y1="189.554" x2="81.5457" y2="74.3637" gradientUnits="userSpaceOnUse">
<stop stop-color="#FFBB00"/>
<stop offset="1" stop-color="#FFFF95"/>
</linearGradient>
<linearGradient id="paint37_linear_540_13234" x1="47.1272" y1="220.54" x2="47.1272" y2="148.022" gradientUnits="userSpaceOnUse">
<stop stop-color="#FFBB00"/>
<stop offset="1" stop-color="#FFFF95"/>
</linearGradient>
<linearGradient id="paint38_linear_540_13234" x1="250.631" y1="172.8" x2="103.75" y2="172.8" gradientUnits="userSpaceOnUse">
<stop stop-color="#FFDDBB"/>
<stop offset="1" stop-color="#FF786E"/>
</linearGradient>
<linearGradient id="paint39_linear_540_13234" x1="73.2229" y1="315.719" x2="203.313" y2="315.719" gradientUnits="userSpaceOnUse">
<stop stop-color="#FFDDBB"/>
<stop offset="1" stop-color="#FF786E"/>
</linearGradient>
<linearGradient id="paint40_linear_540_13234" x1="175.349" y1="125.415" x2="201.457" y2="125.415" gradientUnits="userSpaceOnUse">
<stop stop-color="#FFDDBB"/>
<stop offset="1" stop-color="#FF786E"/>
</linearGradient>
<linearGradient id="paint41_linear_540_13234" x1="237.309" y1="226.124" x2="237.309" y2="81.5122" gradientUnits="userSpaceOnUse">
<stop stop-color="#9288E2"/>
<stop offset="1" stop-color="white"/>
</linearGradient>
<linearGradient id="paint42_linear_540_13234" x1="195.871" y1="150.225" x2="188.115" y2="150.225" gradientUnits="userSpaceOnUse">
<stop stop-color="#FFDDBB"/>
<stop offset="1" stop-color="#FF786E"/>
</linearGradient>
<linearGradient id="paint43_linear_540_13234" x1="175.352" y1="179.953" x2="201.46" y2="179.953" gradientUnits="userSpaceOnUse">
<stop stop-color="#FFDDBB"/>
<stop offset="1" stop-color="#FF786E"/>
</linearGradient>
<linearGradient id="paint44_linear_540_13234" x1="284.227" y1="185.071" x2="178.334" y2="185.071" gradientUnits="userSpaceOnUse">
<stop stop-color="#393277"/>
<stop offset="1" stop-color="#9288E2"/>
</linearGradient>
<linearGradient id="paint45_linear_540_13234" x1="197.845" y1="217.061" x2="192.995" y2="238.183" gradientUnits="userSpaceOnUse">
<stop stop-color="#1B1D31"/>
<stop offset="1" stop-color="#594EAC"/>
</linearGradient>
<linearGradient id="paint46_linear_540_13234" x1="187.493" y1="134.003" x2="187.493" y2="231.714" gradientUnits="userSpaceOnUse">
<stop stop-color="#1B1D31"/>
<stop offset="1" stop-color="#594EAC"/>
</linearGradient>
<linearGradient id="paint47_linear_540_13234" x1="183.868" y1="134.003" x2="183.868" y2="231.714" gradientUnits="userSpaceOnUse">
<stop stop-color="#1B1D31"/>
<stop offset="1" stop-color="#594EAC"/>
</linearGradient>
<linearGradient id="paint48_linear_540_13234" x1="279.761" y1="198.89" x2="213.107" y2="198.89" gradientUnits="userSpaceOnUse">
<stop stop-color="#393277"/>
<stop offset="1" stop-color="#9288E2"/>
</linearGradient>
<linearGradient id="paint49_linear_540_13234" x1="221.876" y1="217.37" x2="217.024" y2="238.494" gradientUnits="userSpaceOnUse">
<stop stop-color="#1B1D31"/>
<stop offset="1" stop-color="#594EAC"/>
</linearGradient>
<linearGradient id="paint50_linear_540_13234" x1="209.269" y1="133.012" x2="209.269" y2="230.723" gradientUnits="userSpaceOnUse">
<stop stop-color="#1B1D31"/>
<stop offset="1" stop-color="#594EAC"/>
</linearGradient>
<linearGradient id="paint51_linear_540_13234" x1="201.551" y1="134.003" x2="201.551" y2="231.714" gradientUnits="userSpaceOnUse">
<stop stop-color="#1B1D31"/>
<stop offset="1" stop-color="#594EAC"/>
</linearGradient>
<linearGradient id="paint52_linear_540_13234" x1="268.919" y1="226.124" x2="268.919" y2="81.5121" gradientUnits="userSpaceOnUse">
<stop stop-color="#9288E2"/>
<stop offset="1" stop-color="white"/>
</linearGradient>
<linearGradient id="paint53_linear_540_13234" x1="213.657" y1="147.96" x2="213.657" y2="66.9971" gradientUnits="userSpaceOnUse">
<stop stop-color="#9288E2"/>
<stop offset="1" stop-color="white"/>
</linearGradient>
<linearGradient id="paint54_linear_540_13234" x1="224.323" y1="78.5253" x2="219.118" y2="64.9596" gradientUnits="userSpaceOnUse">
<stop stop-color="#FFDDBB"/>
<stop offset="1" stop-color="#FF786E"/>
</linearGradient>
<linearGradient id="paint55_linear_540_13234" x1="224.202" y1="55.7202" x2="185.775" y2="55.7202" gradientUnits="userSpaceOnUse">
<stop stop-color="#393277"/>
<stop offset="1" stop-color="#9288E2"/>
</linearGradient>
<linearGradient id="paint56_linear_540_13234" x1="224.197" y1="45.1438" x2="185.771" y2="45.1438" gradientUnits="userSpaceOnUse">
<stop stop-color="#393277"/>
<stop offset="1" stop-color="#9288E2"/>
</linearGradient>
<linearGradient id="paint57_linear_540_13234" x1="216.368" y1="126.378" x2="259.192" y2="126.378" gradientUnits="userSpaceOnUse">
<stop stop-color="#9288E2"/>
<stop offset="1" stop-color="white"/>
</linearGradient>
<linearGradient id="paint58_linear_540_13234" x1="193.988" y1="68.5517" x2="203.742" y2="68.4394" gradientUnits="userSpaceOnUse">
<stop stop-color="#FFDDBB"/>
<stop offset="1" stop-color="#FF786E"/>
</linearGradient>
<linearGradient id="paint59_linear_540_13234" x1="234.643" y1="79.6361" x2="234.643" y2="35.868" gradientUnits="userSpaceOnUse">
<stop stop-color="#FFDDBB"/>
<stop offset="1" stop-color="#FF786E"/>
</linearGradient>
<linearGradient id="paint60_linear_540_13234" x1="213.601" y1="59.3275" x2="231.678" y2="59.3275" gradientUnits="userSpaceOnUse">
<stop stop-color="#1B1D31"/>
<stop offset="1" stop-color="#594EAC"/>
</linearGradient>
<linearGradient id="paint61_linear_540_13234" x1="188.143" y1="39.0097" x2="188.509" y2="67.1267" gradientUnits="userSpaceOnUse">
<stop stop-color="#FFBB00"/>
<stop offset="1" stop-color="#FFFF95"/>
</linearGradient>
<linearGradient id="paint62_linear_540_13234" x1="198.327" y1="57.4415" x2="216.812" y2="57.4415" gradientUnits="userSpaceOnUse">
<stop stop-color="#393277"/>
<stop offset="1" stop-color="#9288E2"/>
</linearGradient>
<linearGradient id="paint63_linear_540_13234" x1="196.618" y1="56.248" x2="218.968" y2="56.248" gradientUnits="userSpaceOnUse">
<stop stop-color="#393277"/>
<stop offset="1" stop-color="#9288E2"/>
</linearGradient>
<linearGradient id="paint64_linear_540_13234" x1="210.2" y1="65.9873" x2="215.179" y2="65.9873" gradientUnits="userSpaceOnUse">
<stop stop-color="#FFDDBB"/>
<stop offset="1" stop-color="#FF786E"/>
</linearGradient>
<linearGradient id="paint65_linear_540_13234" x1="192.942" y1="70.4553" x2="204.909" y2="70.4553" gradientUnits="userSpaceOnUse">
<stop stop-color="#FFDDBB"/>
<stop offset="1" stop-color="#FF786E"/>
</linearGradient>
<linearGradient id="paint66_linear_540_13234" x1="199.554" y1="126.014" x2="182.018" y2="111.79" gradientUnits="userSpaceOnUse">
<stop stop-color="#FFC414"/>
<stop offset="1" stop-color="#FFFF95"/>
</linearGradient>
<linearGradient id="paint67_linear_540_13234" x1="157.434" y1="119.777" x2="166.789" y2="138.601" gradientUnits="userSpaceOnUse">
<stop stop-color="#FFC210"/>
<stop offset="1" stop-color="#FFE55B"/>
</linearGradient>
<linearGradient id="paint68_linear_540_13234" x1="165.692" y1="128.17" x2="177.996" y2="121.861" gradientUnits="userSpaceOnUse">
<stop stop-color="#393277"/>
<stop offset="1" stop-color="#9288E2"/>
</linearGradient>
<linearGradient id="paint69_linear_540_13234" x1="150.4" y1="110.317" x2="158.937" y2="130.024" gradientUnits="userSpaceOnUse">
<stop stop-color="#9288E2"/>
<stop offset="1" stop-color="white"/>
</linearGradient>
<linearGradient id="paint70_linear_540_13234" x1="166.019" y1="109.631" x2="168.296" y2="121.066" gradientUnits="userSpaceOnUse">
<stop stop-color="#E7AB00"/>
<stop offset="1" stop-color="#FFD539"/>
</linearGradient>
<linearGradient id="paint71_linear_540_13234" x1="160.759" y1="107.519" x2="165.145" y2="150.222" gradientUnits="userSpaceOnUse">
<stop stop-color="#FFDDBB"/>
<stop offset="1" stop-color="#FF786E"/>
</linearGradient>
<linearGradient id="paint72_linear_540_13234" x1="287.789" y1="209.526" x2="274.046" y2="75.7215" gradientUnits="userSpaceOnUse">
<stop stop-color="#9288E2"/>
<stop offset="1" stop-color="white"/>
</linearGradient>
<linearGradient id="paint73_linear_540_13234" x1="147.766" y1="96.0767" x2="122.238" y2="136.998" gradientUnits="userSpaceOnUse">
<stop stop-color="#244CB4"/>
<stop offset="1" stop-color="#7496EB" stop-opacity="0.01"/>
</linearGradient>
<linearGradient id="paint74_linear_540_13234" x1="147.763" y1="96.0767" x2="122.234" y2="136.998" gradientUnits="userSpaceOnUse">
<stop stop-color="#608BFA"/>
<stop offset="1" stop-color="#3E63C2" stop-opacity="0.01"/>
</linearGradient>
</defs>
<path d="M217.998 182.833C241.578 156.41 249.604 107.532 180.055 77.4266C110.507 47.3214 93.2717 56.638 94.5118 27.9366C95.7519 -0.764902 53.8257 -9.3595 30.2724 11.6412C-4.09795 42.2859 -13.683 105.068 25.2826 163.091C64.2482 221.114 175.02 230.994 217.998 182.833Z" fill="url(#paint0_linear_540_13234)"/>
<path d="M64.9281 123.293H108.167V170.848H60.6094V127.609C60.6094 126.464 61.0645 125.366 61.8745 124.556C62.6845 123.747 63.783 123.293 64.9281 123.293V123.293Z" fill="url(#paint1_linear_540_13234)"/>
<path d="M207.441 171.597H167.023V22.689L183.397 34.1046C198.464 44.6096 207.444 61.8177 207.444 80.1858L207.441 171.597Z" fill="url(#paint2_linear_540_13234)"/>
<rect x="175.672" y="70.6248" width="8.80396" height="8.80396" fill="url(#paint3_linear_540_13234)"/>
<rect x="175.672" y="111.674" width="8.80396" height="8.80396" fill="url(#paint4_linear_540_13234)"/>
<rect x="191.695" y="94.2214" width="8.80396" height="8.80396" fill="url(#paint5_linear_540_13234)"/>
<rect x="191.695" y="135.27" width="8.80396" height="8.80396" fill="url(#paint6_linear_540_13234)"/>
<path d="M219.966 135.098C219.966 145.789 211.299 154.456 200.608 154.456C189.917 154.456 181.25 145.789 181.25 135.098C181.25 124.407 200.608 90.9197 200.608 90.9197C200.608 90.9197 219.966 124.407 219.966 135.098Z" fill="url(#paint7_linear_540_13234)"/>
<path d="M200.611 171.062V103.696" stroke="#382824" stroke-width="2" stroke-linecap="round" stroke-linejoin="round"/>
<path d="M209.593 128.828L200.516 137.906" stroke="#382824" stroke-width="2" stroke-linecap="round" stroke-linejoin="round"/>
<path d="M194.602 117.345L200.523 123.266" stroke="#382824" stroke-width="2" stroke-linecap="round" stroke-linejoin="round"/>
<path d="M243.094 141.709C243.168 147.403 240.173 152.696 235.254 155.565C230.335 158.434 224.253 158.434 219.334 155.565C214.414 152.696 211.419 147.403 211.494 141.709C211.494 132.983 227.292 105.65 227.292 105.65C227.292 105.65 243.094 132.98 243.094 141.709Z" fill="url(#paint8_linear_540_13234)"/>
<path d="M227.29 171.063V116.075" stroke="#382824" stroke-width="2" stroke-linecap="round" stroke-linejoin="round"/>
<path d="M234.63 136.588L227.219 143.999" stroke="#382824" stroke-width="2" stroke-linecap="round" stroke-linejoin="round"/>
<path d="M222.383 127.217L226.978 131.815" stroke="#382824" stroke-width="2" stroke-linecap="round" stroke-linejoin="round"/>
<path d="M109.583 57.0137H140.073V79.3591H107.219V59.3784C107.219 58.0724 108.277 57.0137 109.583 57.0137Z" fill="url(#paint9_linear_540_13234)"/>
<path d="M104.619 72.0902L145.584 54.1279V171.519H102.195V75.8023C102.194 74.1934 103.146 72.7363 104.619 72.0902Z" fill="url(#paint10_linear_540_13234)"/>
<rect x="111.039" y="78.0171" width="7.12638" height="77.6493" rx="3.56" fill="url(#paint11_linear_540_13234)"/>
<rect x="129.492" y="78.0171" width="7.12638" height="77.6493" rx="3.56" fill="url(#paint12_linear_540_13234)"/>
<rect x="21.5625" y="31.4854" width="2.60629" height="35.8332" fill="url(#paint13_linear_540_13234)"/>
<path d="M3.92969 76.8842H42.1491L35.0469 59.738C34.5484 58.5338 33.3734 57.7487 32.0702 57.749H14.0086C12.7054 57.7487 11.5304 58.5338 11.0319 59.738L3.92969 76.8842Z" fill="url(#paint14_linear_540_13234)"/>
<path d="M41.6898 63.4747H2.03978C0.215679 73.0551 -0.388579 82.8278 0.241412 92.5599H45.198V66.9721C45.2001 66.042 44.8309 65.1495 44.1722 64.4928C43.5135 63.8362 42.6199 63.4696 41.6898 63.4747Z" fill="url(#paint15_linear_540_13234)"/>
<path d="M47.0027 73.1536H0.612785C-2.24045 100.889 4.83762 132.645 25.2827 163.091C27.2578 166.028 29.409 168.842 31.7246 171.519H50.4947V76.651C50.4969 75.7237 50.1298 74.8337 49.4746 74.1775C48.8194 73.5213 47.93 73.1528 47.0027 73.1536Z" fill="url(#paint16_linear_540_13234)"/>
<path d="M122.829 105.189H157.304C158.683 105.189 159.801 106.306 159.801 107.685V171.519H120.344V107.685C120.344 106.311 121.455 105.195 122.829 105.189Z" fill="url(#paint17_linear_540_13234)"/>
<path d="M8.75781 131.346C10.9075 137.002 13.3957 142.525 16.209 147.883V83.8633H8.75781V131.346Z" fill="url(#paint18_linear_540_13234)"/>
<rect x="29.5156" y="83.8633" width="7.44847" height="65.4124" fill="url(#paint19_linear_540_13234)"/>
<mask id="mask0_540_13234" style="mask-type:alpha" maskUnits="userSpaceOnUse" x="19" y="51" width="231" height="150">
<path d="M25.601 200.259H221.239C221.239 200.259 265.299 164.021 244.35 101.45C223.4 38.8792 139.671 41.8907 114.659 71.3966C86.4743 104.65 90.2171 130.379 70.1003 126.378C42.322 120.851 5.62308 141.396 25.601 200.259Z" fill="white"/>
</mask>
<g mask="url(#mask0_540_13234)">
<path d="M108.711 162.5C99.9312 162.5 92.8125 171.007 92.8125 181.502C92.8125 191.996 99.9312 200.5 108.711 200.5H119.034V162.5H108.711Z" fill="url(#paint20_linear_540_13234)"/>
<ellipse cx="119.31" cy="181.502" rx="15.8956" ry="19.0014" fill="url(#paint21_linear_540_13234)"/>
<path d="M329.512 181.212H68.5391V140.41C68.5383 136.38 70.951 132.741 74.6638 131.172L101.389 119.895L122.484 84.4176C129.32 72.9208 141.706 65.8749 155.081 65.8748H322.428L329.512 181.212Z" fill="url(#paint22_linear_540_13234)"/>
<path d="M188.177 162.5C179.397 162.5 172.281 171.007 172.281 181.502C172.281 191.996 179.397 200.5 188.177 200.5H198.503V162.5H188.177Z" fill="url(#paint23_linear_540_13234)"/>
<ellipse cx="198.771" cy="181.502" rx="15.8956" ry="19.0014" fill="url(#paint24_linear_540_13234)"/>
<ellipse cx="198.78" cy="181.501" rx="11.2407" ry="13.4368" fill="white"/>
<ellipse cx="198.77" cy="181.502" rx="9.94188" ry="11.8827" fill="url(#paint25_linear_540_13234)"/>
<ellipse cx="198.778" cy="181.502" rx="6.75433" ry="8.07298" fill="white"/>
<path d="M325.416 65.8748H227.623C214.116 65.8737 201.628 73.0566 194.838 84.7324L174.389 119.895L147.664 131.172C143.953 132.74 141.54 136.377 141.539 140.405V181.212H174.024C174.024 168.512 184.319 158.217 197.019 158.217C209.718 158.217 220.013 168.512 220.013 181.212H283.514C283.645 168.604 293.902 158.453 306.51 158.453C319.117 158.453 329.374 168.604 329.505 181.212H337.365C340.023 181.212 342.573 180.157 344.453 178.277C346.333 176.398 347.389 173.849 347.389 171.19V142.024L338.788 77.579C337.889 70.8799 332.175 65.8781 325.416 65.8748Z" fill="url(#paint26_linear_540_13234)"/>
<path d="M141.539 157.823H347.396V142.024H141.539V157.823Z" fill="url(#paint27_linear_540_13234)"/>
<path d="M179.312 119.895L199.707 85.5974C201.598 82.4129 205.028 80.4611 208.732 80.4617H216.894C219.358 80.4617 221.355 82.4592 221.355 84.9232V115.411C221.355 117.875 219.358 119.872 216.894 119.872L179.312 119.895Z" fill="url(#paint28_linear_540_13234)"/>
<rect x="63.0625" y="167.708" width="105.848" height="13.8705" rx="6.93527" fill="url(#paint29_linear_540_13234)"/>
<rect x="66.9141" y="142.024" width="76.2459" height="15.7989" rx="7.89947" fill="url(#paint30_linear_540_13234)"/>
<rect x="68.5391" y="143.799" width="9.53786" height="12.247" rx="4.39916" fill="url(#paint31_linear_540_13234)"/>
<rect x="120.633" y="143.799" width="20.9025" height="12.247" rx="6.12352" fill="url(#paint32_linear_540_13234)"/>
<path d="M140.257 143.799H136.539V156.048H140.257C140.597 156.048 140.922 155.913 141.162 155.673C141.402 155.432 141.537 155.106 141.536 154.767V145.08C141.536 144.373 140.964 143.8 140.257 143.799V143.799Z" fill="url(#paint33_linear_540_13234)"/>
<path d="M127.565 82.343L105.234 119.895H169.736L191.821 82.7495C192.099 82.2815 192.105 81.7004 191.835 81.2274C191.566 80.7543 191.064 80.462 190.52 80.4617H130.861C129.507 80.4633 128.255 81.1782 127.565 82.343Z" fill="url(#paint34_linear_540_13234)"/>
<path fill-rule="evenodd" clip-rule="evenodd" d="M326.06 119.895H233.916C231.55 119.893 229.633 117.975 229.633 115.609V84.7448C229.633 83.6088 230.084 82.5194 230.887 81.7162C231.691 80.9129 232.78 80.4617 233.916 80.4617H322.082C324.236 80.4627 326.055 82.0628 326.33 84.1995L330.296 115.061C330.453 116.281 330.079 117.509 329.268 118.434C328.458 119.358 327.289 119.89 326.06 119.895V119.895Z" stroke="white" stroke-width="2.52101"/>
<rect x="200.562" y="131.49" width="20.8083" height="5.44312" rx="2.72156" fill="white"/>
<rect x="229.633" y="131.49" width="20.8083" height="5.44312" rx="2.72156" fill="white"/>
<rect x="80.5781" y="145.846" width="37.564" height="1.75489" fill="white"/>
<rect x="80.5781" y="149.046" width="37.564" height="1.75489" fill="white"/>
<rect x="80.5781" y="152.246" width="37.564" height="1.75489" fill="white"/>
<path d="M108.516 132.675C105.231 128.826 93.96 132.078 99.969 122.936C117.798 121.422 154.181 120.34 157.082 128.13C160.708 137.869 150.218 132.675 142.966 137.349C137.164 141.089 136.914 130.697 131.699 129.818C123.98 128.517 125.456 138.128 113.956 139.167C102.456 140.206 110.664 135.191 108.516 132.675Z" fill="url(#paint35_linear_540_13234)"/>
</g>
<path d="M67.6241 160.928C67.4981 172.602 57.9986 182 46.3238 182C34.6489 182 25.1494 172.602 25.0234 160.928C25.0234 149.164 46.3225 112.322 46.3225 112.322C46.3225 112.322 67.6241 149.164 67.6241 160.928Z" fill="url(#paint36_linear_540_13234)"/>
<path d="M46.3349 200.5V126.378" stroke="#382824" stroke-width="2" stroke-linecap="round" stroke-linejoin="round"/>
<path d="M56.2234 154.03L46.2344 164.019" stroke="#382824" stroke-width="2" stroke-linecap="round" stroke-linejoin="round"/>
<path d="M39.7188 141.396L45.9154 147.593" stroke="#382824" stroke-width="2" stroke-linecap="round" stroke-linejoin="round"/>
<path d="M40.7518 171.297C40.7518 179.978 33.7138 187.016 25.0321 187.016C16.3504 187.016 9.3125 179.978 9.3125 171.297C9.3125 162.621 25.0321 135.423 25.0321 135.423C25.0321 135.423 40.7518 162.614 40.7518 171.297Z" fill="url(#paint37_linear_540_13234)"/>
<path d="M25.038 200.5V145.796" stroke="#382824" stroke-width="2" stroke-linecap="round" stroke-linejoin="round"/>
<path d="M32.3246 166.205L24.9531 173.577" stroke="#382824" stroke-width="2" stroke-linecap="round" stroke-linejoin="round"/>
<path d="M20.1484 156.881L24.7216 161.454" stroke="#382824" stroke-width="2" stroke-linecap="round" stroke-linejoin="round"/>
<rect x="185.375" y="228.095" width="38.0226" height="38.6273" transform="rotate(-180 185.375 228.095)" fill="url(#paint38_linear_540_13234)"/>
<rect x="173.141" y="199.122" width="13.5434" height="9.65684" transform="rotate(-180 173.141 199.122)" fill="white"/>
<rect x="123.859" y="189.468" width="23.4952" height="38.6273" fill="url(#paint39_linear_540_13234)"/>
<path d="M190.702 96.9094C190.702 96.9094 188.052 107.32 187.653 110.924C187.39 113.311 189.71 117.708 194.425 115.856C199.63 113.809 201.09 98.0992 201.09 98.0992L190.702 96.9094Z" fill="url(#paint40_linear_540_13234)"/>
<path d="M189.615 107.972C188.324 107.489 187.525 106.192 187.674 104.821C188.341 98.8281 191.08 82.8482 195.239 80.4439C200.444 77.4299 204.864 81.9138 204.616 89.6149C204.435 95.2588 202.633 103.037 201.674 106.79C201.321 108.185 200.102 109.189 198.665 109.268C196.463 109.382 193.043 109.268 189.615 107.972Z" fill="url(#paint41_linear_540_13234)"/>
<path d="M185.401 157.694C185.401 157.694 187.322 161.112 188.195 160.916C189.067 160.72 188.718 159.52 188.195 158.472C187.892 157.891 187.643 157.284 187.451 156.657C187.451 156.657 188.708 159.904 189.404 159.763C190.101 159.622 189.684 157.671 189.196 156.657C188.708 155.644 187.801 153.309 187.801 153.309C187.801 153.309 185.637 151.983 185.253 154.077C185.02 155.278 185.071 156.516 185.401 157.694Z" fill="url(#paint42_linear_540_13234)"/>
<path d="M187.53 111.819C186.89 113.229 185.299 116.431 185.443 126.884C185.586 137.336 187.334 140.286 184.984 146.369C182.634 152.451 182.57 154.489 182.867 155.584C183.274 157.071 184.632 160.715 186.057 161.664C187.483 162.614 187.743 161.476 187.458 160.621C187.173 159.766 185.606 155.847 186.318 155.133C187.029 154.419 187.53 155.562 188.529 157.414C189.528 159.265 190.665 158.901 190.524 157.272C190.383 155.644 190.393 154.342 190.891 152.845C191.389 151.348 192.09 150.002 191.592 147.224C191.094 144.445 199.524 121.941 198.148 112.88C197.534 108.802 189.483 107.516 187.53 111.819Z" fill="url(#paint43_linear_540_13234)"/>
<path d="M186.875 113.397C186.875 113.397 187.522 110.706 190.871 109.305" stroke="white" stroke-width="0.5" stroke-linecap="round" stroke-linejoin="round"/>
<path d="M207.506 213.464C208.315 213.39 209.067 213.887 209.315 214.661C210.016 216.869 211.35 221.192 211.491 222.54C211.68 224.38 212.887 228.378 206.286 228.886C199.685 229.394 192.589 230.217 189.793 228.886C186.997 227.555 187.664 223.316 194.421 221.831C198.84 220.86 200.055 218.857 200.161 215.635C200.194 214.769 200.867 214.062 201.73 213.987L207.506 213.464Z" fill="url(#paint44_linear_540_13234)"/>
<path d="M188.266 226.935C188.806 227.327 189.78 227.77 191.461 227.84C194.549 227.966 205.465 227.165 208.548 226.318C210.455 225.795 211.312 224.949 211.691 224.379C211.763 226.273 211.111 228.511 206.288 228.883C199.69 229.379 192.591 230.214 189.795 228.883C188.984 228.54 188.406 227.804 188.266 226.935Z" fill="url(#paint45_linear_540_13234)"/>
<path d="M199.972 222.258C199.972 222.258 199.724 220.354 197.258 220.228" stroke="white" stroke-width="1.52" stroke-linecap="round" stroke-linejoin="round"/>
<path d="M197.867 223.061C197.867 223.061 197.619 221.157 195.141 221.031" stroke="white" stroke-width="1.52" stroke-linecap="round" stroke-linejoin="round"/>
<path d="M195.781 223.874C195.781 223.874 195.533 221.97 193.055 221.844" stroke="white" stroke-width="1.52" stroke-linecap="round" stroke-linejoin="round"/>
<path d="M193.595 167.326C193.595 167.326 193.402 161.092 197.846 159.932C202.29 158.772 209.52 158.998 210.792 168.218C212.197 178.428 211.885 184.446 210.388 194.928C209.52 201.009 210.229 210.901 210.289 214.634C210.303 215.535 209.794 216.363 208.982 216.755C207.949 217.251 206.256 217.809 203.859 217.806C202.68 217.764 201.521 217.483 200.453 216.981C199.711 216.646 199.2 215.946 199.108 215.137L193.595 167.326Z" fill="url(#paint46_linear_540_13234)"/>
<path d="M214.924 125.851C214.924 125.851 212.837 153.897 211.387 165.626C209.937 177.355 194.426 178.396 193.596 167.319C192.765 156.241 193.596 122.596 193.596 122.596L214.924 125.851Z" fill="url(#paint47_linear_540_13234)"/>
<path d="M231.536 213.771C232.345 213.697 233.097 214.195 233.346 214.968C234.047 217.177 235.381 221.499 235.522 222.848C235.71 224.687 236.917 228.685 230.317 229.193C223.716 229.701 216.62 230.524 213.824 229.193C211.028 227.862 211.697 223.626 218.454 222.139C222.873 221.167 224.088 219.164 224.194 215.942C224.227 215.076 224.9 214.369 225.763 214.294L231.536 213.771Z" fill="url(#paint48_linear_540_13234)"/>
<path d="M212.297 227.245C212.835 227.637 213.811 228.08 215.489 228.15C218.578 228.279 229.494 227.475 232.577 226.628C234.483 226.105 235.341 225.26 235.72 224.689C235.792 226.586 235.14 228.821 230.317 229.193C223.719 229.689 216.62 230.524 213.824 229.193C213.013 228.851 212.435 228.114 212.297 227.245Z" fill="url(#paint49_linear_540_13234)"/>
<path d="M224 222.568C224 222.568 223.752 220.664 221.273 220.538" stroke="white" stroke-width="1.52" stroke-linecap="round" stroke-linejoin="round"/>
<path d="M221.898 223.378C221.898 223.378 221.651 221.475 219.172 221.348" stroke="white" stroke-width="1.52" stroke-linecap="round" stroke-linejoin="round"/>
<path d="M219.805 224.174C219.805 224.174 219.557 222.273 217.078 222.144" stroke="white" stroke-width="1.52" stroke-linecap="round" stroke-linejoin="round"/>
<path d="M215.777 167.651C215.777 167.651 215.261 161.437 219.641 160.049C224.021 158.661 231.251 158.509 232.996 167.651C234.929 177.774 234.929 183.802 233.987 194.346C233.437 200.419 234.637 210.162 234.902 213.95C234.964 214.855 234.491 215.713 233.692 216.143C231.885 217.135 228.333 218.478 224.496 216.822C223.772 216.505 223.26 215.839 223.141 215.057L215.777 167.651Z" fill="url(#paint50_linear_540_13234)"/>
<path d="M234.933 126.118C234.933 126.118 234.303 154.236 233.461 166.024C232.618 177.813 217.183 179.657 215.781 168.635C214.378 157.612 211.703 123.796 211.703 123.796L234.933 126.118Z" fill="url(#paint51_linear_540_13234)"/>
<path d="M240.07 88.0979C243.699 78.9988 227.912 71.6074 214.322 71.6074C208.797 71.6074 194.782 78.5006 194.297 81.7451C193.811 84.9897 198.414 106.819 193.119 122.797C190.678 130.156 190.779 132.528 197.737 135.591C207.709 139.981 238.402 140.474 236.915 131.236C235.923 124.958 230.237 112.77 240.07 88.0979Z" fill="url(#paint52_linear_540_13234)"/>
<path d="M213.559 138.516C213.241 138.501 212.924 138.481 212.609 138.462V71.7709C212.942 71.7164 213.259 71.6743 213.559 71.6445V138.516Z" fill="url(#paint53_linear_540_13234)"/>
<path d="M222.898 73.3648L221.28 59.0183H209.729L206.953 73.3648C206.953 73.3648 208.661 77.1596 212.927 77.5215C216.88 77.8536 222.898 73.3648 222.898 73.3648Z" fill="url(#paint54_linear_540_13234)"/>
<path d="M222.472 69.6321C222.472 69.6321 223.741 70.7549 225.392 73.1022C224.775 76.0047 219.309 82.5211 219.309 82.5211C219.309 82.5211 217.051 78.7362 213.227 77.5365C213.227 77.5365 217.767 77.2886 221.005 72.8048C222.539 70.6632 222.472 69.6321 222.472 69.6321Z" fill="url(#paint55_linear_540_13234)"/>
<path d="M212.468 77.4845C212.468 77.4845 208.837 77.539 205.528 81.2793C205.528 81.2793 205.005 76.8846 205.097 74.2126C205.773 72.5922 206.634 71.0552 207.662 69.6321C207.662 69.6321 206.049 74.3787 212.468 77.4845Z" fill="url(#paint56_linear_540_13234)"/>
<path d="M219.613 100.848L222.037 102.296C222.562 102.61 223.217 102.61 223.742 102.296L226.164 100.848C226.666 100.549 226.974 100.008 226.974 99.423V92.9513C226.974 92.5102 226.799 92.0871 226.487 91.7752C226.175 91.4633 225.752 91.2881 225.311 91.2881H220.465C219.548 91.2895 218.805 92.0337 218.805 92.9513V99.423C218.805 100.007 219.111 100.548 219.613 100.848Z" fill="url(#paint57_linear_540_13234)"/>
<path d="M203.592 63.2347C203.592 63.2347 201.034 63.029 200.575 60.4314C200.117 57.8337 200.94 56.2846 203.19 56.7704C205.441 57.2562 203.592 63.2347 203.592 63.2347Z" fill="url(#paint58_linear_540_13234)"/>
<path d="M222.105 55.8211C222.105 55.8211 222.864 54.3092 224.666 55.3824C227.41 57.0208 226.564 62.1491 223.243 62.335C223.243 62.335 221.691 67.3568 216.717 71.4069C209.935 76.9244 205.117 70.9434 203.206 64.8112C201.19 58.3519 202.001 52.1701 206.306 49.6196C210.743 46.9922 219.523 45.4876 222.105 55.8211Z" fill="url(#paint59_linear_540_13234)"/>
<path d="M221.313 58.9887C221.313 58.9887 221.099 54.9287 223.761 55.0229C223.761 55.0229 224.287 48.5288 222.274 46.3748C220.262 44.2209 216.687 45.7254 216.687 45.7254C216.687 45.7254 207.003 43.7252 203.246 47.1358C199.488 50.5464 202.321 60.875 202.321 60.875C202.321 60.875 201.481 54.9807 204.654 52.6954C207.447 50.6852 211.958 50.9603 213.116 52.5913C214.273 54.2223 218.162 51.8477 219.005 53.6497C219.848 55.4517 219.877 59.6133 219.877 59.6133L221.313 58.9887Z" fill="url(#paint60_linear_540_13234)"/>
<path d="M224.946 57.6605C224.946 57.6605 222.898 56.3765 222.898 60.1391" stroke="#382824" stroke-width="0.5" stroke-linecap="round" stroke-linejoin="round"/>
<path d="M224.233 52.4648C224.233 52.4648 220.733 49.6738 211.751 50.41C202.768 51.1461 201.142 54.4997 201.142 54.4997C201.142 54.4997 199.256 44.1836 207.931 41.7049C216.606 39.2263 223.638 41.8611 224.233 52.4648Z" fill="url(#paint61_linear_540_13234)"/>
<path d="M215.058 52.202C212.458 50.7457 209.376 50.4178 206.529 51.2948C201.757 52.782 201.393 55.5853 201.393 55.5853L199.854 56.6437C199.854 56.6437 198.746 51.8549 203.78 49.7382C208.814 47.6214 213.823 50.3975 215.058 52.202Z" fill="url(#paint62_linear_540_13234)"/>
<path d="M224.236 52.4649C224.236 52.4649 218.101 52.517 216.946 52.5641C213.833 52.6905 212.236 49.2129 207.061 49.5649C201.885 49.9168 200.007 52.7871 199.853 56.6439C199.853 56.6439 198.475 53.3572 202.495 50.2564C206.811 46.9301 217.439 47.116 224.236 52.4649Z" fill="url(#paint63_linear_540_13234)"/>
<circle cx="214.899" cy="63.4975" r="1.42275" fill="url(#paint64_linear_540_13234)"/>
<circle cx="203.813" cy="64.4718" r="1.42275" fill="url(#paint65_linear_540_13234)"/>
<path d="M208.325 61.123C207.998 62.1938 207.715 62.7342 207.681 63.5819C207.631 64.7791 209.359 64.2685 209.359 64.2685" stroke="#382824" stroke-width="0.5" stroke-linecap="round" stroke-linejoin="round"/>
<path d="M224.769 58.7954C224.769 58.7954 223.566 58.2873 222.977 59.0209" stroke="#382824" stroke-width="0.5" stroke-linecap="round" stroke-linejoin="round"/>
<path d="M214.023 66.6231C214.26 67.5567 213.975 68.5456 213.278 69.21C212.581 69.8745 211.579 70.1112 210.658 69.8294C209.737 69.5475 209.039 68.7909 208.833 67.85C208.494 66.4173 209.879 67.0568 211.312 66.7172C212.744 66.3777 213.684 65.1904 214.023 66.6231Z" fill="#281D1D"/>
<path d="M192.748 128.043L181.989 113.941L174.896 116.798L187.74 130.584C188.26 131.146 188.454 131.935 188.254 132.673C187.909 133.961 188.626 135.295 189.891 135.717C191.203 136.158 192.624 135.459 193.076 134.152L193.522 132.866C194.089 131.23 193.798 129.419 192.748 128.043Z" fill="url(#paint66_linear_540_13234)"/>
<path d="M187.839 116.341L172.545 123.891L168.327 115.346L180.239 109.465C183.213 107.997 186.815 109.218 188.284 112.192L188.855 113.35C189.401 114.456 188.947 115.795 187.841 116.341L187.839 116.341Z" fill="url(#paint67_linear_540_13234)"/>
<path d="M175.537 122.444L168.406 125.964C167.383 126.47 166.144 126.049 165.638 125.026L164.343 122.401C163.22 120.126 164.153 117.372 166.428 116.249L169.028 114.965C171.302 113.842 174.057 114.776 175.18 117.051L176.476 119.676C176.981 120.699 176.561 121.939 175.537 122.444V122.444Z" fill="url(#paint68_linear_540_13234)"/>
<path d="M174.677 121.513L168.164 124.728C167.587 125.013 166.888 124.776 166.603 124.199L165.406 121.774C164.65 120.244 165.278 118.391 166.809 117.636L169.875 116.122C171.405 115.367 173.258 115.995 174.013 117.525L175.21 119.949C175.348 120.227 175.369 120.549 175.268 120.842C175.168 121.135 174.956 121.377 174.677 121.513Z" fill="url(#paint69_linear_540_13234)"/>
<path d="M180.239 109.458C182.847 108.171 186.002 108.937 187.729 111.277L179.457 115.455C178.521 115.927 177.381 115.655 176.758 114.812C175.715 113.398 174.601 112.836 173.847 112.613L180.239 109.458Z" fill="url(#paint70_linear_540_13234)"/>
<path d="M237.381 105.458C237.381 105.458 235.952 118.178 234.872 121.835C233.507 126.506 229.424 127.967 223.41 128.443C215.558 129.062 197.947 127.933 195.951 129.25C193.955 130.567 190.093 133.417 188.929 133.149C188.203 132.96 187.568 132.519 187.137 131.905C187.137 131.905 184.819 132.279 184.165 131.041C183.333 129.467 182.963 130.047 181.876 128.882C180.79 127.716 182.066 124.502 182.066 124.502C182.066 124.502 183.943 126.662 185.51 126.543C186.834 126.44 188.976 125.311 188.651 123.613C188.327 121.914 186.042 120.374 185.444 118.748C185.055 117.682 186.239 116.287 189.06 118.078C191.671 119.73 193.254 118.567 196.167 120.015C198.916 121.379 216.113 116.1 222.882 114.31L224.225 103.246L237.381 105.458Z" fill="url(#paint71_linear_540_13234)"/>
<path d="M238.332 111.306C238.332 111.306 243.043 89.4913 239.504 83.5921C235.966 77.6928 225.992 79.0526 223.796 90.1015C221.601 101.15 220.18 109.494 220.845 110.582C221.511 111.669 237.016 114.731 238.332 111.306Z" fill="url(#paint72_linear_540_13234)"/>
<path d="M228.23 118.01C228.23 118.01 227.268 114.879 222.891 114.306" stroke="white" stroke-width="0.5" stroke-linecap="round" stroke-linejoin="round"/>
<path d="M161.584 121.078L154.471 124.544M165.483 127.631L157.827 133.402M151.972 130.852L144.674 135.683M143.466 127.631L135.414 130.852M156.619 142.528L151.972 148.03" stroke="url(#paint73_linear_540_13234)"/>
<path d="M165.48 117.328C165.61 117.259 165.745 117.198 165.882 117.143L169.867 115.659C171.86 114.92 174.075 115.934 174.817 117.926L175.99 121.078C176.133 121.461 176.107 121.887 175.918 122.25L151.968 163.031L116.219 129.334L165.48 117.328Z" fill="url(#paint74_linear_540_13234)"/>
</svg>
