<svg width="157" height="143" viewBox="0 0 157 143" fill="none" xmlns="http://www.w3.org/2000/svg">
<defs>
<filter id="filter0_f_326_7945" x="0" y="0.90332" width="156.108" height="142.097" filterUnits="userSpaceOnUse" color-interpolation-filters="sRGB">
<feFlood flood-opacity="0" result="BackgroundImageFix"/>
<feBlend mode="normal" in="SourceGraphic" in2="BackgroundImageFix" result="shape"/>
<feGaussianBlur stdDeviation="7.5" result="effect1_foregroundBlur_326_7945"/>
</filter>
<linearGradient id="paint0_linear_326_7945" x1="78.0544" y1="15.9033" x2="78.0544" y2="128" gradientUnits="userSpaceOnUse">
<stop stop-color="#FBFDFE"/>
<stop offset="1" stop-color="#F0F5FA"/>
</linearGradient>
</defs>
<g filter="url(#filter0_f_326_7945)">
<path d="M40.6996 128H115.408C117.461 128.005 119.44 127.229 120.949 125.828C127.242 119.966 132.277 112.871 135.744 104.978C139.21 97.0863 141.035 88.5641 141.106 79.9361C141.428 44.8532 113.081 15.9863 78.2066 15.9035C43.3127 15.8207 15 44.2529 15 79.3378C14.9901 88.0702 16.7774 96.71 20.2494 104.713C23.7213 112.717 28.8028 119.91 35.1739 125.841C36.6793 127.236 38.653 128.007 40.6996 128Z" fill="url(#paint0_linear_326_7945)"/>
</g>
<path d="M104.207 43.699V33.063H51.9023V43.6992C51.9023 46.3475 52.4581 48.9664 53.5336 51.3864C54.6091 53.8065 56.1805 55.9739 58.1462 57.7486L76.7609 74.5549L58.1462 91.3611C56.1805 93.1358 54.6091 95.3032 53.5336 97.7233C52.4581 100.143 51.9023 102.762 51.9023 105.41V116.047H104.207V105.411C104.207 102.762 103.651 100.144 102.575 97.7236C101.5 95.3035 99.9285 93.1361 97.9629 91.3614L79.348 74.5549L97.9629 57.7483C99.9285 55.9736 101.5 53.8062 102.575 51.3862C103.651 48.9661 104.207 46.3473 104.207 43.699Z" fill="#E5E9F1"/>
<path d="M65.3096 64.2157C71.1827 57.5849 78.0547 70.7611 90.7999 64.2157L76.464 72.2312L65.3096 64.2157Z" fill="#F2C94C"/>
<path opacity="0.2" d="M65.3096 64.2157C71.1827 57.5849 78.0547 70.7611 90.7999 64.2157L76.464 72.2312L65.3096 64.2157Z" fill="white"/>
<path opacity="0.2" d="M84.8715 64.5706C86.2444 64.5771 87.5991 64.2571 88.824 63.6369C90.0488 63.0168 91.1086 62.1142 91.9159 61.0038C97.3954 53.3737 100.343 44.2171 100.345 34.8233V33.063H93.625V34.8233C93.625 44.3212 90.6142 53.5746 85.0252 61.254C84.6442 61.7775 84.269 62.3051 83.8997 62.8367C83.7849 63.0024 83.7176 63.1964 83.7052 63.3977C83.6928 63.5989 83.7357 63.7997 83.8293 63.9783C83.9228 64.1569 84.0634 64.3065 84.2359 64.4109C84.4084 64.5153 84.6062 64.5705 84.8078 64.5706H84.8715Z" fill="white"/>
<path d="M105.158 21.7153H50.9521C49.8896 21.7153 49.0283 22.5766 49.0283 23.6391V31.5657C49.0283 32.6282 49.8896 33.4895 50.9521 33.4895H105.158C106.22 33.4895 107.082 32.6282 107.082 31.5657V23.6391C107.082 22.5766 106.22 21.7153 105.158 21.7153Z" fill="#D4D9E3"/>
<path d="M105.158 116.047H50.9521C49.8896 116.047 49.0283 116.908 49.0283 117.971V125.897C49.0283 126.96 49.8896 127.821 50.9521 127.821H105.158C106.22 127.821 107.082 126.96 107.082 125.897V117.971C107.082 116.908 106.22 116.047 105.158 116.047Z" fill="#D4D9E3"/>
<path d="M95.669 110.577L85.3594 103.622C83.7459 102.533 82.3841 101.112 81.3654 99.4531C80.3467 97.7945 79.6947 95.9372 79.4532 94.0059H79.4377C79.379 93.4161 79.3481 92.8465 79.3481 92.3159V74.5549L90.7997 64.2158C80.9018 60.7107 75.2514 71.4565 65.3093 64.2158L76.7642 74.555V92.3137C76.7642 92.8794 76.7289 93.4446 76.6588 94.0059V94.0061C76.4172 95.9374 75.7652 97.7947 74.7465 99.4531C73.7279 101.112 72.366 102.533 70.7526 103.622L60.443 110.577C59.5476 111.181 58.8143 111.996 58.3073 112.95C57.8003 113.903 57.5351 114.967 57.5352 116.047H98.5768C98.5768 114.967 98.3117 113.903 97.8047 112.95C97.2977 111.996 96.5643 111.181 95.669 110.577Z" fill="#F2C94C"/>
<path opacity="0.2" d="M84.8078 84.5392C84.6062 84.5392 84.4084 84.5944 84.2359 84.6988C84.0634 84.8032 83.9228 84.9528 83.8293 85.1314C83.7357 85.31 83.6928 85.5108 83.7052 85.712C83.7176 85.9133 83.7849 86.1073 83.8996 86.2731C84.2692 86.8044 84.6444 87.332 85.0252 87.8556C90.6142 95.535 93.6249 104.788 93.6249 114.286V116.047H100.345V114.286C100.343 104.893 97.3954 95.736 91.916 88.1059C91.1087 86.9955 90.0489 86.093 88.8241 85.4728C87.5992 84.8526 86.2445 84.5326 84.8716 84.5392L84.8078 84.5392Z" fill="white"/>
<path d="M71.2301 20.5241C69.976 20.5227 68.7737 20.0239 67.887 19.1372C67.0003 18.2505 66.5015 17.0482 66.5001 15.7941C66.4947 15.482 66.3667 15.1846 66.1438 14.9661C65.9208 14.7476 65.6209 14.6256 65.3087 14.6265C64.999 14.6265 64.7021 14.7495 64.4831 14.9685C64.2641 15.1875 64.1411 15.4845 64.1411 15.7941C64.1396 17.0545 63.6384 18.2627 62.7472 19.1539C61.856 20.0451 60.6477 20.5464 59.3874 20.5478C59.0777 20.5478 58.7807 20.6708 58.5617 20.8898C58.3428 21.1088 58.2197 21.4058 58.2197 21.7155C58.2197 22.0252 58.3428 22.3222 58.5617 22.5411C58.7807 22.7601 59.0777 22.8832 59.3874 22.8832C60.6477 22.8846 61.856 23.3858 62.7472 24.277C63.6384 25.1682 64.1396 26.3765 64.1411 27.6368C64.1411 27.9465 64.2641 28.2435 64.4831 28.4625C64.702 28.6815 64.999 28.8045 65.3087 28.8045C65.6184 28.8045 65.9154 28.6815 66.1344 28.4625C66.3534 28.2435 66.4764 27.9465 66.4764 27.6368C66.4778 26.3765 66.9791 25.1682 67.8703 24.277C68.7615 23.3858 69.9697 22.8846 71.2301 22.8832C71.5422 22.8778 71.8396 22.7498 72.0581 22.5269C72.2766 22.3039 72.3986 22.004 72.3977 21.6918C72.3977 21.3821 72.2747 21.0851 72.0557 20.8662C71.8367 20.6472 71.5397 20.5242 71.2301 20.5241Z" fill="#F2C94C"/>
<path d="M53.6351 119.391C52.7493 118.504 52.2519 117.301 52.2519 116.047C52.2519 114.793 52.7493 113.59 53.6351 112.702C53.852 112.478 53.9718 112.177 53.9687 111.865C53.9655 111.553 53.8397 111.254 53.6184 111.034C53.3994 110.815 53.1024 110.692 52.7927 110.692C52.483 110.692 52.186 110.815 51.967 111.034C51.0748 111.924 49.866 112.424 48.6057 112.424C47.3454 112.424 46.1365 111.924 45.2443 111.034C45.0253 110.815 44.7283 110.692 44.4187 110.692C44.109 110.692 43.812 110.815 43.593 111.034C43.374 111.253 43.251 111.55 43.251 111.86C43.251 112.169 43.374 112.467 43.593 112.685C44.4832 113.578 44.9831 114.787 44.9831 116.047C44.9831 117.307 44.4832 118.516 43.593 119.408C43.4846 119.517 43.3985 119.645 43.3399 119.787C43.2812 119.929 43.251 120.08 43.251 120.234C43.251 120.387 43.2812 120.539 43.3399 120.681C43.3985 120.822 43.4846 120.951 43.593 121.06C43.7014 121.168 43.8301 121.254 43.9718 121.313C44.1135 121.371 44.2653 121.402 44.4187 121.402C44.572 121.402 44.7238 121.371 44.8655 121.313C45.0072 121.254 45.1359 121.168 45.2443 121.06C46.1365 120.169 47.3454 119.669 48.6057 119.669C49.866 119.669 51.0748 120.169 51.967 121.06C52.1915 121.276 52.4923 121.396 52.8045 121.393C53.1166 121.39 53.415 121.264 53.6351 121.043C53.854 120.824 53.9771 120.527 53.9771 120.217C53.9771 119.907 53.854 119.61 53.6351 119.391Z" fill="#F2C94C"/>
<path d="M109.971 76.8243C109.085 75.9366 108.588 74.7337 108.588 73.4797C108.588 72.2256 109.085 71.0228 109.971 70.1351C110.188 69.9106 110.308 69.6097 110.305 69.2976C110.301 68.9855 110.176 68.6871 109.954 68.467C109.735 68.248 109.438 68.125 109.129 68.125C108.819 68.125 108.522 68.248 108.303 68.467C107.411 69.3572 106.202 69.8571 104.942 69.8571C103.681 69.8571 102.472 69.3572 101.58 68.467C101.361 68.248 101.064 68.125 100.755 68.125C100.445 68.125 100.148 68.248 99.9289 68.467C99.7099 68.686 99.5869 68.983 99.5869 69.2927C99.5869 69.6024 99.7099 69.8994 99.9289 70.1183C100.819 71.0105 101.319 72.2194 101.319 73.4797C101.319 74.74 100.819 75.9489 99.9289 76.841C99.7099 77.06 99.5869 77.357 99.5869 77.6667C99.5869 77.9764 99.7099 78.2734 99.9289 78.4924C100.148 78.7114 100.445 78.8344 100.755 78.8344C101.064 78.8344 101.361 78.7114 101.58 78.4924C102.472 77.6022 103.681 77.1023 104.942 77.1023C106.202 77.1023 107.411 77.6022 108.303 78.4924C108.527 78.7093 108.828 78.8291 109.14 78.826C109.453 78.8228 109.751 78.697 109.971 78.4756C110.19 78.2567 110.313 77.9597 110.313 77.65C110.313 77.3403 110.19 77.0433 109.971 76.8243Z" fill="#F2C94C"/>
</svg>
