<svg width="157" height="143" viewBox="0 0 157 143" fill="none" xmlns="http://www.w3.org/2000/svg">
    <g filter="url(#filter0_f_326_7971)">
        <path d="M40.6998 127.098H115.408C117.462 127.103 119.441 126.327 120.95 124.925C127.243 119.063 132.278 111.968 135.745 104.076C139.211 96.1837 141.036 87.6615 141.107 79.0333C141.43 43.9501 113.082 15.083 78.2071 15.0002C43.313 14.9173 15 43.3499 15 78.4351C14.9901 87.1675 16.7774 95.8074 20.2494 103.811C23.7214 111.814 28.803 119.008 35.1741 124.938C36.6796 126.333 38.6532 127.105 40.6998 127.098Z" fill="url(#paint0_linear_326_7971)" />
    </g>
    <path d="M63.0044 37.6855L36.628 40.2435C35.6083 40.3424 34.6619 40.8175 33.9734 41.576C33.2848 42.3346 32.9033 43.3224 32.9033 44.3469V122.915C32.9033 123.94 33.2848 124.927 33.9734 125.686C34.6619 126.445 35.6083 126.92 36.628 127.019L63.0044 129.577V37.6855Z" fill="#E5E9F1" />
    <path d="M63.0039 37.6855L93.1051 40.6048V126.657L63.0039 129.577V37.6855Z" fill="#D4D9E3" />
    <path d="M119.733 38.0226L93.1055 40.6049V126.658L119.733 129.24C120.173 129.283 120.617 129.233 121.036 129.094C121.455 128.955 121.841 128.729 122.168 128.432C122.495 128.136 122.756 127.773 122.935 127.37C123.114 126.966 123.207 126.529 123.207 126.087V41.1756C123.207 40.7338 123.114 40.2969 122.935 39.8929C122.756 39.489 122.495 39.1269 122.168 38.83C121.841 38.5331 121.455 38.3079 121.036 38.1688C120.617 38.0298 120.173 37.98 119.733 38.0226Z" fill="#E5E9F1" />
    <path d="M123.207 99.0862L100.277 101.004L81.3424 92.3197L84.3126 89.3123C84.8156 88.803 85.1021 88.1189 85.1123 87.4031C85.1225 86.6874 84.8556 85.9954 84.3673 85.472L65.4911 65.2353L79.547 54.8493L105.877 57.3572C106.51 57.4174 107.144 57.2584 107.674 56.9069C108.204 56.5553 108.596 56.0325 108.787 55.426L114.071 38.5713L108.076 39.1527L104.166 51.6225L79.016 49.2273C78.3354 49.1627 77.6549 49.3515 77.1049 49.7575L59.671 62.6394L59.6656 62.6434L48.3845 70.9791L32.9033 72.3982V77.9677L49.6625 76.4315C50.1673 76.3854 50.6497 76.2017 51.0574 75.9004L61.0012 68.5529L78.4958 87.3085L54.283 111.824C53.903 112.209 53.6438 112.697 53.5373 113.227C53.4308 113.757 53.4817 114.307 53.6837 114.809L59.4919 129.236L63.0044 129.576L65.5103 129.333L59.5088 114.426L77.1947 96.5192L98.6266 106.349C98.9893 106.516 99.3837 106.602 99.7827 106.602C99.8597 106.602 99.9368 106.599 100.014 106.592L123.207 104.652V99.0862Z" fill="white" />
    <path d="M75.5568 58.8976L63.934 42.4312C61.5841 39.1022 60.486 35.0499 60.8335 30.9899C61.181 26.9298 62.9517 23.1231 65.8331 20.2418L65.8331 20.2417C67.4381 18.6367 69.3436 17.3635 71.4406 16.4949C73.5377 15.6263 75.7853 15.1792 78.0551 15.1792C80.325 15.1792 82.5726 15.6263 84.6697 16.4949C86.7667 17.3635 88.6722 18.6367 90.2772 20.2417L90.2772 20.2418C93.1586 23.1231 94.9293 26.9298 95.2768 30.9899C95.6243 35.0499 94.5262 39.1022 92.1763 42.4312L80.5535 58.8976C80.2711 59.2977 79.8968 59.6241 79.4621 59.8493C79.0273 60.0746 78.5448 60.1922 78.0551 60.1922C77.5655 60.1922 77.083 60.0746 76.6482 59.8493C76.2134 59.6241 75.8391 59.2977 75.5568 58.8976Z" fill="#40C97B" />
    <path d="M78.0551 42.703C83.705 42.703 88.2851 38.1229 88.2851 32.4731C88.2851 26.8233 83.705 22.2432 78.0551 22.2432C72.4053 22.2432 67.8252 26.8233 67.8252 32.4731C67.8252 38.1229 72.4053 42.703 78.0551 42.703Z" fill="white" />
    <path d="M79.5993 109.759L75.1628 117.443C75.0785 117.589 75.0342 117.754 75.0342 117.923C75.0342 118.091 75.0785 118.257 75.1628 118.403C75.247 118.549 75.3682 118.67 75.5141 118.754C75.6601 118.839 75.8256 118.883 75.9941 118.883H84.8671C85.0356 118.883 85.2011 118.839 85.3471 118.754C85.493 118.67 85.6142 118.549 85.6984 118.403C85.7827 118.257 85.827 118.091 85.827 117.923C85.827 117.754 85.7827 117.589 85.6984 117.443L81.2619 109.759C81.1776 109.613 81.0565 109.492 80.9105 109.407C80.7646 109.323 80.5991 109.279 80.4306 109.279C80.2621 109.279 80.0966 109.323 79.9506 109.407C79.8047 109.492 79.6835 109.613 79.5993 109.759Z" fill="#40C97B" />
    <path d="M45.9987 73.7685L41.5622 81.4528C41.4779 81.5987 41.4336 81.7643 41.4336 81.9328C41.4336 82.1013 41.4779 82.2668 41.5622 82.4127C41.6464 82.5586 41.7676 82.6798 41.9136 82.7641C42.0595 82.8483 42.225 82.8927 42.3935 82.8927H51.2665C51.435 82.8927 51.6006 82.8483 51.7465 82.7641C51.8924 82.6798 52.0136 82.5586 52.0978 82.4127C52.1821 82.2668 52.2264 82.1012 52.2264 81.9327C52.2264 81.7642 52.1821 81.5987 52.0978 81.4528L47.6613 73.7685C47.5771 73.6226 47.4559 73.5014 47.31 73.4172C47.1641 73.3329 46.9985 73.2886 46.83 73.2886C46.6615 73.2886 46.496 73.3329 46.3501 73.4172C46.2041 73.5014 46.083 73.6226 45.9987 73.7685Z" fill="#D4D9E3" />
    <path d="M110.44 103.523L106.004 111.207C105.919 111.353 105.875 111.519 105.875 111.687C105.875 111.856 105.919 112.021 106.004 112.167C106.088 112.313 106.209 112.434 106.355 112.518C106.501 112.603 106.666 112.647 106.835 112.647H115.708C115.876 112.647 116.042 112.603 116.188 112.518C116.334 112.434 116.455 112.313 116.539 112.167C116.623 112.021 116.668 111.856 116.668 111.687C116.668 111.519 116.623 111.353 116.539 111.207L112.103 103.523C112.018 103.377 111.897 103.256 111.751 103.172C111.605 103.087 111.44 103.043 111.271 103.043C111.103 103.043 110.937 103.087 110.791 103.172C110.646 103.256 110.524 103.377 110.44 103.523Z" fill="#D4D9E3" />
    <path d="M101.105 55.8699L96.6686 63.5541C96.5844 63.7 96.54 63.8656 96.54 64.0341C96.54 64.2026 96.5844 64.3681 96.6686 64.514C96.7529 64.66 96.8741 64.7811 97.02 64.8654C97.1659 64.9496 97.3315 64.994 97.5 64.994H106.373C106.541 64.994 106.707 64.9496 106.853 64.8654C106.999 64.7811 107.12 64.66 107.204 64.514C107.289 64.3681 107.333 64.2026 107.333 64.0341C107.333 63.8656 107.289 63.7 107.204 63.5541L102.768 55.8699C102.684 55.7239 102.562 55.6027 102.416 55.5185C102.27 55.4342 102.105 55.3899 101.936 55.3899C101.768 55.3899 101.602 55.4342 101.457 55.5185C101.311 55.6027 101.189 55.7239 101.105 55.8699Z" fill="#40C97B" />
    <defs>
        <filter id="filter0_f_326_7971" x="0" y="0" width="156.11" height="142.098" filterUnits="userSpaceOnUse" color-interpolation-filters="sRGB">
            <feFlood flood-opacity="0" result="BackgroundImageFix" />
            <feBlend mode="normal" in="SourceGraphic" in2="BackgroundImageFix" result="shape" />
            <feGaussianBlur stdDeviation="7.5" result="effect1_foregroundBlur_326_7971" />
        </filter>
        <linearGradient id="paint0_linear_326_7971" x1="78.055" y1="15" x2="78.055" y2="127.098" gradientUnits="userSpaceOnUse">
            <stop stop-color="#FBFDFE" />
            <stop offset="1" stop-color="#F0F5FA" />
        </linearGradient>
    </defs>
</svg>