<svg width="18" height="18" viewBox="0 0 18 18" fill="none" xmlns="http://www.w3.org/2000/svg">
<path opacity="0.4" d="M12.4652 16.5H5.53477C3.51692 16.5 1.875 14.8733 1.875 12.8734V8.87658C1.875 6.87671 3.51692 5.25 5.53477 5.25H12.4652C14.4831 5.25 16.125 6.87671 16.125 8.87658V12.8734C16.125 14.8733 14.4831 16.5 12.4652 16.5Z" fill="#35A8E0"/>
<path d="M11.8163 7.5C11.508 7.5 11.2577 7.25725 11.2577 6.95816V4.76767C11.2577 3.56334 10.2477 2.58368 9.0067 2.58368C8.43539 2.58368 7.83577 2.8062 7.40896 3.21583C6.98141 3.62691 6.74454 4.17381 6.7423 4.75756V6.95816C6.7423 7.25725 6.49203 7.5 6.18365 7.5C5.87528 7.5 5.625 7.25725 5.625 6.95816V4.76767C5.62872 3.87977 5.98328 3.06051 6.62238 2.44714C7.26073 1.83233 8.08605 1.52384 9.00894 1.5C10.8637 1.5 12.375 2.96586 12.375 4.76767V6.95816C12.375 7.25725 12.1247 7.5 11.8163 7.5Z" fill="#35A8E0"/>
</svg>
