<svg width="42" height="60" viewBox="0 0 42 60" fill="none" xmlns="http://www.w3.org/2000/svg">
<path d="M42 21C42 32.598 24.5 59.5 21 59.5C16 59.5 0 32.598 0 21C0 9.40202 9.40202 0 21 0C32.598 0 42 9.40202 42 21Z" fill="#5A529B"/>
<circle cx="21" cy="20" r="15" fill="white"/>
<g clip-path="url(#clip0_152_9577)">
<path d="M18.4961 18.6248H23.8294" stroke="#312782" stroke-width="1.5" stroke-linecap="round" stroke-linejoin="round"/>
<path d="M17.832 21.2913H18.4987" stroke="#312782" stroke-width="1.5" stroke-linecap="round" stroke-linejoin="round"/>
<path d="M23.832 21.2913H24.4987" stroke="#312782" stroke-width="1.5" stroke-linecap="round" stroke-linejoin="round"/>
<path d="M15.1641 23.9581V19.5651C15.1641 19.3846 15.2007 19.2058 15.2719 19.0399L16.8177 15.4329C17.0278 14.9426 17.5099 14.6248 18.0433 14.6248H24.2849C24.8183 14.6248 25.3003 14.9426 25.5104 15.4329L27.0563 19.0399C27.1274 19.2058 27.1641 19.3846 27.1641 19.5651V23.9581M15.1641 23.9581V25.5581C15.1641 25.779 15.3431 25.9581 15.5641 25.9581H17.4307C17.6516 25.9581 17.8307 25.779 17.8307 25.5581V23.9581M15.1641 23.9581H17.8307M27.1641 23.9581V25.5581C27.1641 25.779 26.985 25.9581 26.7641 25.9581H24.8974C24.6765 25.9581 24.4974 25.779 24.4974 25.5581V23.9581M27.1641 23.9581H24.4974M17.8307 23.9581H24.4974" stroke="#312782" stroke-width="1.5"/>
</g>
<defs>
<clipPath id="clip0_152_9577">
<rect width="17" height="16" fill="white" transform="translate(13 12)"/>
</clipPath>
</defs>
</svg>
