<svg width="257" height="203" viewBox="0 0 257 203" fill="none" xmlns="http://www.w3.org/2000/svg">
<defs>
<linearGradient id="paint0_linear_330_7754" x1="328.32" y1="250.838" x2="328.32" y2="-41.254" gradientUnits="userSpaceOnUse">
<stop stop-color="#9288E2"/>
<stop offset="1" stop-color="white"/>
</linearGradient>
<linearGradient id="paint1_linear_330_7754" x1="83.012" y1="145.338" x2="104.479" y2="153.192" gradientUnits="userSpaceOnUse">
<stop stop-color="#9288E2"/>
<stop offset="1" stop-color="white"/>
</linearGradient>
<linearGradient id="paint2_linear_330_7754" x1="-4.83344" y1="415.035" x2="80.8158" y2="415.035" gradientUnits="userSpaceOnUse">
<stop stop-color="#9288E2"/>
<stop offset="1" stop-color="white"/>
</linearGradient>
<linearGradient id="paint3_linear_330_7754" x1="211.014" y1="228.353" x2="214.627" y2="142.853" gradientUnits="userSpaceOnUse">
<stop stop-color="#9288E2"/>
<stop offset="1" stop-color="white"/>
</linearGradient>
<linearGradient id="paint4_linear_330_7754" x1="-35.1813" y1="117.857" x2="-37.1812" y2="239.32" gradientUnits="userSpaceOnUse">
<stop stop-color="#9288E2"/>
<stop offset="1" stop-color="white"/>
</linearGradient>
<linearGradient id="paint5_linear_330_7754" x1="299.788" y1="278.769" x2="299.788" y2="45.0909" gradientUnits="userSpaceOnUse">
<stop stop-color="#9288E2"/>
<stop offset="1" stop-color="white"/>
</linearGradient>
<linearGradient id="paint6_linear_330_7754" x1="258.068" y1="131.742" x2="264.061" y2="-23.0631" gradientUnits="userSpaceOnUse">
<stop stop-color="#9288E2"/>
<stop offset="1" stop-color="white"/>
</linearGradient>
<linearGradient id="paint7_linear_330_7754" x1="171.033" y1="238.112" x2="314.381" y2="238.112" gradientUnits="userSpaceOnUse">
<stop stop-color="#FFDDBB"/>
<stop offset="1" stop-color="#FF786E"/>
</linearGradient>
<linearGradient id="paint8_linear_330_7754" x1="207.772" y1="249.205" x2="309.874" y2="249.205" gradientUnits="userSpaceOnUse">
<stop stop-color="#FFDDBB"/>
<stop offset="1" stop-color="#FF786E"/>
</linearGradient>
<linearGradient id="paint9_linear_330_7754" x1="152.36" y1="142.486" x2="259.851" y2="142.486" gradientUnits="userSpaceOnUse">
<stop stop-color="#FFDDBB"/>
<stop offset="1" stop-color="#FF786E"/>
</linearGradient>
<linearGradient id="paint10_linear_330_7754" x1="233.937" y1="140.206" x2="238.353" y2="115.1" gradientUnits="userSpaceOnUse">
<stop stop-color="#FFDD8E"/>
<stop offset="1" stop-color="white"/>
</linearGradient>
<linearGradient id="paint11_linear_330_7754" x1="21.437" y1="142.511" x2="49.3008" y2="222.371" gradientUnits="userSpaceOnUse">
<stop stop-color="#393277"/>
<stop offset="1" stop-color="#9288E2"/>
</linearGradient>
<linearGradient id="paint12_linear_330_7754" x1="-5.55499" y1="128.468" x2="1.79504" y2="189.38" gradientUnits="userSpaceOnUse">
<stop stop-color="#9288E2"/>
<stop offset="1" stop-color="white"/>
</linearGradient>
<linearGradient id="paint13_linear_330_7754" x1="158.52" y1="168.121" x2="176.383" y2="140.279" gradientUnits="userSpaceOnUse">
<stop stop-color="#9288E2"/>
<stop offset="1" stop-color="white"/>
</linearGradient>
<linearGradient id="paint14_linear_330_7754" x1="140.88" y1="63.3651" x2="121.509" y2="111.87" gradientUnits="userSpaceOnUse">
<stop stop-color="#9288E2"/>
<stop offset="1" stop-color="white"/>
</linearGradient>
<linearGradient id="paint15_linear_330_7754" x1="139.214" y1="116.855" x2="163.856" y2="121.23" gradientUnits="userSpaceOnUse">
<stop stop-color="#9288E2"/>
<stop offset="1" stop-color="white"/>
</linearGradient>
<linearGradient id="paint16_linear_330_7754" x1="177.588" y1="124.71" x2="168.965" y2="103.708" gradientUnits="userSpaceOnUse">
<stop stop-color="#9288E2"/>
<stop offset="1" stop-color="white"/>
</linearGradient>
<linearGradient id="paint17_linear_330_7754" x1="259.532" y1="49.2379" x2="199.846" y2="49.2379" gradientUnits="userSpaceOnUse">
<stop stop-color="#9288E2"/>
<stop offset="1" stop-color="white"/>
</linearGradient>
<linearGradient id="paint18_linear_330_7754" x1="102.152" y1="124.898" x2="245.416" y2="124.898" gradientUnits="userSpaceOnUse">
<stop stop-color="#393277"/>
<stop offset="1" stop-color="#7163E4"/>
</linearGradient>
<linearGradient id="paint19_linear_330_7754" x1="191.546" y1="6.00067" x2="85.5414" y2="6.00067" gradientUnits="userSpaceOnUse">
<stop stop-color="#FFDDBB"/>
<stop offset="1" stop-color="#FF786E"/>
</linearGradient>
<linearGradient id="paint20_linear_330_7754" x1="125.291" y1="40.533" x2="125.291" y2="57.8063" gradientUnits="userSpaceOnUse">
<stop stop-color="#FFDD8E"/>
<stop offset="1" stop-color="white"/>
</linearGradient>
<linearGradient id="paint21_linear_330_7754" x1="171.953" y1="114.19" x2="327.462" y2="114.19" gradientUnits="userSpaceOnUse">
<stop stop-color="#FFBB00"/>
<stop offset="1" stop-color="#FFFF95"/>
</linearGradient>
<linearGradient id="paint22_linear_330_7754" x1="207.614" y1="57.6178" x2="253.686" y2="57.6178" gradientUnits="userSpaceOnUse">
<stop stop-color="#393277"/>
<stop offset="1" stop-color="#9288E2"/>
</linearGradient>
<linearGradient id="paint23_linear_330_7754" x1="202.254" y1="66.727" x2="276.496" y2="66.727" gradientUnits="userSpaceOnUse">
<stop stop-color="#19153E"/>
<stop offset="1" stop-color="#9288E2"/>
</linearGradient>
<linearGradient id="paint24_linear_330_7754" x1="207.608" y1="58.0331" x2="253.68" y2="58.0331" gradientUnits="userSpaceOnUse">
<stop stop-color="#211C4B"/>
<stop offset="1" stop-color="#9288E2"/>
</linearGradient>
<linearGradient id="paint25_linear_330_7754" x1="202.251" y1="76.8408" x2="276.493" y2="76.8408" gradientUnits="userSpaceOnUse">
<stop stop-color="#221E43"/>
<stop offset="1" stop-color="#9288E2"/>
</linearGradient>
<linearGradient id="paint26_linear_330_7754" x1="119.913" y1="105.707" x2="14.6066" y2="105.707" gradientUnits="userSpaceOnUse">
<stop stop-color="#FFDDBB"/>
<stop offset="1" stop-color="#FF786E"/>
</linearGradient>
<linearGradient id="paint27_linear_330_7754" x1="94.0327" y1="301.653" x2="94.0327" y2="90.8934" gradientUnits="userSpaceOnUse">
<stop stop-color="#9288E2"/>
<stop offset="1" stop-color="white"/>
</linearGradient>
<linearGradient id="paint28_linear_330_7754" x1="1.74227" y1="155.471" x2="5.53216" y2="217.959" gradientUnits="userSpaceOnUse">
<stop stop-color="#393277"/>
<stop offset="1" stop-color="#9288E2"/>
</linearGradient>
<linearGradient id="paint29_linear_330_7754" x1="35.4173" y1="208.728" x2="200.744" y2="208.728" gradientUnits="userSpaceOnUse">
<stop stop-color="#393277"/>
<stop offset="1" stop-color="#9288E2"/>
</linearGradient>
<linearGradient id="paint30_linear_330_7754" x1="47.6695" y1="81.3965" x2="80.425" y2="81.3965" gradientUnits="userSpaceOnUse">
<stop stop-color="#FFDDBB"/>
<stop offset="1" stop-color="#FF786E"/>
</linearGradient>
<linearGradient id="paint31_linear_330_7754" x1="153.623" y1="301.653" x2="153.623" y2="90.8938" gradientUnits="userSpaceOnUse">
<stop stop-color="#9288E2"/>
<stop offset="1" stop-color="white"/>
</linearGradient>
<linearGradient id="paint32_linear_330_7754" x1="42.006" y1="89.0186" x2="134.899" y2="89.0186" gradientUnits="userSpaceOnUse">
<stop stop-color="#393277"/>
<stop offset="1" stop-color="#9288E2"/>
</linearGradient>
<linearGradient id="paint33_linear_330_7754" x1="90.3336" y1="70.8397" x2="90.3336" y2="32.6806" gradientUnits="userSpaceOnUse">
<stop stop-color="#FFDDBB"/>
<stop offset="1" stop-color="#FF786E"/>
</linearGradient>
<linearGradient id="paint34_linear_330_7754" x1="90.5184" y1="4.14179" x2="3.86081" y2="4.14179" gradientUnits="userSpaceOnUse">
<stop stop-color="#151233"/>
<stop offset="1" stop-color="#E29E88"/>
</linearGradient>
<linearGradient id="paint35_linear_330_7754" x1="110.728" y1="43.5348" x2="102.372" y2="15.4285" gradientUnits="userSpaceOnUse">
<stop stop-color="#393277"/>
<stop offset="1" stop-color="#9288E2"/>
</linearGradient>
<linearGradient id="paint36_linear_330_7754" x1="84.0197" y1="10.4483" x2="17.1768" y2="10.4483" gradientUnits="userSpaceOnUse">
<stop stop-color="#FFBB00"/>
<stop offset="1" stop-color="#FFFF95"/>
</linearGradient>
<linearGradient id="paint37_linear_330_7754" x1="73.8019" y1="37.1657" x2="73.8019" y2="58.3015" gradientUnits="userSpaceOnUse">
<stop stop-color="#FFDDBB"/>
<stop offset="1" stop-color="#FF786E"/>
</linearGradient>
<linearGradient id="paint38_linear_330_7754" x1="186.581" y1="96.8635" x2="67.11" y2="157.342" gradientUnits="userSpaceOnUse">
<stop stop-color="#FFDDBB"/>
<stop offset="1" stop-color="#FF786E"/>
</linearGradient>
<linearGradient id="paint39_linear_330_7754" x1="168.335" y1="301.653" x2="168.335" y2="90.8935" gradientUnits="userSpaceOnUse">
<stop stop-color="#393277"/>
<stop offset="1" stop-color="white"/>
</linearGradient>
<linearGradient id="paint40_linear_330_7754" x1="53.3109" y1="217.835" x2="88.3122" y2="156.174" gradientUnits="userSpaceOnUse">
<stop stop-color="#FFBB00"/>
<stop offset="1" stop-color="#FFFF95"/>
</linearGradient>
<linearGradient id="paint41_linear_330_7754" x1="124.81" y1="98.1187" x2="-45.3933" y2="98.1187" gradientUnits="userSpaceOnUse">
<stop stop-color="#FFBB00"/>
<stop offset="1" stop-color="#FFFF95"/>
</linearGradient>
</defs>
<path d="M213.931 175.045C170.007 204.775 66.408 203.362 29.0318 128.462C-8.34443 53.5633 41.8203 23.7025 93.2898 32.5879C132.995 39.4456 148.062 42.3974 165.142 24.1917C185.218 2.79236 234.556 -1.17059 250.702 56.4852C266.847 114.141 250.702 150.164 213.931 175.045Z" fill="url(#paint0_linear_330_7754)"/>
<path d="M92.9181 184.153V105.973H82.0703V179.633C85.6219 181.3 89.2379 182.807 92.9181 184.153Z" fill="url(#paint1_linear_330_7754)"/>
<path d="M70.4844 173.392C74.233 175.674 78.1009 177.754 82.0715 179.622V105.962L70.4871 108.384L70.4844 173.392Z" fill="url(#paint2_linear_330_7754)"/>
<path d="M205.972 179.758L27.5469 125.413C28.028 126.421 28.5199 127.435 29.0309 128.463C32.318 135.066 36.2619 141.321 40.8029 147.133L177.832 189.646C188.242 187.36 197.802 184.001 205.972 179.758Z" fill="url(#paint3_linear_330_7754)"/>
<path d="M247.947 138.104L80.3155 103.174L27.5469 125.413L205.972 179.758C208.714 178.342 211.371 176.768 213.931 175.045C229.002 164.841 240.606 152.77 247.947 138.104Z" fill="url(#paint4_linear_330_7754)"/>
<path d="M240.004 32.3784C218.752 0.669389 181.824 6.39909 165.141 24.1916C163.079 26.4207 160.834 28.4728 158.43 30.3263V90.8088L240.004 104.481V32.3784Z" fill="url(#paint5_linear_330_7754)"/>
<path d="M233.199 23.9581C211.574 1.94172 180.172 8.17969 165.149 24.1919L164.953 24.3984V85.4572L233.199 96.8895V23.9581Z" fill="url(#paint6_linear_330_7754)"/>
<path d="M187.711 163.605V128.525L225.324 135.804V174.08L187.711 163.605Z" fill="url(#paint7_linear_330_7754)"/>
<path d="M225.328 135.804V174.08L251.655 157.296V121.877L225.328 135.804Z" fill="url(#paint8_linear_330_7754)"/>
<path d="M251.651 121.877L225.324 135.804L187.711 128.525L218.673 116.185L251.651 121.877Z" fill="url(#paint9_linear_330_7754)"/>
<path d="M199.883 130.879V143.314L208.42 145.133V132.532L199.883 130.879Z" fill="white"/>
<path d="M208.42 132.532L236.541 119.27L227.838 117.767L199.883 130.879L208.42 132.532Z" fill="url(#paint10_linear_330_7754)"/>
<path d="M176.084 134.97L91.935 114.568L66.8281 125.538L152.216 148.413L176.084 134.97Z" fill="url(#paint11_linear_330_7754)"/>
<path d="M66.8281 125.538L152.216 148.413V151.281L66.8281 127.482V125.538Z" fill="url(#paint12_linear_330_7754)"/>
<path d="M152.219 148.413V151.281L176.086 137.764V134.97L152.219 148.413Z" fill="url(#paint13_linear_330_7754)"/>
<path d="M148.503 84.8999H145.567V108.615C145.571 111.834 143.757 114.779 140.882 116.226L133.828 119.759V122.205L152.276 125.946C152.276 125.946 165.143 120.055 165.143 116.16L166.086 89.7517L148.503 84.8999Z" fill="url(#paint14_linear_330_7754)"/>
<path d="M166.084 89.7434H164.01V113.469C164.013 116.688 162.2 119.634 159.324 121.08L152.273 124.614V127.06L160.428 122.638C163.882 120.833 166.047 117.258 166.046 113.361L166.084 89.7434Z" fill="url(#paint15_linear_330_7754)"/>
<path d="M152.273 124.608L133.828 119.765V122.2L152.273 127.044V124.608Z" fill="url(#paint16_linear_330_7754)"/>
<path d="M206.231 110.352L112.172 95.0085C109.929 94.6415 108.133 92.4018 108.133 90.0018V36.8743C108.133 34.4715 109.929 32.5254 112.172 32.5254H206.231C209.764 32.5254 212.645 35.0097 212.645 38.073V105.859C212.645 108.914 209.753 110.928 206.231 110.352Z" fill="url(#paint17_linear_330_7754)"/>
<path d="M204.267 110.352L110.208 95.0085C107.969 94.6415 106.172 92.4018 106.172 90.0018V36.8743C106.172 34.4715 107.969 32.5254 110.208 32.5254H204.267C207.801 32.5254 210.685 35.0097 210.685 38.073V105.859C210.685 108.914 207.79 110.928 204.267 110.352Z" fill="url(#paint18_linear_330_7754)"/>
<path d="M171.953 58.4019L202.412 59.6658" stroke="white" stroke-width="5" stroke-linecap="round" stroke-linejoin="round"/>
<path d="M171.953 70.8562L202.412 73.1856" stroke="white" stroke-width="5" stroke-linecap="round" stroke-linejoin="round"/>
<path d="M171.953 82.6716L192.616 85.0037" stroke="white" stroke-width="5" stroke-linecap="round" stroke-linejoin="round"/>
<path d="M164.02 41.5823C164.02 39.191 162.081 37.2524 159.69 37.2524H114.546C112.665 37.2524 111.156 38.8833 111.156 40.9028V85.4792C111.156 87.496 112.665 89.3769 114.546 89.6841L159 96.944C160.253 97.1481 161.533 96.7917 162.5 95.9692C163.468 95.1467 164.025 93.941 164.025 92.6712L164.02 41.5823Z" fill="white"/>
<path d="M152.099 50.3428C152.108 49.6474 151.839 48.977 151.354 48.4794C150.868 47.9818 150.204 47.6978 149.508 47.6899H121.852C120.675 47.6899 119.727 48.7174 119.727 49.984V77.9801C119.727 79.2468 120.675 80.4047 121.852 80.5678L149.093 84.3323C149.861 84.4212 150.631 84.1758 151.206 83.6584C151.781 83.1409 152.106 82.4014 152.099 81.6278V50.3428Z" fill="url(#paint19_linear_330_7754)"/>
<path d="M129.211 47.6924V56.1184C129.211 56.7642 129.713 57.2986 130.358 57.3388L139.2 57.8824C139.537 57.9034 139.867 57.7843 140.113 57.5532C140.359 57.3221 140.499 56.9996 140.499 56.662V47.6924H129.211Z" fill="url(#paint20_linear_330_7754)"/>
<path d="M240.552 5.36941C240.552 2.91202 238.56 0.919922 236.102 0.919922H198.865C197.204 0.919922 195.875 2.36865 195.875 4.15443V43.6888C195.875 45.4746 197.21 47.0782 198.865 47.2658L235.608 51.4598C236.868 51.6039 238.13 51.2033 239.076 50.3588C240.022 49.5142 240.563 48.3059 240.563 47.0375L240.552 5.36941Z" fill="url(#paint21_linear_330_7754)"/>
<path d="M228.5 34.2654C228.514 34.8282 228.287 35.3702 227.875 35.7546C227.464 36.1389 226.908 36.329 226.347 36.2768C225.149 36.1497 224.237 35.144 224.227 33.9392C224.215 33.3829 224.438 32.8472 224.842 32.4641C225.245 32.0811 225.792 31.8863 226.347 31.9279C227.558 32.0394 228.488 33.0493 228.5 34.2654Z" fill="url(#paint22_linear_330_7754)"/>
<path d="M219.759 16.6631H208.789C207.658 16.6631 206.75 17.6715 206.75 18.9191V30.3513C206.75 31.5962 207.658 32.6753 208.789 32.7622L211.466 32.9661C211.466 31.376 212.654 30.1583 214.135 30.248C215.616 30.3377 216.886 31.7457 216.886 33.3792L222.05 33.7734V19.0958C222.087 17.7922 221.062 16.7045 219.759 16.6631V16.6631Z" fill="url(#paint23_linear_330_7754)"/>
<path d="M216.067 33.3168C216.067 34.4666 215.197 35.3228 214.137 35.2331C213.077 35.1434 212.234 34.1459 212.234 33.026C212.234 31.9062 213.08 31.0364 214.137 31.107C215.194 31.1777 216.067 32.1671 216.067 33.3168Z" fill="url(#paint24_linear_330_7754)"/>
<path fill-rule="evenodd" clip-rule="evenodd" d="M228.842 24.4966L231.288 33.352C231.372 33.6139 231.318 33.9005 231.145 34.1142C230.972 34.3279 230.703 34.4399 230.429 34.4121L229.386 34.3333C229.379 32.608 228.06 31.1715 226.341 31.0172C225.556 30.961 224.783 31.2392 224.214 31.7832C223.644 32.3273 223.331 33.0866 223.352 33.8739L222.047 33.7733V22.2949L226.214 22.3982C227.454 22.4489 228.518 23.2983 228.842 24.4966ZM223.967 27.4865L227.277 27.6441H227.274C227.399 27.6519 227.519 27.5947 227.591 27.493C227.664 27.3912 227.679 27.2593 227.631 27.144L226.815 24.7983C226.689 24.4323 226.354 24.1795 225.967 24.1595L223.967 24.0943C223.834 24.0913 223.707 24.1425 223.613 24.2359C223.52 24.3293 223.469 24.4569 223.472 24.589V26.9429C223.471 27.225 223.686 27.4611 223.967 27.4865Z" fill="url(#paint25_linear_330_7754)"/>
<ellipse cx="152.096" cy="48.296" rx="7.08058" ry="8.06452" fill="#393277"/>
<path d="M148.867 48.1058L151.202 50.7641L155.279 46.1216" stroke="white" stroke-width="2" stroke-linecap="round" stroke-linejoin="round"/>
<path d="M46.0085 121.04L45.0599 133.494C45.0599 133.494 57.7887 135.057 69.2698 135.165C80.7509 135.274 86.3475 134.706 87.4075 136.796C87.4075 136.796 89.8538 137.193 89.7179 139.471C89.7179 139.471 91.3025 139.781 91.24 141.414C92.112 142.329 92.2768 143.709 91.645 144.804C90.5713 146.758 88.492 150.512 87.9239 149.832C87.3559 149.153 88.3615 145.777 88.3615 145.777C88.3615 145.777 82.4796 146.799 78.7994 145.725C75.1191 144.652 53.8801 151.523 42.8746 151.362C31.8691 151.202 24.1797 147.867 24.1797 138.068C24.1797 128.27 25.9981 115.584 25.9981 115.584L46.0085 121.04Z" fill="url(#paint26_linear_330_7754)"/>
<path d="M45.7386 126.177C45.7386 126.177 52.1994 94.8591 47.0976 88.0259C41.9958 81.1926 29.8895 78.9013 26.7392 97.9767C23.589 117.052 23.4042 123.91 25.3014 125.571C28.294 128.183 41.232 131.183 45.7386 126.177Z" fill="url(#paint27_linear_330_7754)"/>
<path d="M44.4922 153.393C44.4922 153.393 80.9633 149.316 94.8853 148.414C108.807 147.511 117.78 152.727 119.139 168.416L61.5155 178.057L44.4922 153.393Z" fill="url(#paint28_linear_330_7754)"/>
<path d="M34.8057 163.567C34.8057 163.567 31.0629 185.151 50.1112 193.123C68.787 200.94 98.096 203.876 120.509 184.105L122.839 191.577C122.839 191.577 137.353 193.854 151.332 192.998C151.332 192.998 149.294 173.594 143.482 163.567C141.482 160.115 134.912 152.727 117.615 155.788C113.119 156.584 94.2663 161.988 94.2663 161.988C91.3498 162.018 56.6074 153.214 53.7887 152.879C36.5616 150.841 34.8057 163.567 34.8057 163.567Z" fill="url(#paint29_linear_330_7754)"/>
<path d="M55.8047 75.4822C57.6208 71.1647 58.3928 66.4796 58.058 61.8076H78.7398C78.7398 61.8076 76.9024 71.0029 82.874 77.3496C82.874 77.3496 64.0921 83.3402 55.8047 75.4822Z" fill="url(#paint30_linear_330_7754)"/>
<path d="M33.55 147.639C36.1213 118.798 31.949 106.101 29.9512 98.6784C27.9534 91.2553 28.4536 86.6319 39.5922 80.8532C50.7309 75.0746 49.8258 75.4905 49.8258 75.4905L87.7103 79.1055C87.7103 79.1055 105.859 85.1967 108.463 92.049C109.642 95.1639 99.8492 112.217 99.8492 132.491C99.8492 153.997 103.905 167.579 101.678 170.001C95.8618 176.323 38.2142 175.942 32.9792 166.774C31.1662 163.594 32.3377 161.308 33.55 147.639Z" fill="url(#paint31_linear_330_7754)"/>
<path d="M47.8281 76.5803C47.8281 76.5803 53.9438 72.756 55.0201 72.37C56.0965 71.9841 60.8776 75.3817 70.63 74.6668C79.7356 73.9982 79.8389 72.4679 81.0403 73.2126C83.2501 74.5853 87.7104 79.1054 87.7104 79.1054C87.7104 79.1054 63.1716 87.8957 47.8281 76.5803Z" fill="url(#paint32_linear_330_7754)"/>
<path d="M87.2397 39.0273C87.8079 41.714 88.1713 44.4399 88.3269 47.1816C88.3813 48.1628 92.4312 49.5517 90.0366 51.786C89.2211 52.5389 88.3459 52.4764 88.2372 53.6016C87.5713 60.5056 88.2236 70.6086 79.1915 68.9261C79.1915 68.9261 63.4266 64.8327 60.5183 61.8075C53.2311 54.2159 55.5768 41.2507 59.5588 35.4422C65.1363 27.3451 84.2281 27.7827 87.2397 39.0273Z" fill="url(#paint33_linear_330_7754)"/>
<path d="M74.316 60.3588C74.6699 59.3712 74.3097 58.2693 73.4408 57.6815C71.7229 56.5046 69.2712 54.0909 69.9942 50.2122C71.0815 44.3956 77.3466 43.928 79.464 48.6629L82.7801 48.7553C82.7801 48.7553 82.0679 43.2431 85.7346 40.8376C89.4013 38.4321 94.5221 35.1296 93.2854 32.5882C92.0487 30.0468 89.8416 29.9381 89.8416 29.9381C89.8416 29.9381 85.9602 25.1543 80.0756 24.8907C74.191 24.627 72.2611 23.9747 66.3901 24.2682C60.519 24.5618 56.3767 28.4242 56.5479 33.1672C56.5479 33.1672 48.8096 32.9226 47.8501 43.89C46.8906 54.8574 56.2761 66.344 56.2761 66.344C56.2761 66.344 62.1037 70.3912 70.3177 68.3499C71.07 68.1678 71.6817 67.6223 71.9485 66.8958L74.316 60.3588Z" fill="url(#paint34_linear_330_7754)"/>
<path d="M77.6802 44.5235C77.6802 44.5235 92.9558 39.9871 97.4678 36.209C101.98 32.4308 94.7959 23.6596 85.973 24.6164C80.7842 25.179 72.9453 27.8155 72.9453 27.8155L77.6802 44.5235Z" fill="url(#paint35_linear_330_7754)"/>
<path fill-rule="evenodd" clip-rule="evenodd" d="M51.9899 25.5158C59.1086 17.4377 75.8927 16.3722 83.7914 24.7765C86.8628 28.0491 88.3577 33.8956 88.9313 36.7496C89.1415 37.7924 88.7241 38.862 87.8631 39.4867C85.395 41.267 79.524 44.7924 69.8748 46.5048C59.0325 48.4319 52.3378 47.6273 49.348 46.994C48.2233 46.7516 47.373 45.8273 47.2251 44.6864C46.7386 40.8974 46.3472 31.9277 51.9899 25.5158ZM57.7377 46.1308C57.9752 45.8728 58.0876 45.5237 58.0451 45.1756C57.4553 40.4217 54.7997 37.3911 51.0923 38.7148C48.6025 39.6009 48.4884 42.9767 48.5862 44.6076C48.6232 45.1378 49.0049 45.5804 49.5239 45.6948C50.7896 45.979 52.0699 46.1932 53.3591 46.3362C54.0631 46.4096 55.6532 46.4776 56.8111 46.5156C57.1615 46.5294 57.5002 46.3887 57.7377 46.1308Z" fill="url(#paint36_linear_330_7754)"/>
<path d="M72.9453 49.9189C72.9453 49.9189 76.5685 49.9189 77.2426 53.7107" stroke="#382824" stroke-width="2" stroke-linecap="round" stroke-linejoin="round"/>
<circle cx="84.3698" cy="57.4616" r="2.29949" fill="url(#paint37_linear_330_7754)"/>
<path d="M115.629 122.301L118.108 134.532C118.108 134.532 130.782 132.567 141.859 129.542C152.935 126.517 158.167 124.451 159.754 126.171C159.754 126.171 162.201 125.9 162.706 128.115C162.706 128.115 164.313 127.982 164.701 129.569C165.79 130.211 166.323 131.495 166.011 132.719C165.511 134.894 164.53 139.06 163.802 138.574C163.073 138.087 163.119 134.551 163.119 134.551C163.119 134.551 157.735 137.136 153.902 137.106C150.07 137.076 131.503 149.465 120.875 152.327C110.247 155.189 101.925 154.059 99.2718 144.624C96.619 135.19 94.8984 122.494 94.8984 122.494L115.629 122.301Z" fill="url(#paint38_linear_330_7754)"/>
<path d="M118.063 127.471C118.063 127.471 114.45 95.4273 107.691 90.233C100.931 85.0388 88.6287 86.1559 90.8005 105.351C92.9722 124.546 94.6547 131.213 96.9352 132.295C100.526 134.002 115.905 131.643 118.063 127.471Z" fill="url(#paint39_linear_330_7754)"/>
<path d="M116.977 129.349L119.151 141.86" stroke="white" stroke-width="2" stroke-linecap="round" stroke-linejoin="round"/>
<path d="M102.522 196.915C102.522 196.915 64.9505 130.866 57.6661 124.913C47.8974 116.933 2.21742 106.202 0.0782988 117.574C-1.39218 125.405 20.5481 183.811 28.2294 190.019C42.3117 201.402 102.732 208.374 102.522 196.915Z" fill="url(#paint40_linear_330_7754)"/>
<path d="M121.456 191.373C131.341 182.879 132.901 174.273 132.901 174.273L109.208 186.942C103.962 189.749 97.4357 187.885 94.4625 182.732C85.0226 166.394 65.6699 133.372 58.4262 124.886C45.885 110.162 2.20018 106.21 0.0692089 117.572C0.0169396 117.884 -0.00581126 118.201 0.00125712 118.517C0.544872 118.015 1.28419 118.001 2.20018 118.012C10.2103 118.091 37.1736 119.371 47.8149 131.235C53.9305 138.047 76.3302 181.098 87.284 202.721C101.138 202.267 114.631 197.238 121.456 191.373Z" fill="url(#paint41_linear_330_7754)"/>

</svg>
