<svg width="250" height="199" viewBox="0 0 250 199" fill="none" xmlns="http://www.w3.org/2000/svg">
<defs>
<linearGradient id="paint0_linear_539_12496" x1="-69.6491" y1="-94.975" x2="-68.9717" y2="204.19" gradientUnits="userSpaceOnUse">
<stop stop-color="#9288E2"/>
<stop offset="1" stop-color="white"/>
</linearGradient>
<linearGradient id="paint1_linear_539_12496" x1="240.494" y1="88.3923" x2="240.494" y2="-17.7944" gradientUnits="userSpaceOnUse">
<stop stop-color="#FFBB00"/>
<stop offset="1" stop-color="#FFFF95"/>
</linearGradient>
<linearGradient id="paint2_linear_539_12496" x1="257.159" y1="123.588" x2="257.159" y2="35.5399" gradientUnits="userSpaceOnUse">
<stop stop-color="#FFBB00"/>
<stop offset="1" stop-color="#FFFF95"/>
</linearGradient>
<linearGradient id="paint3_linear_539_12496" x1="130.69" y1="91.9131" x2="130.69" y2="147.055" gradientUnits="userSpaceOnUse">
<stop stop-color="#9288E2"/>
<stop offset="1" stop-color="white"/>
</linearGradient>
<linearGradient id="paint4_linear_539_12496" x1="1146.24" y1="159.069" x2="1146.22" y2="67.3394" gradientUnits="userSpaceOnUse">
<stop stop-color="#9288E2"/>
<stop offset="1" stop-color="white"/>
</linearGradient>
<linearGradient id="paint5_linear_539_12496" x1="28.2319" y1="100.815" x2="2.2341" y2="100.815" gradientUnits="userSpaceOnUse">
<stop stop-color="#1B1D31"/>
<stop offset="1" stop-color="#594EAC"/>
</linearGradient>
<linearGradient id="paint6_linear_539_12496" x1="42.1852" y1="109.147" x2="24.599" y2="109.147" gradientUnits="userSpaceOnUse">
<stop stop-color="#1B1D31"/>
<stop offset="1" stop-color="#594EAC"/>
</linearGradient>
<linearGradient id="paint7_linear_539_12496" x1="140.276" y1="57.5545" x2="18.4742" y2="57.5545" gradientUnits="userSpaceOnUse">
<stop stop-color="#393277"/>
<stop offset="1" stop-color="#9288E2"/>
</linearGradient>
<linearGradient id="paint8_linear_539_12496" x1="77.7528" y1="94.4732" x2="43.0048" y2="94.4732" gradientUnits="userSpaceOnUse">
<stop stop-color="#1B1D31"/>
<stop offset="1" stop-color="#594EAC"/>
</linearGradient>
<linearGradient id="paint9_linear_539_12496" x1="93.9066" y1="104.082" x2="67.8437" y2="104.082" gradientUnits="userSpaceOnUse">
<stop stop-color="#1B1D31"/>
<stop offset="1" stop-color="#594EAC"/>
</linearGradient>
<linearGradient id="paint10_linear_539_12496" x1="94.3753" y1="96.5079" x2="55.6507" y2="96.5079" gradientUnits="userSpaceOnUse">
<stop stop-color="#9288E2"/>
<stop offset="1" stop-color="white"/>
</linearGradient>
<linearGradient id="paint11_linear_539_12496" x1="142.097" y1="95.4868" x2="108.742" y2="95.4868" gradientUnits="userSpaceOnUse">
<stop stop-color="#1B1D31"/>
<stop offset="1" stop-color="#594EAC"/>
</linearGradient>
<linearGradient id="paint12_linear_539_12496" x1="157.386" y1="104.498" x2="132.018" y2="104.498" gradientUnits="userSpaceOnUse">
<stop stop-color="#1B1D31"/>
<stop offset="1" stop-color="#594EAC"/>
</linearGradient>
<linearGradient id="paint13_linear_539_12496" x1="167.701" y1="93.9643" x2="124.721" y2="93.9643" gradientUnits="userSpaceOnUse">
<stop stop-color="#9288E2"/>
<stop offset="1" stop-color="white"/>
</linearGradient>
<linearGradient id="paint14_linear_539_12496" x1="294.705" y1="19.5588" x2="63.0419" y2="19.5588" gradientUnits="userSpaceOnUse">
<stop stop-color="#393277"/>
<stop offset="1" stop-color="#9288E2"/>
</linearGradient>
<linearGradient id="paint15_linear_539_12496" x1="307.018" y1="89.8157" x2="28.9606" y2="89.8157" gradientUnits="userSpaceOnUse">
<stop stop-color="#9288E2"/>
<stop offset="1" stop-color="white"/>
</linearGradient>
<linearGradient id="paint16_linear_539_12496" x1="93.4978" y1="38.628" x2="26.0383" y2="38.628" gradientUnits="userSpaceOnUse">
<stop stop-color="#1B1D31"/>
<stop offset="1" stop-color="#594EAC"/>
</linearGradient>
<linearGradient id="paint17_linear_539_12496" x1="69.4127" y1="105.908" x2="-76.8685" y2="105.908" gradientUnits="userSpaceOnUse">
<stop stop-color="#1B1D31"/>
<stop offset="1" stop-color="#594EAC"/>
</linearGradient>
<linearGradient id="paint18_linear_539_12496" x1="46.3055" y1="92.925" x2="-26.6724" y2="92.925" gradientUnits="userSpaceOnUse">
<stop stop-color="#1B1D31"/>
<stop offset="1" stop-color="#594EAC"/>
</linearGradient>
<linearGradient id="paint19_linear_539_12496" x1="13.3574" y1="103.659" x2="12.4186" y2="85.6312" gradientUnits="userSpaceOnUse">
<stop stop-color="white"/>
<stop offset="1" stop-color="#E2E2FF"/>
</linearGradient>
<linearGradient id="paint20_linear_539_12496" x1="19.8568" y1="94.3381" x2="19.3198" y2="119.897" gradientUnits="userSpaceOnUse">
<stop stop-color="white"/>
<stop offset="1" stop-color="#E2E2FF"/>
</linearGradient>
<linearGradient id="paint21_linear_539_12496" x1="31.7159" y1="125.374" x2="52.0444" y2="125.374" gradientUnits="userSpaceOnUse">
<stop stop-color="#FFDDBB"/>
<stop offset="1" stop-color="#FF786E"/>
</linearGradient>
<linearGradient id="paint22_linear_539_12496" x1="80.8838" y1="50.6218" x2="-5.66721" y2="50.6218" gradientUnits="userSpaceOnUse">
<stop stop-color="#1B1D31"/>
<stop offset="1" stop-color="#594EAC"/>
</linearGradient>
<linearGradient id="paint23_linear_539_12496" x1="51.4932" y1="278.474" x2="299.18" y2="278.474" gradientUnits="userSpaceOnUse">
<stop stop-color="#FFDDBB"/>
<stop offset="1" stop-color="#FF786E"/>
</linearGradient>
<linearGradient id="paint24_linear_539_12496" x1="183.107" y1="152.615" x2="181.908" y2="21.3448" gradientUnits="userSpaceOnUse">
<stop stop-color="#1B1D31"/>
<stop offset="1" stop-color="#594EAC"/>
</linearGradient>
<linearGradient id="paint25_linear_539_12496" x1="113.854" y1="21.01" x2="113.854" y2="146.273" gradientUnits="userSpaceOnUse">
<stop stop-color="#FFBB00"/>
<stop offset="1" stop-color="#FFFF95"/>
</linearGradient>
<linearGradient id="paint26_linear_539_12496" x1="51.492" y1="178.552" x2="299.179" y2="178.552" gradientUnits="userSpaceOnUse">
<stop stop-color="#FFDDBB"/>
<stop offset="1" stop-color="#FF786E"/>
</linearGradient>
<linearGradient id="paint27_linear_539_12496" x1="122.056" y1="101.443" x2="133.59" y2="83.6583" gradientUnits="userSpaceOnUse">
<stop stop-color="#FFA48F"/>
<stop offset="1" stop-color="white"/>
</linearGradient>
<linearGradient id="paint28_linear_539_12496" x1="77.2802" y1="147.97" x2="134.437" y2="147.97" gradientUnits="userSpaceOnUse">
<stop stop-color="#FFDDBB"/>
<stop offset="1" stop-color="#FF786E"/>
</linearGradient>
<linearGradient id="paint29_linear_539_12496" x1="51.4929" y1="178.342" x2="299.179" y2="178.342" gradientUnits="userSpaceOnUse">
<stop stop-color="#FFDDBB"/>
<stop offset="1" stop-color="#FF786E"/>
</linearGradient>
<linearGradient id="paint30_linear_539_12496" x1="138.075" y1="135.507" x2="142.744" y2="106.675" gradientUnits="userSpaceOnUse">
<stop stop-color="#FFA48F"/>
<stop offset="1" stop-color="white"/>
</linearGradient>
<linearGradient id="paint31_linear_539_12496" x1="125.719" y1="148.948" x2="131.256" y2="124.762" gradientUnits="userSpaceOnUse">
<stop stop-color="#FFA48F"/>
<stop offset="1" stop-color="white"/>
</linearGradient>
<linearGradient id="paint32_linear_539_12496" x1="76.6762" y1="118.967" x2="161.954" y2="118.967" gradientUnits="userSpaceOnUse">
<stop stop-color="#FFDDBB"/>
<stop offset="1" stop-color="#FF786E"/>
</linearGradient>
<linearGradient id="paint33_linear_539_12496" x1="144.485" y1="126.345" x2="150.856" y2="94.8615" gradientUnits="userSpaceOnUse">
<stop stop-color="#FFA48F"/>
<stop offset="1" stop-color="white"/>
</linearGradient>
<linearGradient id="paint34_linear_539_12496" x1="116.596" y1="55.0351" x2="136.456" y2="55.0351" gradientUnits="userSpaceOnUse">
<stop stop-color="#1B1D31"/>
<stop offset="1" stop-color="#594EAC"/>
</linearGradient>
<linearGradient id="paint35_linear_539_12496" x1="90.0279" y1="44.1931" x2="192.035" y2="44.1931" gradientUnits="userSpaceOnUse">
<stop stop-color="#9288E2"/>
<stop offset="1" stop-color="white"/>
</linearGradient>
<linearGradient id="paint36_linear_539_12496" x1="116.596" y1="63.3811" x2="136.456" y2="63.3811" gradientUnits="userSpaceOnUse">
<stop stop-color="#1B1D31"/>
<stop offset="1" stop-color="#594EAC"/>
</linearGradient>
<linearGradient id="paint37_linear_539_12496" x1="90.0279" y1="52.5422" x2="192.035" y2="52.5422" gradientUnits="userSpaceOnUse">
<stop stop-color="#9288E2"/>
<stop offset="1" stop-color="white"/>
</linearGradient>
<linearGradient id="paint38_linear_539_12496" x1="129.74" y1="61.6137" x2="167.075" y2="61.6137" gradientUnits="userSpaceOnUse">
<stop stop-color="#1B1D31"/>
<stop offset="1" stop-color="#594EAC"/>
</linearGradient>
<linearGradient id="paint39_linear_539_12496" x1="121.168" y1="62.1843" x2="167.079" y2="62.1843" gradientUnits="userSpaceOnUse">
<stop stop-color="#9288E2"/>
<stop offset="1" stop-color="white"/>
</linearGradient>
<linearGradient id="paint40_linear_539_12496" x1="109.173" y1="110.753" x2="-21.9249" y2="110.753" gradientUnits="userSpaceOnUse">
<stop stop-color="#51DDCC"/>
<stop offset="1" stop-color="#9288E2"/>
</linearGradient>
<linearGradient id="paint41_linear_539_12496" x1="84.0638" y1="157.844" x2="24.7371" y2="157.844" gradientUnits="userSpaceOnUse">
<stop stop-color="#51DDCC"/>
<stop offset="1" stop-color="#9288E2"/>
</linearGradient>
<linearGradient id="paint42_linear_539_12496" x1="51.4976" y1="325.123" x2="299.184" y2="325.123" gradientUnits="userSpaceOnUse">
<stop stop-color="#FFDDBB"/>
<stop offset="1" stop-color="#FF786E"/>
</linearGradient>
<linearGradient id="paint43_linear_539_12496" x1="173.719" y1="77.5325" x2="177.104" y2="63.2115" gradientUnits="userSpaceOnUse">
<stop stop-color="#FFA48F"/>
<stop offset="1" stop-color="white"/>
</linearGradient>
<linearGradient id="paint44_linear_539_12496" x1="151.68" y1="38.2327" x2="93.606" y2="38.2327" gradientUnits="userSpaceOnUse">
<stop stop-color="#393277"/>
<stop offset="1" stop-color="#9288E2"/>
</linearGradient>
<linearGradient id="paint45_linear_539_12496" x1="160.711" y1="79.8309" x2="135.685" y2="79.8309" gradientUnits="userSpaceOnUse">
<stop stop-color="#393277"/>
<stop offset="1" stop-color="#9288E2"/>
</linearGradient>
<linearGradient id="paint46_linear_539_12496" x1="142.675" y1="95.7795" x2="84.5982" y2="95.7795" gradientUnits="userSpaceOnUse">
<stop stop-color="#393277"/>
<stop offset="1" stop-color="#9288E2"/>
</linearGradient>
<linearGradient id="paint47_linear_539_12496" x1="82.7144" y1="-18.1559" x2="23.8748" y2="-18.1559" gradientUnits="userSpaceOnUse">
<stop stop-color="#1B1D31"/>
<stop offset="1" stop-color="#594EAC"/>
</linearGradient>
</defs>
<path d="M216.627 194.272H18.1857C18.1857 194.272 15.506 165.651 45.668 155.729C75.8299 145.807 90.562 122.822 35.2511 112.538C-20.0598 102.254 5.23235 4.05988 108.737 10.1277C172.488 13.8673 181.366 64.4411 202.955 69.7016C267.125 85.3347 258.328 165.503 216.627 194.272Z" fill="url(#paint0_linear_539_12496)"/>
<path d="M230.238 68.8946C230.106 81.0642 220.203 90.8602 208.033 90.8602C195.863 90.8602 185.96 81.0642 185.828 68.8946C185.828 56.6314 208.032 18.2271 208.032 18.2271C208.032 18.2271 230.238 56.6314 230.238 68.8946Z" fill="url(#paint1_linear_539_12496)"/>
<path d="M208.029 110.148V32.8755" stroke="#382824" stroke-width="2" stroke-linecap="round" stroke-linejoin="round"/>
<path d="M218.336 61.7019L207.922 72.1161" stroke="#382824" stroke-width="2" stroke-linecap="round" stroke-linejoin="round"/>
<path d="M201.141 48.5322L207.599 54.9933" stroke="#382824" stroke-width="2" stroke-linecap="round" stroke-linejoin="round"/>
<path d="M246.878 89.7596C246.764 98.874 239.343 106.203 230.228 106.203C221.113 106.203 213.692 98.874 213.578 89.7596C213.578 80.5641 230.229 51.7642 230.229 51.7642C230.229 51.7642 246.878 80.5641 246.878 89.7596Z" fill="url(#paint2_linear_539_12496)"/>
<path d="M230.232 120.692V62.7512" stroke="#382824" stroke-width="2" stroke-linecap="round" stroke-linejoin="round"/>
<path d="M237.958 84.3662L230.148 92.1736" stroke="#382824" stroke-width="2" stroke-linecap="round" stroke-linejoin="round"/>
<path d="M225.055 74.4912L229.899 79.335" stroke="#382824" stroke-width="2" stroke-linecap="round" stroke-linejoin="round"/>
<path d="M134.156 131.771H250.002C248.346 114.953 231.593 118.916 231.593 118.916C230.619 103.262 212.843 105.601 212.843 105.601C209.34 80.5275 179.485 72.5612 161.477 86.6943C143.469 100.827 153.349 119.429 153.349 119.429C138.758 120.036 135.065 128.299 134.156 131.771Z" fill="url(#paint3_linear_539_12496)"/>
<ellipse cx="87.7462" cy="131.354" rx="81.5431" ry="3.54173" fill="url(#paint4_linear_539_12496)"/>
<path d="M27.7059 108.119C22.3751 108.119 18.0547 113.283 18.0547 119.656C18.0547 126.028 22.3751 131.19 27.7059 131.19H33.9716V108.119H27.7059Z" fill="url(#paint5_linear_539_12496)"/>
<ellipse cx="34.1356" cy="119.656" rx="9.65121" ry="11.5341" fill="url(#paint6_linear_539_12496)"/>
<path d="M161.75 119.481H3.32031V94.7099C3.32064 92.2641 4.78565 90.0563 7.03913 89.1056L23.2634 82.2539L36.0787 60.7171C40.2295 53.7374 47.7501 49.4606 55.8707 49.4617H157.461L161.75 119.481Z" fill="url(#paint7_linear_539_12496)"/>
<path d="M75.9611 108.119C70.6329 108.119 66.3125 113.283 66.3125 119.656C66.3125 126.028 70.6329 131.19 75.9611 131.19H82.2294V108.119H75.9611Z" fill="url(#paint8_linear_539_12496)"/>
<ellipse cx="82.3934" cy="119.656" rx="9.65121" ry="11.5341" fill="url(#paint9_linear_539_12496)"/>
<ellipse cx="82.3933" cy="119.656" rx="6.82304" ry="8.15639" fill="white"/>
<ellipse cx="82.3933" cy="119.656" rx="6.03396" ry="7.21367" fill="url(#paint10_linear_539_12496)"/>
<ellipse cx="82.3881" cy="119.656" rx="4.09903" ry="4.90113" fill="white"/>
<path d="M142.354 108.119C137.024 108.119 132.703 113.283 132.703 119.656C132.703 126.028 137.024 131.19 142.354 131.19H148.623V108.119H142.354Z" fill="url(#paint11_linear_539_12496)"/>
<ellipse cx="148.792" cy="119.656" rx="9.65121" ry="11.5341" fill="url(#paint12_linear_539_12496)"/>
<ellipse cx="148.784" cy="119.656" rx="6.82304" ry="8.15639" fill="white"/>
<ellipse cx="148.784" cy="119.656" rx="6.03396" ry="7.21367" fill="url(#paint13_linear_539_12496)"/>
<ellipse cx="148.787" cy="119.656" rx="4.09903" ry="4.90113" fill="white"/>
<path d="M159.268 49.4617H99.8915C91.6903 49.4636 84.1093 53.8285 79.9902 60.9202L67.5759 82.2748L51.3516 89.1264C49.0982 90.0771 47.6331 92.2849 47.6328 94.7307V119.502H67.3545C67.2858 114.469 69.9314 109.789 74.2788 107.252C78.6263 104.716 84.0025 104.716 88.35 107.252C92.6974 109.789 95.343 114.469 95.2743 119.502H133.817C133.748 114.469 136.393 109.789 140.741 107.252C145.088 104.716 150.465 104.716 154.812 107.252C159.16 109.789 161.805 114.469 161.736 119.502H166.533C169.894 119.501 172.617 116.776 172.617 113.416V95.7073L167.408 56.5894C166.871 52.5058 163.386 49.4552 159.268 49.4617Z" fill="url(#paint14_linear_539_12496)"/>
<path d="M47.6406 105.28H172.612V95.689H47.6406V105.28Z" fill="url(#paint15_linear_539_12496)"/>
<path d="M70.5781 82.2541L82.9585 61.4334C84.1037 59.501 86.1812 58.3139 88.4274 58.3083H93.3754C94.0958 58.3083 94.7867 58.5945 95.296 59.1039C95.8054 59.6133 96.0916 60.3042 96.0916 61.0245V79.5327C96.0916 80.2528 95.8053 80.9434 95.2959 81.4524C94.7864 81.9614 94.0955 82.247 93.3754 82.2463L70.5781 82.2541Z" fill="url(#paint16_linear_539_12496)"/>
<rect y="111.281" width="64.2589" height="8.41942" rx="4.20971" fill="url(#paint17_linear_539_12496)"/>
<rect x="2.33594" y="95.689" width="46.2873" height="9.59131" rx="3.84" fill="url(#paint18_linear_539_12496)"/>
<rect x="3.32031" y="96.7673" width="5.79177" height="7.43503" rx="2.02" fill="url(#paint19_linear_539_12496)"/>
<rect x="34.9531" y="96.7673" width="12.6877" height="7.43503" rx="2.98" fill="url(#paint20_linear_539_12496)"/>
<path d="M46.8646 96.7673H44.6094V104.202H46.8646C47.2961 104.202 47.6459 103.853 47.6459 103.421V97.546C47.6445 97.1155 47.2951 96.7673 46.8646 96.7673Z" fill="url(#paint21_linear_539_12496)"/>
<path d="M39.1591 59.4568L25.6172 82.2541H64.7637L78.1702 59.7068C78.3391 59.424 78.3438 59.0724 78.1824 58.7852C78.0211 58.4979 77.7184 58.319 77.3889 58.3162H41.1617C40.3404 58.3192 39.5807 58.752 39.1591 59.4568Z" fill="url(#paint22_linear_539_12496)"/>
<path fill-rule="evenodd" clip-rule="evenodd" d="M159.66 82.254H103.721C102.283 82.254 101.117 81.0881 101.117 79.6498V60.9177C101.117 59.4794 102.283 58.3135 103.721 58.3135H157.246C158.553 58.3156 159.655 59.2859 159.824 60.5817L162.238 79.3321C162.329 80.0714 162.099 80.8143 161.606 81.3728C161.113 81.9313 160.405 82.2521 159.66 82.254Z" stroke="white" stroke-width="2"/>
<rect x="83.4766" y="89.2959" width="12.6304" height="3.30474" rx="1.65237" fill="white"/>
<rect x="101.125" y="89.2959" width="12.6304" height="3.30474" rx="1.65237" fill="white"/>
<rect x="10.625" y="98.0095" width="22.8051" height="1.06512" fill="white"/>
<rect x="10.625" y="99.9521" width="22.8051" height="1.06512" fill="white"/>
<rect x="10.625" y="101.895" width="22.8051" height="1.06512" fill="white"/>
<path d="M131.911 193.646H202.274C202.274 193.646 192.36 159.01 194.55 141.966C195.027 138.262 198.347 103.249 196.168 101.285C193.988 99.3216 119.341 69.4773 113.682 67.571C108.023 65.6648 96.895 71.3315 106.489 83.9776C106.489 83.9776 99.2935 85.2797 97.9862 91.3892C96.6789 97.4986 101.038 101.855 101.038 101.855C101.038 101.855 97.9862 102.29 96.6762 107.957C95.3663 113.624 102.127 119.452 102.127 119.452C102.127 119.452 94.7153 127.382 100.601 135.859C106.486 144.335 122.448 158.231 129.065 168.489C133.89 175.951 131.911 193.646 131.911 193.646Z" fill="url(#paint23_linear_539_12496)"/>
<rect x="113.242" y="25.0391" width="67.246" height="122.416" rx="12" fill="url(#paint24_linear_539_12496)"/>
<path d="M169.311 28.1221H165.404V31.0127C165.404 31.8105 165.088 32.5755 164.524 33.1396C163.959 33.7037 163.194 34.0206 162.397 34.0206H131.313C129.652 34.0206 128.305 32.6739 128.305 31.0127V28.1221H124.399C119.881 28.1221 116.219 31.7843 116.219 36.3019V136.197C116.219 140.715 119.881 144.378 124.399 144.379H169.311C173.825 144.372 177.48 140.711 177.48 136.197V36.2967C177.477 31.7852 173.822 28.1278 169.311 28.1221V28.1221Z" fill="url(#paint25_linear_539_12496)"/>
<path d="M114.392 68.0553C114.392 68.0553 126.603 76.2585 129.535 79.644C132.467 83.0295 132.105 94.6859 117.884 88.8186C107.485 84.5295 102.118 79.9461 102.048 75.3575C101.977 70.7689 107.282 64.7844 114.392 68.0553Z" fill="url(#paint26_linear_539_12496)"/>
<path d="M130.272 82.4802C130.232 81.8784 129.94 81.3214 129.468 80.9463L122.244 75.2171C121.112 74.309 119.49 74.3531 118.41 75.3212C116.434 77.1077 115.301 79.3473 114.673 81.0505C114.158 82.4582 114.775 84.0288 116.111 84.7094L124.741 89.1366C125.437 89.4954 126.274 89.4413 126.918 88.9959C128.324 88.0194 130.507 85.936 130.272 82.4802Z" fill="url(#paint27_linear_539_12496)"/>
<rect x="133.648" y="28.1172" width="26.4301" height="2.50525" rx="1.25263" fill="white"/>
<path d="M111.112 120.572C111.112 120.572 121.268 123.718 124.422 129.135C126.708 133.067 123.067 139.031 116.468 137.729C109.869 136.426 101.963 135.015 98.7233 131.939C94.9498 128.356 98.3587 113.861 111.112 120.572Z" fill="url(#paint28_linear_539_12496)"/>
<path d="M107.848 102.001C107.848 102.001 125.794 104.051 132.007 110.483C135.799 114.41 131.875 123.189 121.718 122.082C111.562 120.975 99.2567 118.087 96.4937 114.322C93.1733 109.775 94.4337 99.126 107.848 102.001Z" fill="url(#paint29_linear_539_12496)"/>
<path d="M132.985 111.788C132.772 111.19 132.316 110.71 131.73 110.465L122.774 106.749C121.368 106.157 119.74 106.667 118.922 107.955C117.433 110.33 116.93 112.924 116.782 114.827C116.667 116.399 117.741 117.811 119.287 118.119L129.303 120.127C130.111 120.291 130.943 119.995 131.467 119.359C132.605 117.968 134.214 115.213 132.985 111.788Z" fill="url(#paint30_linear_539_12496)"/>
<path d="M123.059 128.288C122.915 127.77 122.559 127.337 122.078 127.096L114.726 123.437C113.575 122.848 112.167 123.179 111.398 124.218C110.217 125.909 109.458 127.859 109.184 129.903C108.991 131.227 109.818 132.486 111.109 132.835L119.455 135.124C120.128 135.311 120.85 135.111 121.33 134.604C122.38 133.484 123.903 131.249 123.059 128.288Z" fill="url(#paint31_linear_539_12496)"/>
<path d="M139.745 96.6367C142.349 99.9936 141.334 109.509 130.5 107.921C122.333 106.72 104.653 103.215 101.026 101.853C92.4551 98.6316 95.1661 82.2953 106.476 83.9751C115.812 85.3631 134.938 90.4309 139.745 96.6367Z" fill="url(#paint32_linear_539_12496)"/>
<path d="M140.69 97.845C140.46 97.2056 139.973 96.6922 139.346 96.4309L129.752 92.4464C128.243 91.814 126.499 92.3647 125.627 93.7486C124.033 96.2929 123.494 99.0716 123.338 101.108C123.211 102.793 124.362 104.307 126.02 104.634L136.742 106.77C137.606 106.946 138.497 106.631 139.057 105.949C140.283 104.457 142.005 101.514 140.69 97.845Z" fill="url(#paint33_linear_539_12496)"/>
<rect x="119.992" y="36.5991" width="53.5192" height="26.7947" rx="5" fill="white"/>
<path fill-rule="evenodd" clip-rule="evenodd" d="M124.312 42.2348C124.312 41.0841 125.245 40.1514 126.396 40.1514C126.95 40.1486 127.483 40.3669 127.876 40.7579C128.269 41.1489 128.49 41.6804 128.49 42.2348C128.49 43.0369 127.453 44.3937 126.841 45.1202C126.731 45.2492 126.57 45.3235 126.401 45.3235C126.232 45.3235 126.071 45.2492 125.961 45.1202C125.354 44.3937 124.312 43.0473 124.312 42.2348ZM125.7 42.5279C125.817 42.8092 126.091 42.9925 126.395 42.9925C126.811 42.9925 127.148 42.6556 127.148 42.2399C127.148 41.9355 126.965 41.6611 126.683 41.5446C126.402 41.4281 126.078 41.4925 125.863 41.7077C125.648 41.923 125.584 42.2467 125.7 42.5279Z" fill="url(#paint34_linear_539_12496)"/>
<rect x="132.719" y="42.2397" width="35.0944" height="1.00002" rx="0.500009" fill="url(#paint35_linear_539_12496)"/>
<path fill-rule="evenodd" clip-rule="evenodd" d="M124.312 50.581C124.312 49.4303 125.245 48.4976 126.396 48.4976C126.95 48.4948 127.483 48.7131 127.876 49.1041C128.269 49.4951 128.49 50.0266 128.49 50.581C128.49 51.3935 127.453 52.7398 126.841 53.4638C126.732 53.5936 126.571 53.6685 126.401 53.6685C126.231 53.6685 126.07 53.5936 125.961 53.4638C125.354 52.7398 124.312 51.3935 124.312 50.581ZM125.701 50.8766C125.818 51.159 126.095 51.3426 126.401 51.3416C126.816 51.3416 127.153 51.0046 127.153 50.5889C127.154 50.283 126.971 50.0067 126.688 49.8891C126.406 49.7715 126.08 49.836 125.864 50.0523C125.648 50.2686 125.583 50.5941 125.701 50.8766Z" fill="url(#paint36_linear_539_12496)"/>
<rect x="132.719" y="50.5889" width="35.0944" height="1.00002" rx="0.500009" fill="url(#paint37_linear_539_12496)"/>
<rect x="152.75" y="56.4216" width="14.5944" height="2.91887" rx="1.45944" fill="url(#paint38_linear_539_12496)"/>
<rect x="132.32" y="56.4216" width="15.5673" height="2.91887" rx="1.45944" fill="url(#paint39_linear_539_12496)"/>
<circle cx="63.4249" cy="176.302" r="22.1358" fill="url(#paint40_linear_539_12496)"/>
<path fill-rule="evenodd" clip-rule="evenodd" d="M53.3438 175.779L60.6383 183.077L73.3783 170.337" fill="url(#paint41_linear_539_12496)"/>
<path d="M53.3438 175.779L60.6383 183.077L73.3783 170.337" stroke="white" stroke-width="5" stroke-linecap="round" stroke-linejoin="round"/>
<path d="M142.127 147.456C142.127 147.456 139.085 122.455 166.015 109.08C171.461 100.048 172.823 93.9416 173.507 91.4519C174.192 88.9623 161.528 80.707 157.502 72.3735C153.476 64.04 158.682 60.2378 161.929 59.9488C165.177 59.6597 184.693 70.0661 188.716 72.0792C189.958 72.699 194.846 75.5897 195.906 78.4074C198.281 84.7253 198.802 93.1603 199.399 102.366C200.261 115.679 202.659 147.307 188.286 155.93C173.914 164.552 144.637 161.253 142.127 147.456Z" fill="url(#paint42_linear_539_12496)"/>
<path d="M161.914 59.9489C161.312 60.0098 160.723 60.1617 160.167 60.3995C159.702 61.3818 159.565 62.4872 159.776 63.5532C159.961 64.4109 160.446 65.1746 161.143 65.7068L170.906 72.4465C172.436 73.5161 174.514 73.3233 175.821 71.9908C177.17 70.5767 178.27 68.9442 179.073 67.1626C172.136 63.6756 163.914 59.7718 161.914 59.9489Z" fill="url(#paint43_linear_539_12496)"/>
<path d="M168.203 160.677C168.203 160.677 188.05 162.401 195.464 147.456" stroke="white" stroke-linecap="round" stroke-linejoin="round"/>
<path d="M162.391 111.051C162.391 111.051 166.833 107.861 175.485 108.098" stroke="white" stroke-linecap="round" stroke-linejoin="round"/>
<path fill-rule="evenodd" clip-rule="evenodd" d="M135.562 73.1522C135.564 70.6933 137.557 68.7004 140.016 68.699C142.476 68.699 144.47 70.6923 144.472 73.1522C144.472 74.8762 142.255 77.759 140.953 79.3033C140.721 79.5804 140.377 79.7404 140.016 79.7404C139.654 79.7404 139.311 79.5804 139.078 79.3033C137.773 77.759 135.562 74.8866 135.562 73.1522ZM138.413 73.1522C138.413 74.0396 139.132 74.759 140.02 74.759C140.446 74.759 140.855 74.5897 141.156 74.2884C141.457 73.987 141.627 73.5783 141.627 73.1522C141.627 72.2648 140.907 71.5454 140.02 71.5454C139.132 71.5454 138.413 72.2648 138.413 73.1522Z" fill="url(#paint44_linear_539_12496)"/>
<path d="M141.636 81.1082L160.06 94.7698L136.336 127.651" stroke="url(#paint45_linear_539_12496)" stroke-width="2" stroke-linecap="round" stroke-linejoin="round"/>
<path fill-rule="evenodd" clip-rule="evenodd" d="M126.555 130.703C126.555 128.242 128.55 126.247 131.01 126.247C133.47 126.249 135.464 128.243 135.464 130.703C135.464 132.425 133.25 135.307 131.948 136.852C131.715 137.129 131.372 137.289 131.01 137.289C130.649 137.289 130.306 137.129 130.073 136.852C128.766 135.307 126.555 132.435 126.555 130.703ZM129.528 131.318C129.776 131.919 130.362 132.31 131.012 132.31C131.899 132.31 132.619 131.591 132.619 130.703C132.619 130.053 132.227 129.467 131.627 129.219C131.026 128.97 130.335 129.107 129.876 129.567C129.416 130.027 129.279 130.718 129.528 131.318Z" fill="url(#paint46_linear_539_12496)"/>
<path fill-rule="evenodd" clip-rule="evenodd" d="M45.5054 35.1647C41.1746 30.0396 33.8438 20.5186 33.8438 14.7711C33.8438 6.61324 40.457 0 48.6148 0C56.7727 0 63.3859 6.61324 63.3859 14.7711C63.3859 20.5186 56.0551 30.0396 51.7217 35.1647C50.9503 36.0826 49.8126 36.6126 48.6135 36.6126C47.4145 36.6126 46.2768 36.0826 45.5054 35.1647ZM46.5795 9.84674C44.5885 10.6723 43.291 12.6159 43.2921 14.7712C43.2935 17.7129 45.6786 20.0968 48.6203 20.0968C50.7756 20.0968 52.7186 18.7984 53.5432 16.807C54.3677 14.8157 53.9114 12.5237 52.387 11.0001C50.8626 9.47643 48.5704 9.02121 46.5795 9.84674Z" fill="url(#paint47_linear_539_12496)"/>
</svg>
